<?xml version="1.0" encoding="UTF-8"?>
<svg id="Layer_2" data-name="Layer 2" xmlns="http://www.w3.org/2000/svg" viewBox="0 0 2001 2001">
  <defs>
    <style>
      .cls-1 {
        fill: none;
        stroke: #5b564d;
        stroke-miterlimit: 10;
      }

      .cls-2 {
        opacity: .79;
      }
    </style>
  </defs>
  <g id="road">
    <g class="cls-2">
      <g>
        <rect class="cls-1" x=".5" y=".5" width="2000" height="2000"/>
        <line class="cls-1" x1=".5" y1="1935.98" x2="2000.5" y2="1935.98"/>
        <line class="cls-1" x1=".5" y1="1871.47" x2="2000.5" y2="1871.47"/>
        <line class="cls-1" x1=".5" y1="1806.95" x2="2000.5" y2="1806.95"/>
        <line class="cls-1" x1=".5" y1="1742.44" x2="2000.5" y2="1742.44"/>
        <line class="cls-1" x1=".5" y1="1677.92" x2="2000.5" y2="1677.92"/>
        <line class="cls-1" x1=".5" y1="1613.4" x2="2000.5" y2="1613.4"/>
        <line class="cls-1" x1=".5" y1="1548.89" x2="2000.5" y2="1548.89"/>
        <line class="cls-1" x1=".5" y1="1484.37" x2="2000.5" y2="1484.37"/>
        <line class="cls-1" x1=".5" y1="1419.85" x2="2000.5" y2="1419.85"/>
        <line class="cls-1" x1=".5" y1="1355.34" x2="2000.5" y2="1355.34"/>
        <line class="cls-1" x1=".5" y1="1290.82" x2="2000.5" y2="1290.82"/>
        <line class="cls-1" x1=".5" y1="1226.31" x2="2000.5" y2="1226.31"/>
        <line class="cls-1" x1=".5" y1="1161.79" x2="2000.5" y2="1161.79"/>
        <line class="cls-1" x1=".5" y1="1097.27" x2="2000.5" y2="1097.27"/>
        <line class="cls-1" x1=".5" y1="1032.76" x2="2000.5" y2="1032.76"/>
        <line class="cls-1" x1=".5" y1="968.24" x2="2000.5" y2="968.24"/>
        <line class="cls-1" x1=".5" y1="903.73" x2="2000.5" y2="903.73"/>
        <line class="cls-1" x1=".5" y1="839.21" x2="2000.5" y2="839.21"/>
        <line class="cls-1" x1=".5" y1="774.69" x2="2000.5" y2="774.69"/>
        <line class="cls-1" x1=".5" y1="710.18" x2="2000.5" y2="710.18"/>
        <line class="cls-1" x1=".5" y1="645.66" x2="2000.5" y2="645.66"/>
        <line class="cls-1" x1=".5" y1="581.15" x2="2000.5" y2="581.15"/>
        <line class="cls-1" x1=".5" y1="516.63" x2="2000.5" y2="516.63"/>
        <line class="cls-1" x1=".5" y1="452.11" x2="2000.5" y2="452.11"/>
        <line class="cls-1" x1=".5" y1="387.6" x2="2000.5" y2="387.6"/>
        <line class="cls-1" x1=".5" y1="323.08" x2="2000.5" y2="323.08"/>
        <line class="cls-1" x1=".5" y1="258.56" x2="2000.5" y2="258.56"/>
        <line class="cls-1" x1=".5" y1="194.05" x2="2000.5" y2="194.05"/>
        <line class="cls-1" x1=".5" y1="129.53" x2="2000.5" y2="129.53"/>
        <line class="cls-1" x1=".5" y1="65.02" x2="2000.5" y2="65.02"/>
        <line class="cls-1" x1="1935.98" y1=".5" x2="1935.98" y2="2000.5"/>
        <line class="cls-1" x1="1871.47" y1=".5" x2="1871.47" y2="2000.5"/>
        <line class="cls-1" x1="1806.95" y1=".5" x2="1806.95" y2="2000.5"/>
        <line class="cls-1" x1="1742.44" y1=".5" x2="1742.44" y2="2000.5"/>
        <line class="cls-1" x1="1677.92" y1=".5" x2="1677.92" y2="2000.5"/>
        <line class="cls-1" x1="1613.4" y1=".5" x2="1613.4" y2="2000.5"/>
        <line class="cls-1" x1="1548.89" y1=".5" x2="1548.89" y2="2000.5"/>
        <line class="cls-1" x1="1484.37" y1=".5" x2="1484.37" y2="2000.5"/>
        <line class="cls-1" x1="1419.85" y1=".5" x2="1419.85" y2="2000.5"/>
        <line class="cls-1" x1="1355.34" y1=".5" x2="1355.34" y2="2000.5"/>
        <line class="cls-1" x1="1290.82" y1=".5" x2="1290.82" y2="2000.5"/>
        <line class="cls-1" x1="1226.31" y1=".5" x2="1226.31" y2="2000.5"/>
        <line class="cls-1" x1="1161.79" y1=".5" x2="1161.79" y2="2000.5"/>
        <line class="cls-1" x1="1097.27" y1=".5" x2="1097.27" y2="2000.5"/>
        <line class="cls-1" x1="1032.76" y1=".5" x2="1032.76" y2="2000.5"/>
        <line class="cls-1" x1="968.24" y1=".5" x2="968.24" y2="2000.5"/>
        <line class="cls-1" x1="903.73" y1=".5" x2="903.73" y2="2000.5"/>
        <line class="cls-1" x1="839.21" y1=".5" x2="839.21" y2="2000.5"/>
        <line class="cls-1" x1="774.69" y1=".5" x2="774.69" y2="2000.5"/>
        <line class="cls-1" x1="710.18" y1=".5" x2="710.18" y2="2000.5"/>
        <line class="cls-1" x1="645.66" y1=".5" x2="645.66" y2="2000.5"/>
        <line class="cls-1" x1="581.15" y1=".5" x2="581.15" y2="2000.5"/>
        <line class="cls-1" x1="516.63" y1=".5" x2="516.63" y2="2000.5"/>
        <line class="cls-1" x1="452.11" y1=".5" x2="452.11" y2="2000.5"/>
        <line class="cls-1" x1="387.6" y1=".5" x2="387.6" y2="2000.5"/>
        <line class="cls-1" x1="323.08" y1=".5" x2="323.08" y2="2000.5"/>
        <line class="cls-1" x1="258.56" y1=".5" x2="258.56" y2="2000.5"/>
        <line class="cls-1" x1="194.05" y1=".5" x2="194.05" y2="2000.5"/>
        <line class="cls-1" x1="129.53" y1=".5" x2="129.53" y2="2000.5"/>
        <line class="cls-1" x1="65.02" y1=".5" x2="65.02" y2="2000.5"/>
      </g>
    </g>
  </g>
</svg>