<?xml version="1.0" encoding="UTF-8"?>
<svg id="Layer_2" data-name="Layer 2" xmlns="http://www.w3.org/2000/svg" viewBox="0 0 201.88 203">
  <defs>
    <style>
      .cls-1 {
        fill: #ff78ab;
      }

      .cls-2 {
        fill: #e0d6c0;
        opacity: .79;
      }

      .cls-3 {
        fill: #eadec9;
      }

      .cls-4 {
        fill: #fefefe;
      }
    </style>
  </defs>
  <g id="new_squares_map" data-name="new squares map">
    <g>
      <polygon class="cls-2" points="63.47 119.1 122.59 57.28 161.83 88.19 161.56 102.97 175.22 118 201.88 147.31 201.88 199.72 154.92 203 123.07 175.98 105.13 160.75 87.66 156.72 63.47 119.1"/>
      <g>
        <path class="cls-4" d="m9.06,49.5V14.17c0-6.99,5.68-12.67,12.67-12.67h1.24c6.99,0,12.67,5.68,12.67,12.67v35.33H9.06Z"/>
        <path class="cls-3" d="m22.97,3c6.17,0,11.17,5,11.17,11.17v33.83H10.56V14.17c0-6.17,5-11.17,11.17-11.17h1.24m0-3h-1.24C13.92,0,7.56,6.36,7.56,14.17v36.83h29.59V14.17c0-7.81-6.36-14.17-14.17-14.17h0Z"/>
      </g>
      <g>
        <rect class="cls-4" x="1.5" y="44.55" width="140.06" height="91.3" rx="11.94" ry="11.94"/>
        <path class="cls-3" d="m129.62,46.06c5.76,0,10.44,4.67,10.44,10.44v67.42c0,5.76-4.67,10.44-10.44,10.44H13.44c-5.76,0-10.44-4.67-10.44-10.44V56.49c0-5.76,4.67-10.44,10.44-10.44h116.19m0-3H13.44c-7.41,0-13.44,6.03-13.44,13.44v67.42c0,7.41,6.03,13.44,13.44,13.44h116.19c7.41,0,13.44-6.03,13.44-13.44V56.49c0-7.41-6.03-13.44-13.44-13.44h0Z"/>
      </g>
      <rect class="cls-1" x="63.47" y="57.28" width="63.16" height="63.16" rx="4.65" ry="4.65"/>
    </g>
  </g>
</svg>