<?xml version="1.0" encoding="UTF-8"?>
<svg id="Layer_2" data-name="Layer 2" xmlns="http://www.w3.org/2000/svg" xmlns:xlink="http://www.w3.org/1999/xlink" viewBox="0 0 633.62 242.9">
  <defs>
    <style>
      .cls-1 {
        fill: #3b0013;
      }

      .cls-2 {
        fill: #564d3b;
      }

      .cls-3 {
        opacity: .24;
      }

      .cls-4, .cls-5 {
        font-family: SFProDisplay-Black, 'SF Pro Display';
        font-size: 134.81px;
        font-weight: 800;
        letter-spacing: .08em;
      }

      .cls-6 {
        clip-path: url(#clippath);
      }

      .cls-7 {
        fill: none;
      }

      .cls-5 {
        fill: #db5e56;
      }

      .cls-8 {
        fill: #e0d6c0;
        stroke: #333;
        stroke-miterlimit: 10;
        stroke-width: 4px;
      }
    </style>
    <clipPath id="clippath">
      <rect class="cls-7" x="2" y="2" width="629.62" height="230.82" rx="46.2" ry="46.2"/>
    </clipPath>
  </defs>
  <g id="Layer_24" data-name="Layer 24">
    <g id="EXIT">
      <g>
        <g>
          <rect class="cls-8" x="2" y="2" width="629.62" height="230.82" rx="46.2" ry="46.2"/>
          <g class="cls-3">
            <g class="cls-6">
              <rect class="cls-2" x="314.21" y="-345.74" width="227.63" height="1280.83" transform="translate(76.99 677.84) rotate(-82.05)"/>
            </g>
          </g>
        </g>
        <g>
          <text class="cls-4" transform="translate(106.87 155.74)"><tspan x="0" y="0">EXIT</tspan></text>
          <g>
            <g>
              <polygon class="cls-1" points="158.45 210.74 158.45 105.76 235.46 105.76 235.46 137.87 196.36 137.87 196.36 143.01 233.03 143.01 233.03 173.55 196.36 173.55 196.36 178.63 235.46 178.63 235.46 210.74 158.45 210.74"/>
              <polygon class="cls-1" points="309.49 210.74 295.75 186.74 282.12 210.74 240.99 210.74 272.04 157.91 240.84 105.76 285.28 105.76 297.39 130.29 309.55 105.76 352.62 105.76 319.89 158.04 352.42 210.74 309.49 210.74"/>
              <rect class="cls-1" x="357.92" y="105.76" width="37.91" height="104.99"/>
              <polygon class="cls-1" points="430.5 210.74 430.5 137.87 405.49 137.87 405.49 105.76 493.43 105.76 493.43 137.87 468.41 137.87 468.41 210.74 430.5 210.74"/>
            </g>
            <g>
              <polygon class="cls-1" points="157.45 209.74 157.45 104.76 234.46 104.76 234.46 136.87 195.36 136.87 195.36 142.01 232.03 142.01 232.03 172.55 195.36 172.55 195.36 177.63 234.46 177.63 234.46 209.74 157.45 209.74"/>
              <polygon class="cls-1" points="308.49 209.74 294.75 185.74 281.12 209.74 239.99 209.74 271.04 156.91 239.84 104.76 284.28 104.76 296.39 129.29 308.55 104.76 351.62 104.76 318.89 157.04 351.42 209.74 308.49 209.74"/>
              <rect class="cls-1" x="356.92" y="104.76" width="37.91" height="104.99"/>
              <polygon class="cls-1" points="429.5 209.74 429.5 136.87 404.49 136.87 404.49 104.76 492.43 104.76 492.43 136.87 467.41 136.87 467.41 209.74 429.5 209.74"/>
            </g>
            <g>
              <polygon class="cls-1" points="156.45 208.74 156.45 103.76 233.46 103.76 233.46 135.87 194.36 135.87 194.36 141.01 231.03 141.01 231.03 171.55 194.36 171.55 194.36 176.63 233.46 176.63 233.46 208.74 156.45 208.74"/>
              <polygon class="cls-1" points="307.49 208.74 293.75 184.74 280.12 208.74 238.99 208.74 270.04 155.91 238.84 103.76 283.28 103.76 295.39 128.29 307.55 103.76 350.62 103.76 317.89 156.04 350.42 208.74 307.49 208.74"/>
              <rect class="cls-1" x="355.92" y="103.76" width="37.91" height="104.99"/>
              <polygon class="cls-1" points="428.5 208.74 428.5 135.87 403.49 135.87 403.49 103.76 491.43 103.76 491.43 135.87 466.41 135.87 466.41 208.74 428.5 208.74"/>
            </g>
            <g>
              <polygon class="cls-1" points="155.45 207.74 155.45 102.76 232.46 102.76 232.46 134.87 193.36 134.87 193.36 140.01 230.03 140.01 230.03 170.55 193.36 170.55 193.36 175.63 232.46 175.63 232.46 207.74 155.45 207.74"/>
              <polygon class="cls-1" points="306.49 207.74 292.75 183.74 279.12 207.74 237.99 207.74 269.04 154.91 237.84 102.76 282.28 102.76 294.39 127.29 306.55 102.76 349.62 102.76 316.89 155.04 349.42 207.74 306.49 207.74"/>
              <rect class="cls-1" x="354.92" y="102.76" width="37.91" height="104.99"/>
              <polygon class="cls-1" points="427.5 207.74 427.5 134.87 402.49 134.87 402.49 102.76 490.43 102.76 490.43 134.87 465.41 134.87 465.41 207.74 427.5 207.74"/>
            </g>
            <g>
              <polygon class="cls-1" points="154.45 206.74 154.45 101.76 231.46 101.76 231.46 133.87 192.36 133.87 192.36 139.01 229.03 139.01 229.03 169.55 192.36 169.55 192.36 174.63 231.46 174.63 231.46 206.74 154.45 206.74"/>
              <polygon class="cls-1" points="305.49 206.74 291.75 182.74 278.12 206.74 236.99 206.74 268.04 153.91 236.84 101.76 281.28 101.76 293.39 126.29 305.55 101.76 348.62 101.76 315.89 154.04 348.42 206.74 305.49 206.74"/>
              <rect class="cls-1" x="353.92" y="101.76" width="37.91" height="104.99"/>
              <polygon class="cls-1" points="426.5 206.74 426.5 133.87 401.49 133.87 401.49 101.76 489.43 101.76 489.43 133.87 464.41 133.87 464.41 206.74 426.5 206.74"/>
            </g>
            <g>
              <polygon class="cls-1" points="153.45 205.74 153.45 100.76 230.46 100.76 230.46 132.87 191.36 132.87 191.36 138.01 228.03 138.01 228.03 168.55 191.36 168.55 191.36 173.63 230.46 173.63 230.46 205.74 153.45 205.74"/>
              <polygon class="cls-1" points="304.49 205.74 290.75 181.74 277.12 205.74 235.99 205.74 267.04 152.91 235.84 100.76 280.28 100.76 292.39 125.29 304.55 100.76 347.62 100.76 314.89 153.04 347.42 205.74 304.49 205.74"/>
              <rect class="cls-1" x="352.92" y="100.76" width="37.91" height="104.99"/>
              <polygon class="cls-1" points="425.5 205.74 425.5 132.87 400.49 132.87 400.49 100.76 488.43 100.76 488.43 132.87 463.41 132.87 463.41 205.74 425.5 205.74"/>
            </g>
            <g>
              <polygon class="cls-1" points="152.45 204.74 152.45 99.76 229.46 99.76 229.46 131.87 190.36 131.87 190.36 137.01 227.03 137.01 227.03 167.55 190.36 167.55 190.36 172.63 229.46 172.63 229.46 204.74 152.45 204.74"/>
              <polygon class="cls-1" points="303.49 204.74 289.75 180.74 276.12 204.74 234.99 204.74 266.04 151.91 234.84 99.76 279.28 99.76 291.39 124.29 303.55 99.76 346.62 99.76 313.89 152.04 346.42 204.74 303.49 204.74"/>
              <rect class="cls-1" x="351.92" y="99.76" width="37.91" height="104.99"/>
              <polygon class="cls-1" points="424.5 204.74 424.5 131.87 399.49 131.87 399.49 99.76 487.43 99.76 487.43 131.87 462.41 131.87 462.41 204.74 424.5 204.74"/>
            </g>
            <g>
              <polygon class="cls-1" points="151.45 203.74 151.45 98.76 228.46 98.76 228.46 130.87 189.36 130.87 189.36 136.01 226.03 136.01 226.03 166.55 189.36 166.55 189.36 171.63 228.46 171.63 228.46 203.74 151.45 203.74"/>
              <polygon class="cls-1" points="302.49 203.74 288.75 179.74 275.12 203.74 233.99 203.74 265.04 150.91 233.84 98.76 278.28 98.76 290.39 123.29 302.55 98.76 345.62 98.76 312.89 151.04 345.42 203.74 302.49 203.74"/>
              <rect class="cls-1" x="350.92" y="98.76" width="37.91" height="104.99"/>
              <polygon class="cls-1" points="423.5 203.74 423.5 130.87 398.49 130.87 398.49 98.76 486.43 98.76 486.43 130.87 461.41 130.87 461.41 203.74 423.5 203.74"/>
            </g>
            <g>
              <polygon class="cls-1" points="150.45 202.74 150.45 97.76 227.46 97.76 227.46 129.87 188.36 129.87 188.36 135.01 225.03 135.01 225.03 165.55 188.36 165.55 188.36 170.63 227.46 170.63 227.46 202.74 150.45 202.74"/>
              <polygon class="cls-1" points="301.49 202.74 287.75 178.74 274.12 202.74 232.99 202.74 264.04 149.91 232.84 97.76 277.28 97.76 289.39 122.29 301.55 97.76 344.62 97.76 311.89 150.04 344.42 202.74 301.49 202.74"/>
              <rect class="cls-1" x="349.92" y="97.76" width="37.91" height="104.99"/>
              <polygon class="cls-1" points="422.5 202.74 422.5 129.87 397.49 129.87 397.49 97.76 485.43 97.76 485.43 129.87 460.41 129.87 460.41 202.74 422.5 202.74"/>
            </g>
            <g>
              <polygon class="cls-1" points="149.45 201.74 149.45 96.76 226.46 96.76 226.46 128.87 187.36 128.87 187.36 134.01 224.03 134.01 224.03 164.55 187.36 164.55 187.36 169.63 226.46 169.63 226.46 201.74 149.45 201.74"/>
              <polygon class="cls-1" points="300.49 201.74 286.75 177.74 273.12 201.74 231.99 201.74 263.04 148.91 231.84 96.76 276.28 96.76 288.39 121.29 300.55 96.76 343.62 96.76 310.89 149.04 343.42 201.74 300.49 201.74"/>
              <rect class="cls-1" x="348.92" y="96.76" width="37.91" height="104.99"/>
              <polygon class="cls-1" points="421.5 201.74 421.5 128.87 396.49 128.87 396.49 96.76 484.43 96.76 484.43 128.87 459.41 128.87 459.41 201.74 421.5 201.74"/>
            </g>
            <g>
              <polygon class="cls-1" points="148.45 200.74 148.45 95.76 225.46 95.76 225.46 127.87 186.36 127.87 186.36 133.01 223.03 133.01 223.03 163.55 186.36 163.55 186.36 168.63 225.46 168.63 225.46 200.74 148.45 200.74"/>
              <polygon class="cls-1" points="299.49 200.74 285.75 176.74 272.12 200.74 230.99 200.74 262.04 147.91 230.84 95.76 275.28 95.76 287.39 120.29 299.55 95.76 342.62 95.76 309.89 148.04 342.42 200.74 299.49 200.74"/>
              <rect class="cls-1" x="347.92" y="95.76" width="37.91" height="104.99"/>
              <polygon class="cls-1" points="420.5 200.74 420.5 127.87 395.49 127.87 395.49 95.76 483.43 95.76 483.43 127.87 458.41 127.87 458.41 200.74 420.5 200.74"/>
            </g>
            <g>
              <polygon class="cls-1" points="147.45 199.74 147.45 94.76 224.46 94.76 224.46 126.87 185.36 126.87 185.36 132.01 222.03 132.01 222.03 162.55 185.36 162.55 185.36 167.63 224.46 167.63 224.46 199.74 147.45 199.74"/>
              <polygon class="cls-1" points="298.49 199.74 284.75 175.74 271.12 199.74 229.99 199.74 261.04 146.91 229.84 94.76 274.28 94.76 286.39 119.29 298.55 94.76 341.62 94.76 308.89 147.04 341.42 199.74 298.49 199.74"/>
              <rect class="cls-1" x="346.92" y="94.76" width="37.91" height="104.99"/>
              <polygon class="cls-1" points="419.5 199.74 419.5 126.87 394.49 126.87 394.49 94.76 482.43 94.76 482.43 126.87 457.41 126.87 457.41 199.74 419.5 199.74"/>
            </g>
            <g>
              <polygon class="cls-1" points="146.45 198.74 146.45 93.76 223.46 93.76 223.46 125.87 184.36 125.87 184.36 131.01 221.03 131.01 221.03 161.55 184.36 161.55 184.36 166.63 223.46 166.63 223.46 198.74 146.45 198.74"/>
              <polygon class="cls-1" points="297.49 198.74 283.75 174.74 270.12 198.74 228.99 198.74 260.04 145.91 228.84 93.76 273.28 93.76 285.39 118.29 297.55 93.76 340.62 93.76 307.89 146.04 340.42 198.74 297.49 198.74"/>
              <rect class="cls-1" x="345.92" y="93.76" width="37.91" height="104.99"/>
              <polygon class="cls-1" points="418.5 198.74 418.5 125.87 393.49 125.87 393.49 93.76 481.43 93.76 481.43 125.87 456.41 125.87 456.41 198.74 418.5 198.74"/>
            </g>
            <g>
              <polygon class="cls-1" points="145.45 197.74 145.45 92.76 222.46 92.76 222.46 124.87 183.36 124.87 183.36 130.01 220.03 130.01 220.03 160.55 183.36 160.55 183.36 165.63 222.46 165.63 222.46 197.74 145.45 197.74"/>
              <polygon class="cls-1" points="296.49 197.74 282.75 173.74 269.12 197.74 227.99 197.74 259.04 144.91 227.84 92.76 272.28 92.76 284.39 117.29 296.55 92.76 339.62 92.76 306.89 145.04 339.42 197.74 296.49 197.74"/>
              <rect class="cls-1" x="344.92" y="92.76" width="37.91" height="104.99"/>
              <polygon class="cls-1" points="417.5 197.74 417.5 124.87 392.49 124.87 392.49 92.76 480.43 92.76 480.43 124.87 455.41 124.87 455.41 197.74 417.5 197.74"/>
            </g>
            <g>
              <polygon class="cls-1" points="144.45 196.74 144.45 91.76 221.46 91.76 221.46 123.87 182.36 123.87 182.36 129.01 219.03 129.01 219.03 159.55 182.36 159.55 182.36 164.63 221.46 164.63 221.46 196.74 144.45 196.74"/>
              <polygon class="cls-1" points="295.49 196.74 281.75 172.74 268.12 196.74 226.99 196.74 258.04 143.91 226.84 91.76 271.28 91.76 283.39 116.29 295.55 91.76 338.62 91.76 305.89 144.04 338.42 196.74 295.49 196.74"/>
              <rect class="cls-1" x="343.92" y="91.76" width="37.91" height="104.99"/>
              <polygon class="cls-1" points="416.5 196.74 416.5 123.87 391.49 123.87 391.49 91.76 479.43 91.76 479.43 123.87 454.41 123.87 454.41 196.74 416.5 196.74"/>
            </g>
            <g>
              <polygon class="cls-1" points="143.45 195.74 143.45 90.76 220.46 90.76 220.46 122.87 181.36 122.87 181.36 128.01 218.03 128.01 218.03 158.55 181.36 158.55 181.36 163.63 220.46 163.63 220.46 195.74 143.45 195.74"/>
              <polygon class="cls-1" points="294.49 195.74 280.75 171.74 267.12 195.74 225.99 195.74 257.04 142.91 225.84 90.76 270.28 90.76 282.39 115.29 294.55 90.76 337.62 90.76 304.89 143.04 337.42 195.74 294.49 195.74"/>
              <rect class="cls-1" x="342.92" y="90.76" width="37.91" height="104.99"/>
              <polygon class="cls-1" points="415.5 195.74 415.5 122.87 390.49 122.87 390.49 90.76 478.43 90.76 478.43 122.87 453.41 122.87 453.41 195.74 415.5 195.74"/>
            </g>
            <g>
              <polygon class="cls-1" points="142.45 194.74 142.45 89.76 219.46 89.76 219.46 121.87 180.36 121.87 180.36 127.01 217.03 127.01 217.03 157.55 180.36 157.55 180.36 162.63 219.46 162.63 219.46 194.74 142.45 194.74"/>
              <polygon class="cls-1" points="293.49 194.74 279.75 170.74 266.12 194.74 224.99 194.74 256.04 141.91 224.84 89.76 269.28 89.76 281.39 114.29 293.55 89.76 336.62 89.76 303.89 142.04 336.42 194.74 293.49 194.74"/>
              <rect class="cls-1" x="341.92" y="89.76" width="37.91" height="104.99"/>
              <polygon class="cls-1" points="414.5 194.74 414.5 121.87 389.49 121.87 389.49 89.76 477.43 89.76 477.43 121.87 452.41 121.87 452.41 194.74 414.5 194.74"/>
            </g>
            <g>
              <polygon class="cls-1" points="141.45 193.74 141.45 88.76 218.46 88.76 218.46 120.87 179.36 120.87 179.36 126.01 216.03 126.01 216.03 156.55 179.36 156.55 179.36 161.63 218.46 161.63 218.46 193.74 141.45 193.74"/>
              <polygon class="cls-1" points="292.49 193.74 278.75 169.74 265.12 193.74 223.99 193.74 255.04 140.91 223.84 88.76 268.28 88.76 280.39 113.29 292.55 88.76 335.62 88.76 302.89 141.04 335.42 193.74 292.49 193.74"/>
              <rect class="cls-1" x="340.92" y="88.76" width="37.91" height="104.99"/>
              <polygon class="cls-1" points="413.5 193.74 413.5 120.87 388.49 120.87 388.49 88.76 476.43 88.76 476.43 120.87 451.41 120.87 451.41 193.74 413.5 193.74"/>
            </g>
            <g>
              <polygon class="cls-1" points="140.45 192.74 140.45 87.76 217.46 87.76 217.46 119.87 178.36 119.87 178.36 125.01 215.03 125.01 215.03 155.55 178.36 155.55 178.36 160.63 217.46 160.63 217.46 192.74 140.45 192.74"/>
              <polygon class="cls-1" points="291.49 192.74 277.75 168.74 264.12 192.74 222.99 192.74 254.04 139.91 222.84 87.76 267.28 87.76 279.39 112.29 291.55 87.76 334.62 87.76 301.89 140.04 334.42 192.74 291.49 192.74"/>
              <rect class="cls-1" x="339.92" y="87.76" width="37.91" height="104.99"/>
              <polygon class="cls-1" points="412.5 192.74 412.5 119.87 387.49 119.87 387.49 87.76 475.43 87.76 475.43 119.87 450.41 119.87 450.41 192.74 412.5 192.74"/>
            </g>
            <g>
              <polygon class="cls-1" points="139.45 191.74 139.45 86.76 216.46 86.76 216.46 118.87 177.36 118.87 177.36 124.01 214.03 124.01 214.03 154.55 177.36 154.55 177.36 159.63 216.46 159.63 216.46 191.74 139.45 191.74"/>
              <polygon class="cls-1" points="290.49 191.74 276.75 167.74 263.12 191.74 221.99 191.74 253.04 138.91 221.84 86.76 266.28 86.76 278.39 111.29 290.55 86.76 333.62 86.76 300.89 139.04 333.42 191.74 290.49 191.74"/>
              <rect class="cls-1" x="338.92" y="86.76" width="37.91" height="104.99"/>
              <polygon class="cls-1" points="411.5 191.74 411.5 118.87 386.49 118.87 386.49 86.76 474.43 86.76 474.43 118.87 449.41 118.87 449.41 191.74 411.5 191.74"/>
            </g>
            <g>
              <polygon class="cls-1" points="138.45 190.74 138.45 85.76 215.46 85.76 215.46 117.87 176.36 117.87 176.36 123.01 213.03 123.01 213.03 153.55 176.36 153.55 176.36 158.63 215.46 158.63 215.46 190.74 138.45 190.74"/>
              <polygon class="cls-1" points="289.49 190.74 275.75 166.74 262.12 190.74 220.99 190.74 252.04 137.91 220.84 85.76 265.28 85.76 277.39 110.29 289.55 85.76 332.62 85.76 299.89 138.04 332.42 190.74 289.49 190.74"/>
              <rect class="cls-1" x="337.92" y="85.76" width="37.91" height="104.99"/>
              <polygon class="cls-1" points="410.5 190.74 410.5 117.87 385.49 117.87 385.49 85.76 473.43 85.76 473.43 117.87 448.41 117.87 448.41 190.74 410.5 190.74"/>
            </g>
            <g>
              <polygon class="cls-1" points="137.45 189.74 137.45 84.76 214.46 84.76 214.46 116.87 175.36 116.87 175.36 122.01 212.03 122.01 212.03 152.55 175.36 152.55 175.36 157.63 214.46 157.63 214.46 189.74 137.45 189.74"/>
              <polygon class="cls-1" points="288.49 189.74 274.75 165.74 261.12 189.74 219.99 189.74 251.04 136.91 219.84 84.76 264.28 84.76 276.39 109.29 288.55 84.76 331.62 84.76 298.89 137.04 331.42 189.74 288.49 189.74"/>
              <rect class="cls-1" x="336.92" y="84.76" width="37.91" height="104.99"/>
              <polygon class="cls-1" points="409.5 189.74 409.5 116.87 384.49 116.87 384.49 84.76 472.43 84.76 472.43 116.87 447.41 116.87 447.41 189.74 409.5 189.74"/>
            </g>
            <g>
              <polygon class="cls-1" points="136.45 188.74 136.45 83.76 213.46 83.76 213.46 115.87 174.36 115.87 174.36 121.01 211.03 121.01 211.03 151.55 174.36 151.55 174.36 156.63 213.46 156.63 213.46 188.74 136.45 188.74"/>
              <polygon class="cls-1" points="287.49 188.74 273.75 164.74 260.12 188.74 218.99 188.74 250.04 135.91 218.84 83.76 263.28 83.76 275.39 108.29 287.55 83.76 330.62 83.76 297.89 136.04 330.42 188.74 287.49 188.74"/>
              <rect class="cls-1" x="335.92" y="83.76" width="37.91" height="104.99"/>
              <polygon class="cls-1" points="408.5 188.74 408.5 115.87 383.49 115.87 383.49 83.76 471.43 83.76 471.43 115.87 446.41 115.87 446.41 188.74 408.5 188.74"/>
            </g>
            <g>
              <polygon class="cls-1" points="135.45 187.74 135.45 82.76 212.46 82.76 212.46 114.87 173.36 114.87 173.36 120.01 210.03 120.01 210.03 150.55 173.36 150.55 173.36 155.63 212.46 155.63 212.46 187.74 135.45 187.74"/>
              <polygon class="cls-1" points="286.49 187.74 272.75 163.74 259.12 187.74 217.99 187.74 249.04 134.91 217.84 82.76 262.28 82.76 274.39 107.29 286.55 82.76 329.62 82.76 296.89 135.04 329.42 187.74 286.49 187.74"/>
              <rect class="cls-1" x="334.92" y="82.76" width="37.91" height="104.99"/>
              <polygon class="cls-1" points="407.5 187.74 407.5 114.87 382.49 114.87 382.49 82.76 470.43 82.76 470.43 114.87 445.41 114.87 445.41 187.74 407.5 187.74"/>
            </g>
            <g>
              <polygon class="cls-1" points="134.45 186.74 134.45 81.76 211.46 81.76 211.46 113.87 172.36 113.87 172.36 119.01 209.03 119.01 209.03 149.55 172.36 149.55 172.36 154.63 211.46 154.63 211.46 186.74 134.45 186.74"/>
              <polygon class="cls-1" points="285.49 186.74 271.75 162.74 258.12 186.74 216.99 186.74 248.04 133.91 216.84 81.76 261.28 81.76 273.39 106.29 285.55 81.76 328.62 81.76 295.89 134.04 328.42 186.74 285.49 186.74"/>
              <rect class="cls-1" x="333.92" y="81.76" width="37.91" height="104.99"/>
              <polygon class="cls-1" points="406.5 186.74 406.5 113.87 381.49 113.87 381.49 81.76 469.43 81.76 469.43 113.87 444.41 113.87 444.41 186.74 406.5 186.74"/>
            </g>
            <g>
              <polygon class="cls-1" points="133.45 185.74 133.45 80.76 210.46 80.76 210.46 112.87 171.36 112.87 171.36 118.01 208.03 118.01 208.03 148.55 171.36 148.55 171.36 153.63 210.46 153.63 210.46 185.74 133.45 185.74"/>
              <polygon class="cls-1" points="284.49 185.74 270.75 161.74 257.12 185.74 215.99 185.74 247.04 132.91 215.84 80.76 260.28 80.76 272.39 105.29 284.55 80.76 327.62 80.76 294.89 133.04 327.42 185.74 284.49 185.74"/>
              <rect class="cls-1" x="332.92" y="80.76" width="37.91" height="104.99"/>
              <polygon class="cls-1" points="405.5 185.74 405.5 112.87 380.49 112.87 380.49 80.76 468.43 80.76 468.43 112.87 443.41 112.87 443.41 185.74 405.5 185.74"/>
            </g>
            <g>
              <polygon class="cls-1" points="132.45 184.74 132.45 79.76 209.46 79.76 209.46 111.87 170.36 111.87 170.36 117.01 207.03 117.01 207.03 147.55 170.36 147.55 170.36 152.63 209.46 152.63 209.46 184.74 132.45 184.74"/>
              <polygon class="cls-1" points="283.49 184.74 269.75 160.74 256.12 184.74 214.99 184.74 246.04 131.91 214.84 79.76 259.28 79.76 271.39 104.29 283.55 79.76 326.62 79.76 293.89 132.04 326.42 184.74 283.49 184.74"/>
              <rect class="cls-1" x="331.92" y="79.76" width="37.91" height="104.99"/>
              <polygon class="cls-1" points="404.5 184.74 404.5 111.87 379.49 111.87 379.49 79.76 467.43 79.76 467.43 111.87 442.41 111.87 442.41 184.74 404.5 184.74"/>
            </g>
            <g>
              <polygon class="cls-1" points="131.45 183.74 131.45 78.76 208.46 78.76 208.46 110.87 169.36 110.87 169.36 116.01 206.03 116.01 206.03 146.55 169.36 146.55 169.36 151.63 208.46 151.63 208.46 183.74 131.45 183.74"/>
              <polygon class="cls-1" points="282.49 183.74 268.75 159.74 255.12 183.74 213.99 183.74 245.04 130.91 213.84 78.76 258.28 78.76 270.39 103.29 282.55 78.76 325.62 78.76 292.89 131.04 325.42 183.74 282.49 183.74"/>
              <rect class="cls-1" x="330.92" y="78.76" width="37.91" height="104.99"/>
              <polygon class="cls-1" points="403.5 183.74 403.5 110.87 378.49 110.87 378.49 78.76 466.43 78.76 466.43 110.87 441.41 110.87 441.41 183.74 403.5 183.74"/>
            </g>
            <g>
              <polygon class="cls-1" points="130.45 182.74 130.45 77.76 207.46 77.76 207.46 109.87 168.36 109.87 168.36 115.01 205.03 115.01 205.03 145.55 168.36 145.55 168.36 150.63 207.46 150.63 207.46 182.74 130.45 182.74"/>
              <polygon class="cls-1" points="281.49 182.74 267.75 158.74 254.12 182.74 212.99 182.74 244.04 129.91 212.84 77.76 257.28 77.76 269.39 102.29 281.55 77.76 324.62 77.76 291.89 130.04 324.42 182.74 281.49 182.74"/>
              <rect class="cls-1" x="329.92" y="77.76" width="37.91" height="104.99"/>
              <polygon class="cls-1" points="402.5 182.74 402.5 109.87 377.49 109.87 377.49 77.76 465.43 77.76 465.43 109.87 440.41 109.87 440.41 182.74 402.5 182.74"/>
            </g>
            <g>
              <polygon class="cls-1" points="129.45 181.74 129.45 76.76 206.46 76.76 206.46 108.87 167.36 108.87 167.36 114.01 204.03 114.01 204.03 144.55 167.36 144.55 167.36 149.63 206.46 149.63 206.46 181.74 129.45 181.74"/>
              <polygon class="cls-1" points="280.49 181.74 266.75 157.74 253.12 181.74 211.99 181.74 243.04 128.91 211.84 76.76 256.28 76.76 268.39 101.29 280.55 76.76 323.62 76.76 290.89 129.04 323.42 181.74 280.49 181.74"/>
              <rect class="cls-1" x="328.92" y="76.76" width="37.91" height="104.99"/>
              <polygon class="cls-1" points="401.5 181.74 401.5 108.87 376.49 108.87 376.49 76.76 464.43 76.76 464.43 108.87 439.41 108.87 439.41 181.74 401.5 181.74"/>
            </g>
            <g>
              <polygon class="cls-1" points="128.45 180.74 128.45 75.76 205.46 75.76 205.46 107.87 166.36 107.87 166.36 113.01 203.03 113.01 203.03 143.55 166.36 143.55 166.36 148.63 205.46 148.63 205.46 180.74 128.45 180.74"/>
              <polygon class="cls-1" points="279.49 180.74 265.75 156.74 252.12 180.74 210.99 180.74 242.04 127.91 210.84 75.76 255.28 75.76 267.39 100.29 279.55 75.76 322.62 75.76 289.89 128.04 322.42 180.74 279.49 180.74"/>
              <rect class="cls-1" x="327.92" y="75.76" width="37.91" height="104.99"/>
              <polygon class="cls-1" points="400.5 180.74 400.5 107.87 375.49 107.87 375.49 75.76 463.43 75.76 463.43 107.87 438.41 107.87 438.41 180.74 400.5 180.74"/>
            </g>
            <g>
              <polygon class="cls-1" points="127.45 179.74 127.45 74.76 204.46 74.76 204.46 106.87 165.36 106.87 165.36 112.01 202.03 112.01 202.03 142.55 165.36 142.55 165.36 147.63 204.46 147.63 204.46 179.74 127.45 179.74"/>
              <polygon class="cls-1" points="278.49 179.74 264.75 155.74 251.12 179.74 209.99 179.74 241.04 126.91 209.84 74.76 254.28 74.76 266.39 99.29 278.55 74.76 321.62 74.76 288.89 127.04 321.42 179.74 278.49 179.74"/>
              <rect class="cls-1" x="326.92" y="74.76" width="37.91" height="104.99"/>
              <polygon class="cls-1" points="399.5 179.74 399.5 106.87 374.49 106.87 374.49 74.76 462.43 74.76 462.43 106.87 437.41 106.87 437.41 179.74 399.5 179.74"/>
            </g>
            <g>
              <polygon class="cls-1" points="126.45 178.74 126.45 73.76 203.46 73.76 203.46 105.87 164.36 105.87 164.36 111.01 201.03 111.01 201.03 141.55 164.36 141.55 164.36 146.63 203.46 146.63 203.46 178.74 126.45 178.74"/>
              <polygon class="cls-1" points="277.49 178.74 263.75 154.74 250.12 178.74 208.99 178.74 240.04 125.91 208.84 73.76 253.28 73.76 265.39 98.29 277.55 73.76 320.62 73.76 287.89 126.04 320.42 178.74 277.49 178.74"/>
              <rect class="cls-1" x="325.92" y="73.76" width="37.91" height="104.99"/>
              <polygon class="cls-1" points="398.5 178.74 398.5 105.87 373.49 105.87 373.49 73.76 461.43 73.76 461.43 105.87 436.41 105.87 436.41 178.74 398.5 178.74"/>
            </g>
            <g>
              <polygon class="cls-1" points="125.45 177.74 125.45 72.76 202.46 72.76 202.46 104.87 163.36 104.87 163.36 110.01 200.03 110.01 200.03 140.55 163.36 140.55 163.36 145.63 202.46 145.63 202.46 177.74 125.45 177.74"/>
              <polygon class="cls-1" points="276.49 177.74 262.75 153.74 249.12 177.74 207.99 177.74 239.04 124.91 207.84 72.76 252.28 72.76 264.39 97.29 276.55 72.76 319.62 72.76 286.89 125.04 319.42 177.74 276.49 177.74"/>
              <rect class="cls-1" x="324.92" y="72.76" width="37.91" height="104.99"/>
              <polygon class="cls-1" points="397.5 177.74 397.5 104.87 372.49 104.87 372.49 72.76 460.43 72.76 460.43 104.87 435.41 104.87 435.41 177.74 397.5 177.74"/>
            </g>
            <g>
              <polygon class="cls-1" points="124.45 176.74 124.45 71.76 201.46 71.76 201.46 103.87 162.36 103.87 162.36 109.01 199.03 109.01 199.03 139.55 162.36 139.55 162.36 144.63 201.46 144.63 201.46 176.74 124.45 176.74"/>
              <polygon class="cls-1" points="275.49 176.74 261.75 152.74 248.12 176.74 206.99 176.74 238.04 123.91 206.84 71.76 251.28 71.76 263.39 96.29 275.55 71.76 318.62 71.76 285.89 124.04 318.42 176.74 275.49 176.74"/>
              <rect class="cls-1" x="323.92" y="71.76" width="37.91" height="104.99"/>
              <polygon class="cls-1" points="396.5 176.74 396.5 103.87 371.49 103.87 371.49 71.76 459.43 71.76 459.43 103.87 434.41 103.87 434.41 176.74 396.5 176.74"/>
            </g>
            <g>
              <polygon class="cls-1" points="123.45 175.74 123.45 70.76 200.46 70.76 200.46 102.87 161.36 102.87 161.36 108.01 198.03 108.01 198.03 138.55 161.36 138.55 161.36 143.63 200.46 143.63 200.46 175.74 123.45 175.74"/>
              <polygon class="cls-1" points="274.49 175.74 260.75 151.74 247.12 175.74 205.99 175.74 237.04 122.91 205.84 70.76 250.28 70.76 262.39 95.29 274.55 70.76 317.62 70.76 284.89 123.04 317.42 175.74 274.49 175.74"/>
              <rect class="cls-1" x="322.92" y="70.76" width="37.91" height="104.99"/>
              <polygon class="cls-1" points="395.5 175.74 395.5 102.87 370.49 102.87 370.49 70.76 458.43 70.76 458.43 102.87 433.41 102.87 433.41 175.74 395.5 175.74"/>
            </g>
            <g>
              <polygon class="cls-1" points="122.45 174.74 122.45 69.76 199.46 69.76 199.46 101.87 160.36 101.87 160.36 107.01 197.03 107.01 197.03 137.55 160.36 137.55 160.36 142.63 199.46 142.63 199.46 174.74 122.45 174.74"/>
              <polygon class="cls-1" points="273.49 174.74 259.75 150.74 246.12 174.74 204.99 174.74 236.04 121.91 204.84 69.76 249.28 69.76 261.39 94.29 273.55 69.76 316.62 69.76 283.89 122.04 316.42 174.74 273.49 174.74"/>
              <rect class="cls-1" x="321.92" y="69.76" width="37.91" height="104.99"/>
              <polygon class="cls-1" points="394.5 174.74 394.5 101.87 369.49 101.87 369.49 69.76 457.43 69.76 457.43 101.87 432.41 101.87 432.41 174.74 394.5 174.74"/>
            </g>
            <g>
              <polygon class="cls-1" points="121.45 173.74 121.45 68.76 198.46 68.76 198.46 100.87 159.36 100.87 159.36 106.01 196.03 106.01 196.03 136.55 159.36 136.55 159.36 141.63 198.46 141.63 198.46 173.74 121.45 173.74"/>
              <polygon class="cls-1" points="272.49 173.74 258.75 149.74 245.12 173.74 203.99 173.74 235.04 120.91 203.84 68.76 248.28 68.76 260.39 93.29 272.55 68.76 315.62 68.76 282.89 121.04 315.42 173.74 272.49 173.74"/>
              <rect class="cls-1" x="320.92" y="68.76" width="37.91" height="104.99"/>
              <polygon class="cls-1" points="393.5 173.74 393.5 100.87 368.49 100.87 368.49 68.76 456.43 68.76 456.43 100.87 431.41 100.87 431.41 173.74 393.5 173.74"/>
            </g>
            <g>
              <polygon class="cls-1" points="120.45 172.74 120.45 67.76 197.46 67.76 197.46 99.87 158.36 99.87 158.36 105.01 195.03 105.01 195.03 135.55 158.36 135.55 158.36 140.63 197.46 140.63 197.46 172.74 120.45 172.74"/>
              <polygon class="cls-1" points="271.49 172.74 257.75 148.74 244.12 172.74 202.99 172.74 234.04 119.91 202.84 67.76 247.28 67.76 259.39 92.29 271.55 67.76 314.62 67.76 281.89 120.04 314.42 172.74 271.49 172.74"/>
              <rect class="cls-1" x="319.92" y="67.76" width="37.91" height="104.99"/>
              <polygon class="cls-1" points="392.5 172.74 392.5 99.87 367.49 99.87 367.49 67.76 455.43 67.76 455.43 99.87 430.41 99.87 430.41 172.74 392.5 172.74"/>
            </g>
            <g>
              <polygon class="cls-1" points="119.45 171.74 119.45 66.76 196.46 66.76 196.46 98.87 157.36 98.87 157.36 104.01 194.03 104.01 194.03 134.55 157.36 134.55 157.36 139.63 196.46 139.63 196.46 171.74 119.45 171.74"/>
              <polygon class="cls-1" points="270.49 171.74 256.75 147.74 243.12 171.74 201.99 171.74 233.04 118.91 201.84 66.76 246.28 66.76 258.39 91.29 270.55 66.76 313.62 66.76 280.89 119.04 313.42 171.74 270.49 171.74"/>
              <rect class="cls-1" x="318.92" y="66.76" width="37.91" height="104.99"/>
              <polygon class="cls-1" points="391.5 171.74 391.5 98.87 366.49 98.87 366.49 66.76 454.43 66.76 454.43 98.87 429.41 98.87 429.41 171.74 391.5 171.74"/>
            </g>
            <g>
              <polygon class="cls-1" points="118.45 170.74 118.45 65.76 195.46 65.76 195.46 97.87 156.36 97.87 156.36 103.01 193.03 103.01 193.03 133.55 156.36 133.55 156.36 138.63 195.46 138.63 195.46 170.74 118.45 170.74"/>
              <polygon class="cls-1" points="269.49 170.74 255.75 146.74 242.12 170.74 200.99 170.74 232.04 117.91 200.84 65.76 245.28 65.76 257.39 90.29 269.55 65.76 312.62 65.76 279.89 118.04 312.42 170.74 269.49 170.74"/>
              <rect class="cls-1" x="317.92" y="65.76" width="37.91" height="104.99"/>
              <polygon class="cls-1" points="390.5 170.74 390.5 97.87 365.49 97.87 365.49 65.76 453.43 65.76 453.43 97.87 428.41 97.87 428.41 170.74 390.5 170.74"/>
            </g>
            <g>
              <polygon class="cls-1" points="117.45 169.74 117.45 64.76 194.46 64.76 194.46 96.87 155.36 96.87 155.36 102.01 192.03 102.01 192.03 132.55 155.36 132.55 155.36 137.63 194.46 137.63 194.46 169.74 117.45 169.74"/>
              <polygon class="cls-1" points="268.49 169.74 254.75 145.74 241.12 169.74 199.99 169.74 231.04 116.91 199.84 64.76 244.28 64.76 256.39 89.29 268.55 64.76 311.62 64.76 278.89 117.04 311.42 169.74 268.49 169.74"/>
              <rect class="cls-1" x="316.92" y="64.76" width="37.91" height="104.99"/>
              <polygon class="cls-1" points="389.5 169.74 389.5 96.87 364.49 96.87 364.49 64.76 452.43 64.76 452.43 96.87 427.41 96.87 427.41 169.74 389.5 169.74"/>
            </g>
            <g>
              <polygon class="cls-1" points="116.45 168.74 116.45 63.76 193.46 63.76 193.46 95.87 154.36 95.87 154.36 101.01 191.03 101.01 191.03 131.55 154.36 131.55 154.36 136.63 193.46 136.63 193.46 168.74 116.45 168.74"/>
              <polygon class="cls-1" points="267.49 168.74 253.75 144.74 240.12 168.74 198.99 168.74 230.04 115.91 198.84 63.76 243.28 63.76 255.39 88.29 267.55 63.76 310.62 63.76 277.89 116.04 310.42 168.74 267.49 168.74"/>
              <rect class="cls-1" x="315.92" y="63.76" width="37.91" height="104.99"/>
              <polygon class="cls-1" points="388.5 168.74 388.5 95.87 363.49 95.87 363.49 63.76 451.43 63.76 451.43 95.87 426.41 95.87 426.41 168.74 388.5 168.74"/>
            </g>
            <g>
              <polygon class="cls-1" points="115.45 167.74 115.45 62.76 192.46 62.76 192.46 94.87 153.36 94.87 153.36 100.01 190.03 100.01 190.03 130.55 153.36 130.55 153.36 135.63 192.46 135.63 192.46 167.74 115.45 167.74"/>
              <polygon class="cls-1" points="266.49 167.74 252.75 143.74 239.12 167.74 197.99 167.74 229.04 114.91 197.84 62.76 242.28 62.76 254.39 87.29 266.55 62.76 309.62 62.76 276.89 115.04 309.42 167.74 266.49 167.74"/>
              <rect class="cls-1" x="314.92" y="62.76" width="37.91" height="104.99"/>
              <polygon class="cls-1" points="387.5 167.74 387.5 94.87 362.49 94.87 362.49 62.76 450.43 62.76 450.43 94.87 425.41 94.87 425.41 167.74 387.5 167.74"/>
            </g>
            <g>
              <polygon class="cls-1" points="114.45 166.74 114.45 61.76 191.46 61.76 191.46 93.87 152.36 93.87 152.36 99.01 189.03 99.01 189.03 129.55 152.36 129.55 152.36 134.63 191.46 134.63 191.46 166.74 114.45 166.74"/>
              <polygon class="cls-1" points="265.49 166.74 251.75 142.74 238.12 166.74 196.99 166.74 228.04 113.91 196.84 61.76 241.28 61.76 253.39 86.29 265.55 61.76 308.62 61.76 275.89 114.04 308.42 166.74 265.49 166.74"/>
              <rect class="cls-1" x="313.92" y="61.76" width="37.91" height="104.99"/>
              <polygon class="cls-1" points="386.5 166.74 386.5 93.87 361.49 93.87 361.49 61.76 449.43 61.76 449.43 93.87 424.41 93.87 424.41 166.74 386.5 166.74"/>
            </g>
            <g>
              <polygon class="cls-1" points="113.45 165.74 113.45 60.76 190.46 60.76 190.46 92.87 151.36 92.87 151.36 98.01 188.03 98.01 188.03 128.55 151.36 128.55 151.36 133.63 190.46 133.63 190.46 165.74 113.45 165.74"/>
              <polygon class="cls-1" points="264.49 165.74 250.75 141.74 237.12 165.74 195.99 165.74 227.04 112.91 195.84 60.76 240.28 60.76 252.39 85.29 264.55 60.76 307.62 60.76 274.89 113.04 307.42 165.74 264.49 165.74"/>
              <rect class="cls-1" x="312.92" y="60.76" width="37.91" height="104.99"/>
              <polygon class="cls-1" points="385.5 165.74 385.5 92.87 360.49 92.87 360.49 60.76 448.43 60.76 448.43 92.87 423.41 92.87 423.41 165.74 385.5 165.74"/>
            </g>
            <g>
              <polygon class="cls-1" points="112.45 164.74 112.45 59.76 189.46 59.76 189.46 91.87 150.36 91.87 150.36 97.01 187.03 97.01 187.03 127.55 150.36 127.55 150.36 132.63 189.46 132.63 189.46 164.74 112.45 164.74"/>
              <polygon class="cls-1" points="263.49 164.74 249.75 140.74 236.12 164.74 194.99 164.74 226.04 111.91 194.84 59.76 239.28 59.76 251.39 84.29 263.55 59.76 306.62 59.76 273.89 112.04 306.42 164.74 263.49 164.74"/>
              <rect class="cls-1" x="311.92" y="59.76" width="37.91" height="104.99"/>
              <polygon class="cls-1" points="384.5 164.74 384.5 91.87 359.49 91.87 359.49 59.76 447.43 59.76 447.43 91.87 422.41 91.87 422.41 164.74 384.5 164.74"/>
            </g>
            <g>
              <polygon class="cls-1" points="111.45 163.74 111.45 58.76 188.46 58.76 188.46 90.87 149.36 90.87 149.36 96.01 186.03 96.01 186.03 126.55 149.36 126.55 149.36 131.63 188.46 131.63 188.46 163.74 111.45 163.74"/>
              <polygon class="cls-1" points="262.49 163.74 248.75 139.74 235.12 163.74 193.99 163.74 225.04 110.91 193.84 58.76 238.28 58.76 250.39 83.29 262.55 58.76 305.62 58.76 272.89 111.04 305.42 163.74 262.49 163.74"/>
              <rect class="cls-1" x="310.92" y="58.76" width="37.91" height="104.99"/>
              <polygon class="cls-1" points="383.5 163.74 383.5 90.87 358.49 90.87 358.49 58.76 446.43 58.76 446.43 90.87 421.41 90.87 421.41 163.74 383.5 163.74"/>
            </g>
            <g>
              <polygon class="cls-1" points="110.45 162.74 110.45 57.76 187.46 57.76 187.46 89.87 148.36 89.87 148.36 95.01 185.03 95.01 185.03 125.55 148.36 125.55 148.36 130.63 187.46 130.63 187.46 162.74 110.45 162.74"/>
              <polygon class="cls-1" points="261.49 162.74 247.75 138.74 234.12 162.74 192.99 162.74 224.04 109.91 192.84 57.76 237.28 57.76 249.39 82.29 261.55 57.76 304.62 57.76 271.89 110.04 304.42 162.74 261.49 162.74"/>
              <rect class="cls-1" x="309.92" y="57.76" width="37.91" height="104.99"/>
              <polygon class="cls-1" points="382.5 162.74 382.5 89.87 357.49 89.87 357.49 57.76 445.43 57.76 445.43 89.87 420.41 89.87 420.41 162.74 382.5 162.74"/>
            </g>
            <g>
              <polygon class="cls-1" points="109.45 161.74 109.45 56.76 186.46 56.76 186.46 88.87 147.36 88.87 147.36 94.01 184.03 94.01 184.03 124.55 147.36 124.55 147.36 129.63 186.46 129.63 186.46 161.74 109.45 161.74"/>
              <polygon class="cls-1" points="260.49 161.74 246.75 137.74 233.12 161.74 191.99 161.74 223.04 108.91 191.84 56.76 236.28 56.76 248.39 81.29 260.55 56.76 303.62 56.76 270.89 109.04 303.42 161.74 260.49 161.74"/>
              <rect class="cls-1" x="308.92" y="56.76" width="37.91" height="104.99"/>
              <polygon class="cls-1" points="381.5 161.74 381.5 88.87 356.49 88.87 356.49 56.76 444.43 56.76 444.43 88.87 419.41 88.87 419.41 161.74 381.5 161.74"/>
            </g>
            <g>
              <polygon class="cls-1" points="108.45 160.74 108.45 55.76 185.46 55.76 185.46 87.87 146.36 87.87 146.36 93.01 183.03 93.01 183.03 123.55 146.36 123.55 146.36 128.63 185.46 128.63 185.46 160.74 108.45 160.74"/>
              <polygon class="cls-1" points="259.49 160.74 245.75 136.74 232.12 160.74 190.99 160.74 222.04 107.91 190.84 55.76 235.28 55.76 247.39 80.29 259.55 55.76 302.62 55.76 269.89 108.04 302.42 160.74 259.49 160.74"/>
              <rect class="cls-1" x="307.92" y="55.76" width="37.91" height="104.99"/>
              <polygon class="cls-1" points="380.5 160.74 380.5 87.87 355.49 87.87 355.49 55.76 443.43 55.76 443.43 87.87 418.41 87.87 418.41 160.74 380.5 160.74"/>
            </g>
          </g>
          <text class="cls-5" transform="translate(106.87 155.74)"><tspan x="0" y="0">EXIT</tspan></text>
        </g>
      </g>
    </g>
  </g>
</svg>