<?xml version="1.0" encoding="UTF-8"?>
<svg id="Layer_2" data-name="Layer 2" xmlns="http://www.w3.org/2000/svg" xmlns:xlink="http://www.w3.org/1999/xlink" viewBox="0 0 633.62 243.65">
  <defs>
    <style>
      .cls-1 {
        fill: #564d3b;
      }

      .cls-2 {
        fill: #a6e5f3;
      }

      .cls-2, .cls-3 {
        font-family: SFProDisplay-Black, 'SF Pro Display';
        font-size: 134.81px;
        font-weight: 800;
        letter-spacing: .08em;
      }

      .cls-4 {
        opacity: .24;
      }

      .cls-5 {
        fill: #394b79;
      }

      .cls-6 {
        clip-path: url(#clippath);
      }

      .cls-7 {
        fill: none;
      }

      .cls-8 {
        fill: #e0d6c0;
        stroke: #333;
        stroke-miterlimit: 10;
        stroke-width: 4px;
      }
    </style>
    <clipPath id="clippath">
      <rect class="cls-7" x="2" y="2" width="629.62" height="230.82" rx="46.2" ry="46.2"/>
    </clipPath>
  </defs>
  <g id="Layer_24" data-name="Layer 24">
    <g id="Guide">
      <g>
        <rect class="cls-8" x="2" y="2" width="629.62" height="230.82" rx="46.2" ry="46.2"/>
        <g class="cls-4">
          <g class="cls-6">
            <rect class="cls-1" x="314.21" y="-345.74" width="227.63" height="1280.83" transform="translate(76.99 677.84) rotate(-82.05)"/>
          </g>
        </g>
      </g>
      <g>
        <text class="cls-3" transform="translate(54.4 156.49)"><tspan x="0" y="0">GUIDE</tspan></text>
        <g>
          <g>
            <path class="cls-5" d="m156.67,213.21c-33.18,0-52.99-20.3-52.99-54.3,0-16.58,4.85-30.3,14.02-39.75,9.13-9.39,22.31-14.36,38.11-14.36,25.98,0,46.43,15.73,48.62,37.41l.6,6.04h.61v17.84c0,29.07-18.77,47.13-48.97,47.13Zm-.72-75.63c-11.43,0-13.83,11.38-13.83,20.94,0,6.64,1.48,21.92,15.21,21.92,2.68,0,6.68-.47,9.18-2.97h-14.31v-29.22h16.12l-1.23-4.1c-1.26-4.17-5.32-6.57-11.14-6.57Z"/>
            <path class="cls-5" d="m263.61,213.21c-27.99,0-46.8-16.29-46.8-40.55v-66.15h37.91v63.39c0,9.34,4.79,10.54,8.96,10.54s8.96-1.2,8.96-10.54v-63.39h37.91v66.15c0,24.25-18.86,40.55-46.93,40.55Z"/>
            <rect class="cls-5" x="323.82" y="106.51" width="37.91" height="104.99"/>
            <path class="cls-5" d="m375,211.49v-104.99h45.61c15.81,0,28.33,4.52,37.21,13.43,8.99,9.03,13.54,21.89,13.54,38.24v.13c0,16.21-4.66,29.68-13.46,38.94-8.86,9.32-21.75,14.24-37.29,14.24h-45.61Zm41.67-32.18c7.57,0,16.26-2.39,16.26-21v-.13c0-12.93-5.47-19.49-16.26-19.49h-3.76v40.62h3.76Z"/>
            <polygon class="cls-5" points="482.34 211.49 482.34 106.51 559.35 106.51 559.35 138.62 520.25 138.62 520.25 143.77 556.92 143.77 556.92 174.3 520.25 174.3 520.25 179.38 559.35 179.38 559.35 211.49 482.34 211.49"/>
          </g>
          <g>
            <path class="cls-5" d="m155.67,212.21c-33.18,0-52.99-20.3-52.99-54.3,0-16.58,4.85-30.3,14.02-39.75,9.13-9.39,22.31-14.36,38.11-14.36,25.98,0,46.43,15.73,48.62,37.41l.6,6.04h.61v17.84c0,29.07-18.77,47.13-48.97,47.13Zm-.72-75.63c-11.43,0-13.83,11.38-13.83,20.94,0,6.64,1.48,21.92,15.21,21.92,2.68,0,6.68-.47,9.18-2.97h-14.31v-29.22h16.12l-1.23-4.1c-1.26-4.17-5.32-6.57-11.14-6.57Z"/>
            <path class="cls-5" d="m262.61,212.21c-27.99,0-46.8-16.29-46.8-40.55v-66.15h37.91v63.39c0,9.34,4.79,10.54,8.96,10.54s8.96-1.2,8.96-10.54v-63.39h37.91v66.15c0,24.25-18.86,40.55-46.93,40.55Z"/>
            <rect class="cls-5" x="322.82" y="105.51" width="37.91" height="104.99"/>
            <path class="cls-5" d="m374,210.49v-104.99h45.61c15.81,0,28.33,4.52,37.21,13.43,8.99,9.03,13.54,21.89,13.54,38.24v.13c0,16.21-4.66,29.68-13.46,38.94-8.86,9.32-21.75,14.24-37.29,14.24h-45.61Zm41.67-32.18c7.57,0,16.26-2.39,16.26-21v-.13c0-12.93-5.47-19.49-16.26-19.49h-3.76v40.62h3.76Z"/>
            <polygon class="cls-5" points="481.34 210.49 481.34 105.51 558.35 105.51 558.35 137.62 519.25 137.62 519.25 142.77 555.92 142.77 555.92 173.3 519.25 173.3 519.25 178.38 558.35 178.38 558.35 210.49 481.34 210.49"/>
          </g>
          <g>
            <path class="cls-5" d="m154.67,211.21c-33.18,0-52.99-20.3-52.99-54.3,0-16.58,4.85-30.3,14.02-39.75,9.13-9.39,22.31-14.36,38.11-14.36,25.98,0,46.43,15.73,48.62,37.41l.6,6.04h.61v17.84c0,29.07-18.77,47.13-48.97,47.13Zm-.72-75.63c-11.43,0-13.83,11.38-13.83,20.94,0,6.64,1.48,21.92,15.21,21.92,2.68,0,6.68-.47,9.18-2.97h-14.31v-29.22h16.12l-1.23-4.1c-1.26-4.17-5.32-6.57-11.14-6.57Z"/>
            <path class="cls-5" d="m261.61,211.21c-27.99,0-46.8-16.29-46.8-40.55v-66.15h37.91v63.39c0,9.34,4.79,10.54,8.96,10.54s8.96-1.2,8.96-10.54v-63.39h37.91v66.15c0,24.25-18.86,40.55-46.93,40.55Z"/>
            <rect class="cls-5" x="321.82" y="104.51" width="37.91" height="104.99"/>
            <path class="cls-5" d="m373,209.49v-104.99h45.61c15.81,0,28.33,4.52,37.21,13.43,8.99,9.03,13.54,21.89,13.54,38.24v.13c0,16.21-4.66,29.68-13.46,38.94-8.86,9.32-21.75,14.24-37.29,14.24h-45.61Zm41.67-32.18c7.57,0,16.26-2.39,16.26-21v-.13c0-12.93-5.47-19.49-16.26-19.49h-3.76v40.62h3.76Z"/>
            <polygon class="cls-5" points="480.34 209.49 480.34 104.51 557.35 104.51 557.35 136.62 518.25 136.62 518.25 141.77 554.92 141.77 554.92 172.3 518.25 172.3 518.25 177.38 557.35 177.38 557.35 209.49 480.34 209.49"/>
          </g>
          <g>
            <path class="cls-5" d="m153.67,210.21c-33.18,0-52.99-20.3-52.99-54.3,0-16.58,4.85-30.3,14.02-39.75,9.13-9.39,22.31-14.36,38.11-14.36,25.98,0,46.43,15.73,48.62,37.41l.6,6.04h.61v17.84c0,29.07-18.77,47.13-48.97,47.13Zm-.72-75.63c-11.43,0-13.83,11.38-13.83,20.94,0,6.64,1.48,21.92,15.21,21.92,2.68,0,6.68-.47,9.18-2.97h-14.31v-29.22h16.12l-1.23-4.1c-1.26-4.17-5.32-6.57-11.14-6.57Z"/>
            <path class="cls-5" d="m260.61,210.21c-27.99,0-46.8-16.29-46.8-40.55v-66.15h37.91v63.39c0,9.34,4.79,10.54,8.96,10.54s8.96-1.2,8.96-10.54v-63.39h37.91v66.15c0,24.25-18.86,40.55-46.93,40.55Z"/>
            <rect class="cls-5" x="320.82" y="103.51" width="37.91" height="104.99"/>
            <path class="cls-5" d="m372,208.49v-104.99h45.61c15.81,0,28.33,4.52,37.21,13.43,8.99,9.03,13.54,21.89,13.54,38.24v.13c0,16.21-4.66,29.68-13.46,38.94-8.86,9.32-21.75,14.24-37.29,14.24h-45.61Zm41.67-32.18c7.57,0,16.26-2.39,16.26-21v-.13c0-12.93-5.47-19.49-16.26-19.49h-3.76v40.62h3.76Z"/>
            <polygon class="cls-5" points="479.34 208.49 479.34 103.51 556.35 103.51 556.35 135.62 517.25 135.62 517.25 140.77 553.92 140.77 553.92 171.3 517.25 171.3 517.25 176.38 556.35 176.38 556.35 208.49 479.34 208.49"/>
          </g>
          <g>
            <path class="cls-5" d="m152.67,209.21c-33.18,0-52.99-20.3-52.99-54.3,0-16.58,4.85-30.3,14.02-39.75,9.13-9.39,22.31-14.36,38.11-14.36,25.98,0,46.43,15.73,48.62,37.41l.6,6.04h.61v17.84c0,29.07-18.77,47.13-48.97,47.13Zm-.72-75.63c-11.43,0-13.83,11.38-13.83,20.94,0,6.64,1.48,21.92,15.21,21.92,2.68,0,6.68-.47,9.18-2.97h-14.31v-29.22h16.12l-1.23-4.1c-1.26-4.17-5.32-6.57-11.14-6.57Z"/>
            <path class="cls-5" d="m259.61,209.21c-27.99,0-46.8-16.29-46.8-40.55v-66.15h37.91v63.39c0,9.34,4.79,10.54,8.96,10.54s8.96-1.2,8.96-10.54v-63.39h37.91v66.15c0,24.25-18.86,40.55-46.93,40.55Z"/>
            <rect class="cls-5" x="319.82" y="102.51" width="37.91" height="104.99"/>
            <path class="cls-5" d="m371,207.49v-104.99h45.61c15.81,0,28.33,4.52,37.21,13.43,8.99,9.03,13.54,21.89,13.54,38.24v.13c0,16.21-4.66,29.68-13.46,38.94-8.86,9.32-21.75,14.24-37.29,14.24h-45.61Zm41.67-32.18c7.57,0,16.26-2.39,16.26-21v-.13c0-12.93-5.47-19.49-16.26-19.49h-3.76v40.62h3.76Z"/>
            <polygon class="cls-5" points="478.34 207.49 478.34 102.51 555.35 102.51 555.35 134.62 516.25 134.62 516.25 139.77 552.92 139.77 552.92 170.3 516.25 170.3 516.25 175.38 555.35 175.38 555.35 207.49 478.34 207.49"/>
          </g>
          <g>
            <path class="cls-5" d="m151.67,208.21c-33.18,0-52.99-20.3-52.99-54.3,0-16.58,4.85-30.3,14.02-39.75,9.13-9.39,22.31-14.36,38.11-14.36,25.98,0,46.43,15.73,48.62,37.41l.6,6.04h.61v17.84c0,29.07-18.77,47.13-48.97,47.13Zm-.72-75.63c-11.43,0-13.83,11.38-13.83,20.94,0,6.64,1.48,21.92,15.21,21.92,2.68,0,6.68-.47,9.18-2.97h-14.31v-29.22h16.12l-1.23-4.1c-1.26-4.17-5.32-6.57-11.14-6.57Z"/>
            <path class="cls-5" d="m258.61,208.21c-27.99,0-46.8-16.29-46.8-40.55v-66.15h37.91v63.39c0,9.34,4.79,10.54,8.96,10.54s8.96-1.2,8.96-10.54v-63.39h37.91v66.15c0,24.25-18.86,40.55-46.93,40.55Z"/>
            <rect class="cls-5" x="318.82" y="101.51" width="37.91" height="104.99"/>
            <path class="cls-5" d="m370,206.49v-104.99h45.61c15.81,0,28.33,4.52,37.21,13.43,8.99,9.03,13.54,21.89,13.54,38.24v.13c0,16.21-4.66,29.68-13.46,38.94-8.86,9.32-21.75,14.24-37.29,14.24h-45.61Zm41.67-32.18c7.57,0,16.26-2.39,16.26-21v-.13c0-12.93-5.47-19.49-16.26-19.49h-3.76v40.62h3.76Z"/>
            <polygon class="cls-5" points="477.34 206.49 477.34 101.51 554.35 101.51 554.35 133.62 515.25 133.62 515.25 138.77 551.92 138.77 551.92 169.3 515.25 169.3 515.25 174.38 554.35 174.38 554.35 206.49 477.34 206.49"/>
          </g>
          <g>
            <path class="cls-5" d="m150.67,207.21c-33.18,0-52.99-20.3-52.99-54.3,0-16.58,4.85-30.3,14.02-39.75,9.13-9.39,22.31-14.36,38.11-14.36,25.98,0,46.43,15.73,48.62,37.41l.6,6.04h.61v17.84c0,29.07-18.77,47.13-48.97,47.13Zm-.72-75.63c-11.43,0-13.83,11.38-13.83,20.94,0,6.64,1.48,21.92,15.21,21.92,2.68,0,6.68-.47,9.18-2.97h-14.31v-29.22h16.12l-1.23-4.1c-1.26-4.17-5.32-6.57-11.14-6.57Z"/>
            <path class="cls-5" d="m257.61,207.21c-27.99,0-46.8-16.29-46.8-40.55v-66.15h37.91v63.39c0,9.34,4.79,10.54,8.96,10.54s8.96-1.2,8.96-10.54v-63.39h37.91v66.15c0,24.25-18.86,40.55-46.93,40.55Z"/>
            <rect class="cls-5" x="317.82" y="100.51" width="37.91" height="104.99"/>
            <path class="cls-5" d="m369,205.49v-104.99h45.61c15.81,0,28.33,4.52,37.21,13.43,8.99,9.03,13.54,21.89,13.54,38.24v.13c0,16.21-4.66,29.68-13.46,38.94-8.86,9.32-21.75,14.24-37.29,14.24h-45.61Zm41.67-32.18c7.57,0,16.26-2.39,16.26-21v-.13c0-12.93-5.47-19.49-16.26-19.49h-3.76v40.62h3.76Z"/>
            <polygon class="cls-5" points="476.34 205.49 476.34 100.51 553.35 100.51 553.35 132.62 514.25 132.62 514.25 137.77 550.92 137.77 550.92 168.3 514.25 168.3 514.25 173.38 553.35 173.38 553.35 205.49 476.34 205.49"/>
          </g>
          <g>
            <path class="cls-5" d="m149.67,206.21c-33.18,0-52.99-20.3-52.99-54.3,0-16.58,4.85-30.3,14.02-39.75,9.13-9.39,22.31-14.36,38.11-14.36,25.98,0,46.43,15.73,48.62,37.41l.6,6.04h.61v17.84c0,29.07-18.77,47.13-48.97,47.13Zm-.72-75.63c-11.43,0-13.83,11.38-13.83,20.94,0,6.64,1.48,21.92,15.21,21.92,2.68,0,6.68-.47,9.18-2.97h-14.31v-29.22h16.12l-1.23-4.1c-1.26-4.17-5.32-6.57-11.14-6.57Z"/>
            <path class="cls-5" d="m256.61,206.21c-27.99,0-46.8-16.29-46.8-40.55v-66.15h37.91v63.39c0,9.34,4.79,10.54,8.96,10.54s8.96-1.2,8.96-10.54v-63.39h37.91v66.15c0,24.25-18.86,40.55-46.93,40.55Z"/>
            <rect class="cls-5" x="316.82" y="99.51" width="37.91" height="104.99"/>
            <path class="cls-5" d="m368,204.49v-104.99h45.61c15.81,0,28.33,4.52,37.21,13.43,8.99,9.03,13.54,21.89,13.54,38.24v.13c0,16.21-4.66,29.68-13.46,38.94-8.86,9.32-21.75,14.24-37.29,14.24h-45.61Zm41.67-32.18c7.57,0,16.26-2.39,16.26-21v-.13c0-12.93-5.47-19.49-16.26-19.49h-3.76v40.62h3.76Z"/>
            <polygon class="cls-5" points="475.34 204.49 475.34 99.51 552.35 99.51 552.35 131.62 513.25 131.62 513.25 136.77 549.92 136.77 549.92 167.3 513.25 167.3 513.25 172.38 552.35 172.38 552.35 204.49 475.34 204.49"/>
          </g>
          <g>
            <path class="cls-5" d="m148.67,205.21c-33.18,0-52.99-20.3-52.99-54.3,0-16.58,4.85-30.3,14.02-39.75,9.13-9.39,22.31-14.36,38.11-14.36,25.98,0,46.43,15.73,48.62,37.41l.6,6.04h.61v17.84c0,29.07-18.77,47.13-48.97,47.13Zm-.72-75.63c-11.43,0-13.83,11.38-13.83,20.94,0,6.64,1.48,21.92,15.21,21.92,2.68,0,6.68-.47,9.18-2.97h-14.31v-29.22h16.12l-1.23-4.1c-1.26-4.17-5.32-6.57-11.14-6.57Z"/>
            <path class="cls-5" d="m255.61,205.21c-27.99,0-46.8-16.29-46.8-40.55v-66.15h37.91v63.39c0,9.34,4.79,10.54,8.96,10.54s8.96-1.2,8.96-10.54v-63.39h37.91v66.15c0,24.25-18.86,40.55-46.93,40.55Z"/>
            <rect class="cls-5" x="315.82" y="98.51" width="37.91" height="104.99"/>
            <path class="cls-5" d="m367,203.49v-104.99h45.61c15.81,0,28.33,4.52,37.21,13.43,8.99,9.03,13.54,21.89,13.54,38.24v.13c0,16.21-4.66,29.68-13.46,38.94-8.86,9.32-21.75,14.24-37.29,14.24h-45.61Zm41.67-32.18c7.57,0,16.26-2.39,16.26-21v-.13c0-12.93-5.47-19.49-16.26-19.49h-3.76v40.62h3.76Z"/>
            <polygon class="cls-5" points="474.34 203.49 474.34 98.51 551.35 98.51 551.35 130.62 512.25 130.62 512.25 135.77 548.92 135.77 548.92 166.3 512.25 166.3 512.25 171.38 551.35 171.38 551.35 203.49 474.34 203.49"/>
          </g>
          <g>
            <path class="cls-5" d="m147.67,204.21c-33.18,0-52.99-20.3-52.99-54.3,0-16.58,4.85-30.3,14.02-39.75,9.13-9.39,22.31-14.36,38.11-14.36,25.98,0,46.43,15.73,48.62,37.41l.6,6.04h.61v17.84c0,29.07-18.77,47.13-48.97,47.13Zm-.72-75.63c-11.43,0-13.83,11.38-13.83,20.94,0,6.64,1.48,21.92,15.21,21.92,2.68,0,6.68-.47,9.18-2.97h-14.31v-29.22h16.12l-1.23-4.1c-1.26-4.17-5.32-6.57-11.14-6.57Z"/>
            <path class="cls-5" d="m254.61,204.21c-27.99,0-46.8-16.29-46.8-40.55v-66.15h37.91v63.39c0,9.34,4.79,10.54,8.96,10.54s8.96-1.2,8.96-10.54v-63.39h37.91v66.15c0,24.25-18.86,40.55-46.93,40.55Z"/>
            <rect class="cls-5" x="314.82" y="97.51" width="37.91" height="104.99"/>
            <path class="cls-5" d="m366,202.49v-104.99h45.61c15.81,0,28.33,4.52,37.21,13.43,8.99,9.03,13.54,21.89,13.54,38.24v.13c0,16.21-4.66,29.68-13.46,38.94-8.86,9.32-21.75,14.24-37.29,14.24h-45.61Zm41.67-32.18c7.57,0,16.26-2.39,16.26-21v-.13c0-12.93-5.47-19.49-16.26-19.49h-3.76v40.62h3.76Z"/>
            <polygon class="cls-5" points="473.34 202.49 473.34 97.51 550.35 97.51 550.35 129.62 511.25 129.62 511.25 134.77 547.92 134.77 547.92 165.3 511.25 165.3 511.25 170.38 550.35 170.38 550.35 202.49 473.34 202.49"/>
          </g>
          <g>
            <path class="cls-5" d="m146.67,203.21c-33.18,0-52.99-20.3-52.99-54.3,0-16.58,4.85-30.3,14.02-39.75,9.13-9.39,22.31-14.36,38.11-14.36,25.98,0,46.43,15.73,48.62,37.41l.6,6.04h.61v17.84c0,29.07-18.77,47.13-48.97,47.13Zm-.72-75.63c-11.43,0-13.83,11.38-13.83,20.94,0,6.64,1.48,21.92,15.21,21.92,2.68,0,6.68-.47,9.18-2.97h-14.31v-29.22h16.12l-1.23-4.1c-1.26-4.17-5.32-6.57-11.14-6.57Z"/>
            <path class="cls-5" d="m253.61,203.21c-27.99,0-46.8-16.29-46.8-40.55v-66.15h37.91v63.39c0,9.34,4.79,10.54,8.96,10.54s8.96-1.2,8.96-10.54v-63.39h37.91v66.15c0,24.25-18.86,40.55-46.93,40.55Z"/>
            <rect class="cls-5" x="313.82" y="96.51" width="37.91" height="104.99"/>
            <path class="cls-5" d="m365,201.49v-104.99h45.61c15.81,0,28.33,4.52,37.21,13.43,8.99,9.03,13.54,21.89,13.54,38.24v.13c0,16.21-4.66,29.68-13.46,38.94-8.86,9.32-21.75,14.24-37.29,14.24h-45.61Zm41.67-32.18c7.57,0,16.26-2.39,16.26-21v-.13c0-12.93-5.47-19.49-16.26-19.49h-3.76v40.62h3.76Z"/>
            <polygon class="cls-5" points="472.34 201.49 472.34 96.51 549.35 96.51 549.35 128.62 510.25 128.62 510.25 133.77 546.92 133.77 546.92 164.3 510.25 164.3 510.25 169.38 549.35 169.38 549.35 201.49 472.34 201.49"/>
          </g>
          <g>
            <path class="cls-5" d="m145.67,202.21c-33.18,0-52.99-20.3-52.99-54.3,0-16.58,4.85-30.3,14.02-39.75,9.13-9.39,22.31-14.36,38.11-14.36,25.98,0,46.43,15.73,48.62,37.41l.6,6.04h.61v17.84c0,29.07-18.77,47.13-48.97,47.13Zm-.72-75.63c-11.43,0-13.83,11.38-13.83,20.94,0,6.64,1.48,21.92,15.21,21.92,2.68,0,6.68-.47,9.18-2.97h-14.31v-29.22h16.12l-1.23-4.1c-1.26-4.17-5.32-6.57-11.14-6.57Z"/>
            <path class="cls-5" d="m252.61,202.21c-27.99,0-46.8-16.29-46.8-40.55v-66.15h37.91v63.39c0,9.34,4.79,10.54,8.96,10.54s8.96-1.2,8.96-10.54v-63.39h37.91v66.15c0,24.25-18.86,40.55-46.93,40.55Z"/>
            <rect class="cls-5" x="312.82" y="95.51" width="37.91" height="104.99"/>
            <path class="cls-5" d="m364,200.49v-104.99h45.61c15.81,0,28.33,4.52,37.21,13.43,8.99,9.03,13.54,21.89,13.54,38.24v.13c0,16.21-4.66,29.68-13.46,38.94-8.86,9.32-21.75,14.24-37.29,14.24h-45.61Zm41.67-32.18c7.57,0,16.26-2.39,16.26-21v-.13c0-12.93-5.47-19.49-16.26-19.49h-3.76v40.62h3.76Z"/>
            <polygon class="cls-5" points="471.34 200.49 471.34 95.51 548.35 95.51 548.35 127.62 509.25 127.62 509.25 132.77 545.92 132.77 545.92 163.3 509.25 163.3 509.25 168.38 548.35 168.38 548.35 200.49 471.34 200.49"/>
          </g>
          <g>
            <path class="cls-5" d="m144.67,201.21c-33.18,0-52.99-20.3-52.99-54.3,0-16.58,4.85-30.3,14.02-39.75,9.13-9.39,22.31-14.36,38.11-14.36,25.98,0,46.43,15.73,48.62,37.41l.6,6.04h.61v17.84c0,29.07-18.77,47.13-48.97,47.13Zm-.72-75.63c-11.43,0-13.83,11.38-13.83,20.94,0,6.64,1.48,21.92,15.21,21.92,2.68,0,6.68-.47,9.18-2.97h-14.31v-29.22h16.12l-1.23-4.1c-1.26-4.17-5.32-6.57-11.14-6.57Z"/>
            <path class="cls-5" d="m251.61,201.21c-27.99,0-46.8-16.29-46.8-40.55v-66.15h37.91v63.39c0,9.34,4.79,10.54,8.96,10.54s8.96-1.2,8.96-10.54v-63.39h37.91v66.15c0,24.25-18.86,40.55-46.93,40.55Z"/>
            <rect class="cls-5" x="311.82" y="94.51" width="37.91" height="104.99"/>
            <path class="cls-5" d="m363,199.49v-104.99h45.61c15.81,0,28.33,4.52,37.21,13.43,8.99,9.03,13.54,21.89,13.54,38.24v.13c0,16.21-4.66,29.68-13.46,38.94-8.86,9.32-21.75,14.24-37.29,14.24h-45.61Zm41.67-32.18c7.57,0,16.26-2.39,16.26-21v-.13c0-12.93-5.47-19.49-16.26-19.49h-3.76v40.62h3.76Z"/>
            <polygon class="cls-5" points="470.34 199.49 470.34 94.51 547.35 94.51 547.35 126.62 508.25 126.62 508.25 131.77 544.92 131.77 544.92 162.3 508.25 162.3 508.25 167.38 547.35 167.38 547.35 199.49 470.34 199.49"/>
          </g>
          <g>
            <path class="cls-5" d="m143.67,200.21c-33.18,0-52.99-20.3-52.99-54.3,0-16.58,4.85-30.3,14.02-39.75,9.13-9.39,22.31-14.36,38.11-14.36,25.98,0,46.43,15.73,48.62,37.41l.6,6.04h.61v17.84c0,29.07-18.77,47.13-48.97,47.13Zm-.72-75.63c-11.43,0-13.83,11.38-13.83,20.94,0,6.64,1.48,21.92,15.21,21.92,2.68,0,6.68-.47,9.18-2.97h-14.31v-29.22h16.12l-1.23-4.1c-1.26-4.17-5.32-6.57-11.14-6.57Z"/>
            <path class="cls-5" d="m250.61,200.21c-27.99,0-46.8-16.29-46.8-40.55v-66.15h37.91v63.39c0,9.34,4.79,10.54,8.96,10.54s8.96-1.2,8.96-10.54v-63.39h37.91v66.15c0,24.25-18.86,40.55-46.93,40.55Z"/>
            <rect class="cls-5" x="310.82" y="93.51" width="37.91" height="104.99"/>
            <path class="cls-5" d="m362,198.49v-104.99h45.61c15.81,0,28.33,4.52,37.21,13.43,8.99,9.03,13.54,21.89,13.54,38.24v.13c0,16.21-4.66,29.68-13.46,38.94-8.86,9.32-21.75,14.24-37.29,14.24h-45.61Zm41.67-32.18c7.57,0,16.26-2.39,16.26-21v-.13c0-12.93-5.47-19.49-16.26-19.49h-3.76v40.62h3.76Z"/>
            <polygon class="cls-5" points="469.34 198.49 469.34 93.51 546.35 93.51 546.35 125.62 507.25 125.62 507.25 130.77 543.92 130.77 543.92 161.3 507.25 161.3 507.25 166.38 546.35 166.38 546.35 198.49 469.34 198.49"/>
          </g>
          <g>
            <path class="cls-5" d="m142.67,199.21c-33.18,0-52.99-20.3-52.99-54.3,0-16.58,4.85-30.3,14.02-39.75,9.13-9.39,22.31-14.36,38.11-14.36,25.98,0,46.43,15.73,48.62,37.41l.6,6.04h.61v17.84c0,29.07-18.77,47.13-48.97,47.13Zm-.72-75.63c-11.43,0-13.83,11.38-13.83,20.94,0,6.64,1.48,21.92,15.21,21.92,2.68,0,6.68-.47,9.18-2.97h-14.31v-29.22h16.12l-1.23-4.1c-1.26-4.17-5.32-6.57-11.14-6.57Z"/>
            <path class="cls-5" d="m249.61,199.21c-27.99,0-46.8-16.29-46.8-40.55v-66.15h37.91v63.39c0,9.34,4.79,10.54,8.96,10.54s8.96-1.2,8.96-10.54v-63.39h37.91v66.15c0,24.25-18.86,40.55-46.93,40.55Z"/>
            <rect class="cls-5" x="309.82" y="92.51" width="37.91" height="104.99"/>
            <path class="cls-5" d="m361,197.49v-104.99h45.61c15.81,0,28.33,4.52,37.21,13.43,8.99,9.03,13.54,21.89,13.54,38.24v.13c0,16.21-4.66,29.68-13.46,38.94-8.86,9.32-21.75,14.24-37.29,14.24h-45.61Zm41.67-32.18c7.57,0,16.26-2.39,16.26-21v-.13c0-12.93-5.47-19.49-16.26-19.49h-3.76v40.62h3.76Z"/>
            <polygon class="cls-5" points="468.34 197.49 468.34 92.51 545.35 92.51 545.35 124.62 506.25 124.62 506.25 129.77 542.92 129.77 542.92 160.3 506.25 160.3 506.25 165.38 545.35 165.38 545.35 197.49 468.34 197.49"/>
          </g>
          <g>
            <path class="cls-5" d="m141.67,198.21c-33.18,0-52.99-20.3-52.99-54.3,0-16.58,4.85-30.3,14.02-39.75,9.13-9.39,22.31-14.36,38.11-14.36,25.98,0,46.43,15.73,48.62,37.41l.6,6.04h.61v17.84c0,29.07-18.77,47.13-48.97,47.13Zm-.72-75.63c-11.43,0-13.83,11.38-13.83,20.94,0,6.64,1.48,21.92,15.21,21.92,2.68,0,6.68-.47,9.18-2.97h-14.31v-29.22h16.12l-1.23-4.1c-1.26-4.17-5.32-6.57-11.14-6.57Z"/>
            <path class="cls-5" d="m248.61,198.21c-27.99,0-46.8-16.29-46.8-40.55v-66.15h37.91v63.39c0,9.34,4.79,10.54,8.96,10.54s8.96-1.2,8.96-10.54v-63.39h37.91v66.15c0,24.25-18.86,40.55-46.93,40.55Z"/>
            <rect class="cls-5" x="308.82" y="91.51" width="37.91" height="104.99"/>
            <path class="cls-5" d="m360,196.49v-104.99h45.61c15.81,0,28.33,4.52,37.21,13.43,8.99,9.03,13.54,21.89,13.54,38.24v.13c0,16.21-4.66,29.68-13.46,38.94-8.86,9.32-21.75,14.24-37.29,14.24h-45.61Zm41.67-32.18c7.57,0,16.26-2.39,16.26-21v-.13c0-12.93-5.47-19.49-16.26-19.49h-3.76v40.62h3.76Z"/>
            <polygon class="cls-5" points="467.34 196.49 467.34 91.51 544.35 91.51 544.35 123.62 505.25 123.62 505.25 128.77 541.92 128.77 541.92 159.3 505.25 159.3 505.25 164.38 544.35 164.38 544.35 196.49 467.34 196.49"/>
          </g>
          <g>
            <path class="cls-5" d="m140.67,197.21c-33.18,0-52.99-20.3-52.99-54.3,0-16.58,4.85-30.3,14.02-39.75,9.13-9.39,22.31-14.36,38.11-14.36,25.98,0,46.43,15.73,48.62,37.41l.6,6.04h.61v17.84c0,29.07-18.77,47.13-48.97,47.13Zm-.72-75.63c-11.43,0-13.83,11.38-13.83,20.94,0,6.64,1.48,21.92,15.21,21.92,2.68,0,6.68-.47,9.18-2.97h-14.31v-29.22h16.12l-1.23-4.1c-1.26-4.17-5.32-6.57-11.14-6.57Z"/>
            <path class="cls-5" d="m247.61,197.21c-27.99,0-46.8-16.29-46.8-40.55v-66.15h37.91v63.39c0,9.34,4.79,10.54,8.96,10.54s8.96-1.2,8.96-10.54v-63.39h37.91v66.15c0,24.25-18.86,40.55-46.93,40.55Z"/>
            <rect class="cls-5" x="307.82" y="90.51" width="37.91" height="104.99"/>
            <path class="cls-5" d="m359,195.49v-104.99h45.61c15.81,0,28.33,4.52,37.21,13.43,8.99,9.03,13.54,21.89,13.54,38.24v.13c0,16.21-4.66,29.68-13.46,38.94-8.86,9.32-21.75,14.24-37.29,14.24h-45.61Zm41.67-32.18c7.57,0,16.26-2.39,16.26-21v-.13c0-12.93-5.47-19.49-16.26-19.49h-3.76v40.62h3.76Z"/>
            <polygon class="cls-5" points="466.34 195.49 466.34 90.51 543.35 90.51 543.35 122.62 504.25 122.62 504.25 127.77 540.92 127.77 540.92 158.3 504.25 158.3 504.25 163.38 543.35 163.38 543.35 195.49 466.34 195.49"/>
          </g>
          <g>
            <path class="cls-5" d="m139.67,196.21c-33.18,0-52.99-20.3-52.99-54.3,0-16.58,4.85-30.3,14.02-39.75,9.13-9.39,22.31-14.36,38.11-14.36,25.98,0,46.43,15.73,48.62,37.41l.6,6.04h.61v17.84c0,29.07-18.77,47.13-48.97,47.13Zm-.72-75.63c-11.43,0-13.83,11.38-13.83,20.94,0,6.64,1.48,21.92,15.21,21.92,2.68,0,6.68-.47,9.18-2.97h-14.31v-29.22h16.12l-1.23-4.1c-1.26-4.17-5.32-6.57-11.14-6.57Z"/>
            <path class="cls-5" d="m246.61,196.21c-27.99,0-46.8-16.29-46.8-40.55v-66.15h37.91v63.39c0,9.34,4.79,10.54,8.96,10.54s8.96-1.2,8.96-10.54v-63.39h37.91v66.15c0,24.25-18.86,40.55-46.93,40.55Z"/>
            <rect class="cls-5" x="306.82" y="89.51" width="37.91" height="104.99"/>
            <path class="cls-5" d="m358,194.49v-104.99h45.61c15.81,0,28.33,4.52,37.21,13.43,8.99,9.03,13.54,21.89,13.54,38.24v.13c0,16.21-4.66,29.68-13.46,38.94-8.86,9.32-21.75,14.24-37.29,14.24h-45.61Zm41.67-32.18c7.57,0,16.26-2.39,16.26-21v-.13c0-12.93-5.47-19.49-16.26-19.49h-3.76v40.62h3.76Z"/>
            <polygon class="cls-5" points="465.34 194.49 465.34 89.51 542.35 89.51 542.35 121.62 503.25 121.62 503.25 126.77 539.92 126.77 539.92 157.3 503.25 157.3 503.25 162.38 542.35 162.38 542.35 194.49 465.34 194.49"/>
          </g>
          <g>
            <path class="cls-5" d="m138.67,195.21c-33.18,0-52.99-20.3-52.99-54.3,0-16.58,4.85-30.3,14.02-39.75,9.13-9.39,22.31-14.36,38.11-14.36,25.98,0,46.43,15.73,48.62,37.41l.6,6.04h.61v17.84c0,29.07-18.77,47.13-48.97,47.13Zm-.72-75.63c-11.43,0-13.83,11.38-13.83,20.94,0,6.64,1.48,21.92,15.21,21.92,2.68,0,6.68-.47,9.18-2.97h-14.31v-29.22h16.12l-1.23-4.1c-1.26-4.17-5.32-6.57-11.14-6.57Z"/>
            <path class="cls-5" d="m245.61,195.21c-27.99,0-46.8-16.29-46.8-40.55v-66.15h37.91v63.39c0,9.34,4.79,10.54,8.96,10.54s8.96-1.2,8.96-10.54v-63.39h37.91v66.15c0,24.25-18.86,40.55-46.93,40.55Z"/>
            <rect class="cls-5" x="305.82" y="88.51" width="37.91" height="104.99"/>
            <path class="cls-5" d="m357,193.49v-104.99h45.61c15.81,0,28.33,4.52,37.21,13.43,8.99,9.03,13.54,21.89,13.54,38.24v.13c0,16.21-4.66,29.68-13.46,38.94-8.86,9.32-21.75,14.24-37.29,14.24h-45.61Zm41.67-32.18c7.57,0,16.26-2.39,16.26-21v-.13c0-12.93-5.47-19.49-16.26-19.49h-3.76v40.62h3.76Z"/>
            <polygon class="cls-5" points="464.34 193.49 464.34 88.51 541.35 88.51 541.35 120.62 502.25 120.62 502.25 125.77 538.92 125.77 538.92 156.3 502.25 156.3 502.25 161.38 541.35 161.38 541.35 193.49 464.34 193.49"/>
          </g>
          <g>
            <path class="cls-5" d="m137.67,194.21c-33.18,0-52.99-20.3-52.99-54.3,0-16.58,4.85-30.3,14.02-39.75,9.13-9.39,22.31-14.36,38.11-14.36,25.98,0,46.43,15.73,48.62,37.41l.6,6.04h.61v17.84c0,29.07-18.77,47.13-48.97,47.13Zm-.72-75.63c-11.43,0-13.83,11.38-13.83,20.94,0,6.64,1.48,21.92,15.21,21.92,2.68,0,6.68-.47,9.18-2.97h-14.31v-29.22h16.12l-1.23-4.1c-1.26-4.17-5.32-6.57-11.14-6.57Z"/>
            <path class="cls-5" d="m244.61,194.21c-27.99,0-46.8-16.29-46.8-40.55v-66.15h37.91v63.39c0,9.34,4.79,10.54,8.96,10.54s8.96-1.2,8.96-10.54v-63.39h37.91v66.15c0,24.25-18.86,40.55-46.93,40.55Z"/>
            <rect class="cls-5" x="304.82" y="87.51" width="37.91" height="104.99"/>
            <path class="cls-5" d="m356,192.49v-104.99h45.61c15.81,0,28.33,4.52,37.21,13.43,8.99,9.03,13.54,21.89,13.54,38.24v.13c0,16.21-4.66,29.68-13.46,38.94-8.86,9.32-21.75,14.24-37.29,14.24h-45.61Zm41.67-32.18c7.57,0,16.26-2.39,16.26-21v-.13c0-12.93-5.47-19.49-16.26-19.49h-3.76v40.62h3.76Z"/>
            <polygon class="cls-5" points="463.34 192.49 463.34 87.51 540.35 87.51 540.35 119.62 501.25 119.62 501.25 124.77 537.92 124.77 537.92 155.3 501.25 155.3 501.25 160.38 540.35 160.38 540.35 192.49 463.34 192.49"/>
          </g>
          <g>
            <path class="cls-5" d="m136.67,193.21c-33.18,0-52.99-20.3-52.99-54.3,0-16.58,4.85-30.3,14.02-39.75,9.13-9.39,22.31-14.36,38.11-14.36,25.98,0,46.43,15.73,48.62,37.41l.6,6.04h.61v17.84c0,29.07-18.77,47.13-48.97,47.13Zm-.72-75.63c-11.43,0-13.83,11.38-13.83,20.94,0,6.64,1.48,21.92,15.21,21.92,2.68,0,6.68-.47,9.18-2.97h-14.31v-29.22h16.12l-1.23-4.1c-1.26-4.17-5.32-6.57-11.14-6.57Z"/>
            <path class="cls-5" d="m243.61,193.21c-27.99,0-46.8-16.29-46.8-40.55v-66.15h37.91v63.39c0,9.34,4.79,10.54,8.96,10.54s8.96-1.2,8.96-10.54v-63.39h37.91v66.15c0,24.25-18.86,40.55-46.93,40.55Z"/>
            <rect class="cls-5" x="303.82" y="86.51" width="37.91" height="104.99"/>
            <path class="cls-5" d="m355,191.49v-104.99h45.61c15.81,0,28.33,4.52,37.21,13.43,8.99,9.03,13.54,21.89,13.54,38.24v.13c0,16.21-4.66,29.68-13.46,38.94-8.86,9.32-21.75,14.24-37.29,14.24h-45.61Zm41.67-32.18c7.57,0,16.26-2.39,16.26-21v-.13c0-12.93-5.47-19.49-16.26-19.49h-3.76v40.62h3.76Z"/>
            <polygon class="cls-5" points="462.34 191.49 462.34 86.51 539.35 86.51 539.35 118.62 500.25 118.62 500.25 123.77 536.92 123.77 536.92 154.3 500.25 154.3 500.25 159.38 539.35 159.38 539.35 191.49 462.34 191.49"/>
          </g>
          <g>
            <path class="cls-5" d="m135.67,192.21c-33.18,0-52.99-20.3-52.99-54.3,0-16.58,4.85-30.3,14.02-39.75,9.13-9.39,22.31-14.36,38.11-14.36,25.98,0,46.43,15.73,48.62,37.41l.6,6.04h.61v17.84c0,29.07-18.77,47.13-48.97,47.13Zm-.72-75.63c-11.43,0-13.83,11.38-13.83,20.94,0,6.64,1.48,21.92,15.21,21.92,2.68,0,6.68-.47,9.18-2.97h-14.31v-29.22h16.12l-1.23-4.1c-1.26-4.17-5.32-6.57-11.14-6.57Z"/>
            <path class="cls-5" d="m242.61,192.21c-27.99,0-46.8-16.29-46.8-40.55v-66.15h37.91v63.39c0,9.34,4.79,10.54,8.96,10.54s8.96-1.2,8.96-10.54v-63.39h37.91v66.15c0,24.25-18.86,40.55-46.93,40.55Z"/>
            <rect class="cls-5" x="302.82" y="85.51" width="37.91" height="104.99"/>
            <path class="cls-5" d="m354,190.49v-104.99h45.61c15.81,0,28.33,4.52,37.21,13.43,8.99,9.03,13.54,21.89,13.54,38.24v.13c0,16.21-4.66,29.68-13.46,38.94-8.86,9.32-21.75,14.24-37.29,14.24h-45.61Zm41.67-32.18c7.57,0,16.26-2.39,16.26-21v-.13c0-12.93-5.47-19.49-16.26-19.49h-3.76v40.62h3.76Z"/>
            <polygon class="cls-5" points="461.34 190.49 461.34 85.51 538.35 85.51 538.35 117.62 499.25 117.62 499.25 122.77 535.92 122.77 535.92 153.3 499.25 153.3 499.25 158.38 538.35 158.38 538.35 190.49 461.34 190.49"/>
          </g>
          <g>
            <path class="cls-5" d="m134.67,191.21c-33.18,0-52.99-20.3-52.99-54.3,0-16.58,4.85-30.3,14.02-39.75,9.13-9.39,22.31-14.36,38.11-14.36,25.98,0,46.43,15.73,48.62,37.41l.6,6.04h.61v17.84c0,29.07-18.77,47.13-48.97,47.13Zm-.72-75.63c-11.43,0-13.83,11.38-13.83,20.94,0,6.64,1.48,21.92,15.21,21.92,2.68,0,6.68-.47,9.18-2.97h-14.31v-29.22h16.12l-1.23-4.1c-1.26-4.17-5.32-6.57-11.14-6.57Z"/>
            <path class="cls-5" d="m241.61,191.21c-27.99,0-46.8-16.29-46.8-40.55v-66.15h37.91v63.39c0,9.34,4.79,10.54,8.96,10.54s8.96-1.2,8.96-10.54v-63.39h37.91v66.15c0,24.25-18.86,40.55-46.93,40.55Z"/>
            <rect class="cls-5" x="301.82" y="84.51" width="37.91" height="104.99"/>
            <path class="cls-5" d="m353,189.49v-104.99h45.61c15.81,0,28.33,4.52,37.21,13.43,8.99,9.03,13.54,21.89,13.54,38.24v.13c0,16.21-4.66,29.68-13.46,38.94-8.86,9.32-21.75,14.24-37.29,14.24h-45.61Zm41.67-32.18c7.57,0,16.26-2.39,16.26-21v-.13c0-12.93-5.47-19.49-16.26-19.49h-3.76v40.62h3.76Z"/>
            <polygon class="cls-5" points="460.34 189.49 460.34 84.51 537.35 84.51 537.35 116.62 498.25 116.62 498.25 121.77 534.92 121.77 534.92 152.3 498.25 152.3 498.25 157.38 537.35 157.38 537.35 189.49 460.34 189.49"/>
          </g>
          <g>
            <path class="cls-5" d="m133.67,190.21c-33.18,0-52.99-20.3-52.99-54.3,0-16.58,4.85-30.3,14.02-39.75,9.13-9.39,22.31-14.36,38.11-14.36,25.98,0,46.43,15.73,48.62,37.41l.6,6.04h.61v17.84c0,29.07-18.77,47.13-48.97,47.13Zm-.72-75.63c-11.43,0-13.83,11.38-13.83,20.94,0,6.64,1.48,21.92,15.21,21.92,2.68,0,6.68-.47,9.18-2.97h-14.31v-29.22h16.12l-1.23-4.1c-1.26-4.17-5.32-6.57-11.14-6.57Z"/>
            <path class="cls-5" d="m240.61,190.21c-27.99,0-46.8-16.29-46.8-40.55v-66.15h37.91v63.39c0,9.34,4.79,10.54,8.96,10.54s8.96-1.2,8.96-10.54v-63.39h37.91v66.15c0,24.25-18.86,40.55-46.93,40.55Z"/>
            <rect class="cls-5" x="300.82" y="83.51" width="37.91" height="104.99"/>
            <path class="cls-5" d="m352,188.49v-104.99h45.61c15.81,0,28.33,4.52,37.21,13.43,8.99,9.03,13.54,21.89,13.54,38.24v.13c0,16.21-4.66,29.68-13.46,38.94-8.86,9.32-21.75,14.24-37.29,14.24h-45.61Zm41.67-32.18c7.57,0,16.26-2.39,16.26-21v-.13c0-12.93-5.47-19.49-16.26-19.49h-3.76v40.62h3.76Z"/>
            <polygon class="cls-5" points="459.34 188.49 459.34 83.51 536.35 83.51 536.35 115.62 497.25 115.62 497.25 120.77 533.92 120.77 533.92 151.3 497.25 151.3 497.25 156.38 536.35 156.38 536.35 188.49 459.34 188.49"/>
          </g>
          <g>
            <path class="cls-5" d="m132.67,189.21c-33.18,0-52.99-20.3-52.99-54.3,0-16.58,4.85-30.3,14.02-39.75,9.13-9.39,22.31-14.36,38.11-14.36,25.98,0,46.43,15.73,48.62,37.41l.6,6.04h.61v17.84c0,29.07-18.77,47.13-48.97,47.13Zm-.72-75.63c-11.43,0-13.83,11.38-13.83,20.94,0,6.64,1.48,21.92,15.21,21.92,2.68,0,6.68-.47,9.18-2.97h-14.31v-29.22h16.12l-1.23-4.1c-1.26-4.17-5.32-6.57-11.14-6.57Z"/>
            <path class="cls-5" d="m239.61,189.21c-27.99,0-46.8-16.29-46.8-40.55v-66.15h37.91v63.39c0,9.34,4.79,10.54,8.96,10.54s8.96-1.2,8.96-10.54v-63.39h37.91v66.15c0,24.25-18.86,40.55-46.93,40.55Z"/>
            <rect class="cls-5" x="299.82" y="82.51" width="37.91" height="104.99"/>
            <path class="cls-5" d="m351,187.49v-104.99h45.61c15.81,0,28.33,4.52,37.21,13.43,8.99,9.03,13.54,21.89,13.54,38.24v.13c0,16.21-4.66,29.68-13.46,38.94-8.86,9.32-21.75,14.24-37.29,14.24h-45.61Zm41.67-32.18c7.57,0,16.26-2.39,16.26-21v-.13c0-12.93-5.47-19.49-16.26-19.49h-3.76v40.62h3.76Z"/>
            <polygon class="cls-5" points="458.34 187.49 458.34 82.51 535.35 82.51 535.35 114.62 496.25 114.62 496.25 119.77 532.92 119.77 532.92 150.3 496.25 150.3 496.25 155.38 535.35 155.38 535.35 187.49 458.34 187.49"/>
          </g>
          <g>
            <path class="cls-5" d="m131.67,188.21c-33.18,0-52.99-20.3-52.99-54.3,0-16.58,4.85-30.3,14.02-39.75,9.13-9.39,22.31-14.36,38.11-14.36,25.98,0,46.43,15.73,48.62,37.41l.6,6.04h.61v17.84c0,29.07-18.77,47.13-48.97,47.13Zm-.72-75.63c-11.43,0-13.83,11.38-13.83,20.94,0,6.64,1.48,21.92,15.21,21.92,2.68,0,6.68-.47,9.18-2.97h-14.31v-29.22h16.12l-1.23-4.1c-1.26-4.17-5.32-6.57-11.14-6.57Z"/>
            <path class="cls-5" d="m238.61,188.21c-27.99,0-46.8-16.29-46.8-40.55v-66.15h37.91v63.39c0,9.34,4.79,10.54,8.96,10.54s8.96-1.2,8.96-10.54v-63.39h37.91v66.15c0,24.25-18.86,40.55-46.93,40.55Z"/>
            <rect class="cls-5" x="298.82" y="81.51" width="37.91" height="104.99"/>
            <path class="cls-5" d="m350,186.49v-104.99h45.61c15.81,0,28.33,4.52,37.21,13.43,8.99,9.03,13.54,21.89,13.54,38.24v.13c0,16.21-4.66,29.68-13.46,38.94-8.86,9.32-21.75,14.24-37.29,14.24h-45.61Zm41.67-32.18c7.57,0,16.26-2.39,16.26-21v-.13c0-12.93-5.47-19.49-16.26-19.49h-3.76v40.62h3.76Z"/>
            <polygon class="cls-5" points="457.34 186.49 457.34 81.51 534.35 81.51 534.35 113.62 495.25 113.62 495.25 118.77 531.92 118.77 531.92 149.3 495.25 149.3 495.25 154.38 534.35 154.38 534.35 186.49 457.34 186.49"/>
          </g>
          <g>
            <path class="cls-5" d="m130.67,187.21c-33.18,0-52.99-20.3-52.99-54.3,0-16.58,4.85-30.3,14.02-39.75,9.13-9.39,22.31-14.36,38.11-14.36,25.98,0,46.43,15.73,48.62,37.41l.6,6.04h.61v17.84c0,29.07-18.77,47.13-48.97,47.13Zm-.72-75.63c-11.43,0-13.83,11.38-13.83,20.94,0,6.64,1.48,21.92,15.21,21.92,2.68,0,6.68-.47,9.18-2.97h-14.31v-29.22h16.12l-1.23-4.1c-1.26-4.17-5.32-6.57-11.14-6.57Z"/>
            <path class="cls-5" d="m237.61,187.21c-27.99,0-46.8-16.29-46.8-40.55v-66.15h37.91v63.39c0,9.34,4.79,10.54,8.96,10.54s8.96-1.2,8.96-10.54v-63.39h37.91v66.15c0,24.25-18.86,40.55-46.93,40.55Z"/>
            <rect class="cls-5" x="297.82" y="80.51" width="37.91" height="104.99"/>
            <path class="cls-5" d="m349,185.49v-104.99h45.61c15.81,0,28.33,4.52,37.21,13.43,8.99,9.03,13.54,21.89,13.54,38.24v.13c0,16.21-4.66,29.68-13.46,38.94-8.86,9.32-21.75,14.24-37.29,14.24h-45.61Zm41.67-32.18c7.57,0,16.26-2.39,16.26-21v-.13c0-12.93-5.47-19.49-16.26-19.49h-3.76v40.62h3.76Z"/>
            <polygon class="cls-5" points="456.34 185.49 456.34 80.51 533.35 80.51 533.35 112.62 494.25 112.62 494.25 117.77 530.92 117.77 530.92 148.3 494.25 148.3 494.25 153.38 533.35 153.38 533.35 185.49 456.34 185.49"/>
          </g>
          <g>
            <path class="cls-5" d="m129.67,186.21c-33.18,0-52.99-20.3-52.99-54.3,0-16.58,4.85-30.3,14.02-39.75,9.13-9.39,22.31-14.36,38.11-14.36,25.98,0,46.43,15.73,48.62,37.41l.6,6.04h.61v17.84c0,29.07-18.77,47.13-48.97,47.13Zm-.72-75.63c-11.43,0-13.83,11.38-13.83,20.94,0,6.64,1.48,21.92,15.21,21.92,2.68,0,6.68-.47,9.18-2.97h-14.31v-29.22h16.12l-1.23-4.1c-1.26-4.17-5.32-6.57-11.14-6.57Z"/>
            <path class="cls-5" d="m236.61,186.21c-27.99,0-46.8-16.29-46.8-40.55v-66.15h37.91v63.39c0,9.34,4.79,10.54,8.96,10.54s8.96-1.2,8.96-10.54v-63.39h37.91v66.15c0,24.25-18.86,40.55-46.93,40.55Z"/>
            <rect class="cls-5" x="296.82" y="79.51" width="37.91" height="104.99"/>
            <path class="cls-5" d="m348,184.49v-104.99h45.61c15.81,0,28.33,4.52,37.21,13.43,8.99,9.03,13.54,21.89,13.54,38.24v.13c0,16.21-4.66,29.68-13.46,38.94-8.86,9.32-21.75,14.24-37.29,14.24h-45.61Zm41.67-32.18c7.57,0,16.26-2.39,16.26-21v-.13c0-12.93-5.47-19.49-16.26-19.49h-3.76v40.62h3.76Z"/>
            <polygon class="cls-5" points="455.34 184.49 455.34 79.51 532.35 79.51 532.35 111.62 493.25 111.62 493.25 116.77 529.92 116.77 529.92 147.3 493.25 147.3 493.25 152.38 532.35 152.38 532.35 184.49 455.34 184.49"/>
          </g>
          <g>
            <path class="cls-5" d="m128.67,185.21c-33.18,0-52.99-20.3-52.99-54.3,0-16.58,4.85-30.3,14.02-39.75,9.13-9.39,22.31-14.36,38.11-14.36,25.98,0,46.43,15.73,48.62,37.41l.6,6.04h.61v17.84c0,29.07-18.77,47.13-48.97,47.13Zm-.72-75.63c-11.43,0-13.83,11.38-13.83,20.94,0,6.64,1.48,21.92,15.21,21.92,2.68,0,6.68-.47,9.18-2.97h-14.31v-29.22h16.12l-1.23-4.1c-1.26-4.17-5.32-6.57-11.14-6.57Z"/>
            <path class="cls-5" d="m235.61,185.21c-27.99,0-46.8-16.29-46.8-40.55v-66.15h37.91v63.39c0,9.34,4.79,10.54,8.96,10.54s8.96-1.2,8.96-10.54v-63.39h37.91v66.15c0,24.25-18.86,40.55-46.93,40.55Z"/>
            <rect class="cls-5" x="295.82" y="78.51" width="37.91" height="104.99"/>
            <path class="cls-5" d="m347,183.49v-104.99h45.61c15.81,0,28.33,4.52,37.21,13.43,8.99,9.03,13.54,21.89,13.54,38.24v.13c0,16.21-4.66,29.68-13.46,38.94-8.86,9.32-21.75,14.24-37.29,14.24h-45.61Zm41.67-32.18c7.57,0,16.26-2.39,16.26-21v-.13c0-12.93-5.47-19.49-16.26-19.49h-3.76v40.62h3.76Z"/>
            <polygon class="cls-5" points="454.34 183.49 454.34 78.51 531.35 78.51 531.35 110.62 492.25 110.62 492.25 115.77 528.92 115.77 528.92 146.3 492.25 146.3 492.25 151.38 531.35 151.38 531.35 183.49 454.34 183.49"/>
          </g>
          <g>
            <path class="cls-5" d="m127.67,184.21c-33.18,0-52.99-20.3-52.99-54.3,0-16.58,4.85-30.3,14.02-39.75,9.13-9.39,22.31-14.36,38.11-14.36,25.98,0,46.43,15.73,48.62,37.41l.6,6.04h.61v17.84c0,29.07-18.77,47.13-48.97,47.13Zm-.72-75.63c-11.43,0-13.83,11.38-13.83,20.94,0,6.64,1.48,21.92,15.21,21.92,2.68,0,6.68-.47,9.18-2.97h-14.31v-29.22h16.12l-1.23-4.1c-1.26-4.17-5.32-6.57-11.14-6.57Z"/>
            <path class="cls-5" d="m234.61,184.21c-27.99,0-46.8-16.29-46.8-40.55v-66.15h37.91v63.39c0,9.34,4.79,10.54,8.96,10.54s8.96-1.2,8.96-10.54v-63.39h37.91v66.15c0,24.25-18.86,40.55-46.93,40.55Z"/>
            <rect class="cls-5" x="294.82" y="77.51" width="37.91" height="104.99"/>
            <path class="cls-5" d="m346,182.49v-104.99h45.61c15.81,0,28.33,4.52,37.21,13.43,8.99,9.03,13.54,21.89,13.54,38.24v.13c0,16.21-4.66,29.68-13.46,38.94-8.86,9.32-21.75,14.24-37.29,14.24h-45.61Zm41.67-32.18c7.57,0,16.26-2.39,16.26-21v-.13c0-12.93-5.47-19.49-16.26-19.49h-3.76v40.62h3.76Z"/>
            <polygon class="cls-5" points="453.34 182.49 453.34 77.51 530.35 77.51 530.35 109.62 491.25 109.62 491.25 114.77 527.92 114.77 527.92 145.3 491.25 145.3 491.25 150.38 530.35 150.38 530.35 182.49 453.34 182.49"/>
          </g>
          <g>
            <path class="cls-5" d="m126.67,183.21c-33.18,0-52.99-20.3-52.99-54.3,0-16.58,4.85-30.3,14.02-39.75,9.13-9.39,22.31-14.36,38.11-14.36,25.98,0,46.43,15.73,48.62,37.41l.6,6.04h.61v17.84c0,29.07-18.77,47.13-48.97,47.13Zm-.72-75.63c-11.43,0-13.83,11.38-13.83,20.94,0,6.64,1.48,21.92,15.21,21.92,2.68,0,6.68-.47,9.18-2.97h-14.31v-29.22h16.12l-1.23-4.1c-1.26-4.17-5.32-6.57-11.14-6.57Z"/>
            <path class="cls-5" d="m233.61,183.21c-27.99,0-46.8-16.29-46.8-40.55v-66.15h37.91v63.39c0,9.34,4.79,10.54,8.96,10.54s8.96-1.2,8.96-10.54v-63.39h37.91v66.15c0,24.25-18.86,40.55-46.93,40.55Z"/>
            <rect class="cls-5" x="293.82" y="76.51" width="37.91" height="104.99"/>
            <path class="cls-5" d="m345,181.49v-104.99h45.61c15.81,0,28.33,4.52,37.21,13.43,8.99,9.03,13.54,21.89,13.54,38.24v.13c0,16.21-4.66,29.68-13.46,38.94-8.86,9.32-21.75,14.24-37.29,14.24h-45.61Zm41.67-32.18c7.57,0,16.26-2.39,16.26-21v-.13c0-12.93-5.47-19.49-16.26-19.49h-3.76v40.62h3.76Z"/>
            <polygon class="cls-5" points="452.34 181.49 452.34 76.51 529.35 76.51 529.35 108.62 490.25 108.62 490.25 113.77 526.92 113.77 526.92 144.3 490.25 144.3 490.25 149.38 529.35 149.38 529.35 181.49 452.34 181.49"/>
          </g>
          <g>
            <path class="cls-5" d="m125.67,182.21c-33.18,0-52.99-20.3-52.99-54.3,0-16.58,4.85-30.3,14.02-39.75,9.13-9.39,22.31-14.36,38.11-14.36,25.98,0,46.43,15.73,48.62,37.41l.6,6.04h.61v17.84c0,29.07-18.77,47.13-48.97,47.13Zm-.72-75.63c-11.43,0-13.83,11.38-13.83,20.94,0,6.64,1.48,21.92,15.21,21.92,2.68,0,6.68-.47,9.18-2.97h-14.31v-29.22h16.12l-1.23-4.1c-1.26-4.17-5.32-6.57-11.14-6.57Z"/>
            <path class="cls-5" d="m232.61,182.21c-27.99,0-46.8-16.29-46.8-40.55v-66.15h37.91v63.39c0,9.34,4.79,10.54,8.96,10.54s8.96-1.2,8.96-10.54v-63.39h37.91v66.15c0,24.25-18.86,40.55-46.93,40.55Z"/>
            <rect class="cls-5" x="292.82" y="75.51" width="37.91" height="104.99"/>
            <path class="cls-5" d="m344,180.49v-104.99h45.61c15.81,0,28.33,4.52,37.21,13.43,8.99,9.03,13.54,21.89,13.54,38.24v.13c0,16.21-4.66,29.68-13.46,38.94-8.86,9.32-21.75,14.24-37.29,14.24h-45.61Zm41.67-32.18c7.57,0,16.26-2.39,16.26-21v-.13c0-12.93-5.47-19.49-16.26-19.49h-3.76v40.62h3.76Z"/>
            <polygon class="cls-5" points="451.34 180.49 451.34 75.51 528.35 75.51 528.35 107.62 489.25 107.62 489.25 112.77 525.92 112.77 525.92 143.3 489.25 143.3 489.25 148.38 528.35 148.38 528.35 180.49 451.34 180.49"/>
          </g>
          <g>
            <path class="cls-5" d="m124.67,181.21c-33.18,0-52.99-20.3-52.99-54.3,0-16.58,4.85-30.3,14.02-39.75,9.13-9.39,22.31-14.36,38.11-14.36,25.98,0,46.43,15.73,48.62,37.41l.6,6.04h.61v17.84c0,29.07-18.77,47.13-48.97,47.13Zm-.72-75.63c-11.43,0-13.83,11.38-13.83,20.94,0,6.64,1.48,21.92,15.21,21.92,2.68,0,6.68-.47,9.18-2.97h-14.31v-29.22h16.12l-1.23-4.1c-1.26-4.17-5.32-6.57-11.14-6.57Z"/>
            <path class="cls-5" d="m231.61,181.21c-27.99,0-46.8-16.29-46.8-40.55v-66.15h37.91v63.39c0,9.34,4.79,10.54,8.96,10.54s8.96-1.2,8.96-10.54v-63.39h37.91v66.15c0,24.25-18.86,40.55-46.93,40.55Z"/>
            <rect class="cls-5" x="291.82" y="74.51" width="37.91" height="104.99"/>
            <path class="cls-5" d="m343,179.49v-104.99h45.61c15.81,0,28.33,4.52,37.21,13.43,8.99,9.03,13.54,21.89,13.54,38.24v.13c0,16.21-4.66,29.68-13.46,38.94-8.86,9.32-21.75,14.24-37.29,14.24h-45.61Zm41.67-32.18c7.57,0,16.26-2.39,16.26-21v-.13c0-12.93-5.47-19.49-16.26-19.49h-3.76v40.62h3.76Z"/>
            <polygon class="cls-5" points="450.34 179.49 450.34 74.51 527.35 74.51 527.35 106.62 488.25 106.62 488.25 111.77 524.92 111.77 524.92 142.3 488.25 142.3 488.25 147.38 527.35 147.38 527.35 179.49 450.34 179.49"/>
          </g>
          <g>
            <path class="cls-5" d="m123.67,180.21c-33.18,0-52.99-20.3-52.99-54.3,0-16.58,4.85-30.3,14.02-39.75,9.13-9.39,22.31-14.36,38.11-14.36,25.98,0,46.43,15.73,48.62,37.41l.6,6.04h.61v17.84c0,29.07-18.77,47.13-48.97,47.13Zm-.72-75.63c-11.43,0-13.83,11.38-13.83,20.94,0,6.64,1.48,21.92,15.21,21.92,2.68,0,6.68-.47,9.18-2.97h-14.31v-29.22h16.12l-1.23-4.1c-1.26-4.17-5.32-6.57-11.14-6.57Z"/>
            <path class="cls-5" d="m230.61,180.21c-27.99,0-46.8-16.29-46.8-40.55v-66.15h37.91v63.39c0,9.34,4.79,10.54,8.96,10.54s8.96-1.2,8.96-10.54v-63.39h37.91v66.15c0,24.25-18.86,40.55-46.93,40.55Z"/>
            <rect class="cls-5" x="290.82" y="73.51" width="37.91" height="104.99"/>
            <path class="cls-5" d="m342,178.49v-104.99h45.61c15.81,0,28.33,4.52,37.21,13.43,8.99,9.03,13.54,21.89,13.54,38.24v.13c0,16.21-4.66,29.68-13.46,38.94-8.86,9.32-21.75,14.24-37.29,14.24h-45.61Zm41.67-32.18c7.57,0,16.26-2.39,16.26-21v-.13c0-12.93-5.47-19.49-16.26-19.49h-3.76v40.62h3.76Z"/>
            <polygon class="cls-5" points="449.34 178.49 449.34 73.51 526.35 73.51 526.35 105.62 487.25 105.62 487.25 110.77 523.92 110.77 523.92 141.3 487.25 141.3 487.25 146.38 526.35 146.38 526.35 178.49 449.34 178.49"/>
          </g>
          <g>
            <path class="cls-5" d="m122.67,179.21c-33.18,0-52.99-20.3-52.99-54.3,0-16.58,4.85-30.3,14.02-39.75,9.13-9.39,22.31-14.36,38.11-14.36,25.98,0,46.43,15.73,48.62,37.41l.6,6.04h.61v17.84c0,29.07-18.77,47.13-48.97,47.13Zm-.72-75.63c-11.43,0-13.83,11.38-13.83,20.94,0,6.64,1.48,21.92,15.21,21.92,2.68,0,6.68-.47,9.18-2.97h-14.31v-29.22h16.12l-1.23-4.1c-1.26-4.17-5.32-6.57-11.14-6.57Z"/>
            <path class="cls-5" d="m229.61,179.21c-27.99,0-46.8-16.29-46.8-40.55v-66.15h37.91v63.39c0,9.34,4.79,10.54,8.96,10.54s8.96-1.2,8.96-10.54v-63.39h37.91v66.15c0,24.25-18.86,40.55-46.93,40.55Z"/>
            <rect class="cls-5" x="289.82" y="72.51" width="37.91" height="104.99"/>
            <path class="cls-5" d="m341,177.49v-104.99h45.61c15.81,0,28.33,4.52,37.21,13.43,8.99,9.03,13.54,21.89,13.54,38.24v.13c0,16.21-4.66,29.68-13.46,38.94-8.86,9.32-21.75,14.24-37.29,14.24h-45.61Zm41.67-32.18c7.57,0,16.26-2.39,16.26-21v-.13c0-12.93-5.47-19.49-16.26-19.49h-3.76v40.62h3.76Z"/>
            <polygon class="cls-5" points="448.34 177.49 448.34 72.51 525.35 72.51 525.35 104.62 486.25 104.62 486.25 109.77 522.92 109.77 522.92 140.3 486.25 140.3 486.25 145.38 525.35 145.38 525.35 177.49 448.34 177.49"/>
          </g>
          <g>
            <path class="cls-5" d="m121.67,178.21c-33.18,0-52.99-20.3-52.99-54.3,0-16.58,4.85-30.3,14.02-39.75,9.13-9.39,22.31-14.36,38.11-14.36,25.98,0,46.43,15.73,48.62,37.41l.6,6.04h.61v17.84c0,29.07-18.77,47.13-48.97,47.13Zm-.72-75.63c-11.43,0-13.83,11.38-13.83,20.94,0,6.64,1.48,21.92,15.21,21.92,2.68,0,6.68-.47,9.18-2.97h-14.31v-29.22h16.12l-1.23-4.1c-1.26-4.17-5.32-6.57-11.14-6.57Z"/>
            <path class="cls-5" d="m228.61,178.21c-27.99,0-46.8-16.29-46.8-40.55v-66.15h37.91v63.39c0,9.34,4.79,10.54,8.96,10.54s8.96-1.2,8.96-10.54v-63.39h37.91v66.15c0,24.25-18.86,40.55-46.93,40.55Z"/>
            <rect class="cls-5" x="288.82" y="71.51" width="37.91" height="104.99"/>
            <path class="cls-5" d="m340,176.49v-104.99h45.61c15.81,0,28.33,4.52,37.21,13.43,8.99,9.03,13.54,21.89,13.54,38.24v.13c0,16.21-4.66,29.68-13.46,38.94-8.86,9.32-21.75,14.24-37.29,14.24h-45.61Zm41.67-32.18c7.57,0,16.26-2.39,16.26-21v-.13c0-12.93-5.47-19.49-16.26-19.49h-3.76v40.62h3.76Z"/>
            <polygon class="cls-5" points="447.34 176.49 447.34 71.51 524.35 71.51 524.35 103.62 485.25 103.62 485.25 108.77 521.92 108.77 521.92 139.3 485.25 139.3 485.25 144.38 524.35 144.38 524.35 176.49 447.34 176.49"/>
          </g>
          <g>
            <path class="cls-5" d="m120.67,177.21c-33.18,0-52.99-20.3-52.99-54.3,0-16.58,4.85-30.3,14.02-39.75,9.13-9.39,22.31-14.36,38.11-14.36,25.98,0,46.43,15.73,48.62,37.41l.6,6.04h.61v17.84c0,29.07-18.77,47.13-48.97,47.13Zm-.72-75.63c-11.43,0-13.83,11.38-13.83,20.94,0,6.64,1.48,21.92,15.21,21.92,2.68,0,6.68-.47,9.18-2.97h-14.31v-29.22h16.12l-1.23-4.1c-1.26-4.17-5.32-6.57-11.14-6.57Z"/>
            <path class="cls-5" d="m227.61,177.21c-27.99,0-46.8-16.29-46.8-40.55v-66.15h37.91v63.39c0,9.34,4.79,10.54,8.96,10.54s8.96-1.2,8.96-10.54v-63.39h37.91v66.15c0,24.25-18.86,40.55-46.93,40.55Z"/>
            <rect class="cls-5" x="287.82" y="70.51" width="37.91" height="104.99"/>
            <path class="cls-5" d="m339,175.49v-104.99h45.61c15.81,0,28.33,4.52,37.21,13.43,8.99,9.03,13.54,21.89,13.54,38.24v.13c0,16.21-4.66,29.68-13.46,38.94-8.86,9.32-21.75,14.24-37.29,14.24h-45.61Zm41.67-32.18c7.57,0,16.26-2.39,16.26-21v-.13c0-12.93-5.47-19.49-16.26-19.49h-3.76v40.62h3.76Z"/>
            <polygon class="cls-5" points="446.34 175.49 446.34 70.51 523.35 70.51 523.35 102.62 484.25 102.62 484.25 107.77 520.92 107.77 520.92 138.3 484.25 138.3 484.25 143.38 523.35 143.38 523.35 175.49 446.34 175.49"/>
          </g>
          <g>
            <path class="cls-5" d="m119.67,176.21c-33.18,0-52.99-20.3-52.99-54.3,0-16.58,4.85-30.3,14.02-39.75,9.13-9.39,22.31-14.36,38.11-14.36,25.98,0,46.43,15.73,48.62,37.41l.6,6.04h.61v17.84c0,29.07-18.77,47.13-48.97,47.13Zm-.72-75.63c-11.43,0-13.83,11.38-13.83,20.94,0,6.64,1.48,21.92,15.21,21.92,2.68,0,6.68-.47,9.18-2.97h-14.31v-29.22h16.12l-1.23-4.1c-1.26-4.17-5.32-6.57-11.14-6.57Z"/>
            <path class="cls-5" d="m226.61,176.21c-27.99,0-46.8-16.29-46.8-40.55v-66.15h37.91v63.39c0,9.34,4.79,10.54,8.96,10.54s8.96-1.2,8.96-10.54v-63.39h37.91v66.15c0,24.25-18.86,40.55-46.93,40.55Z"/>
            <rect class="cls-5" x="286.82" y="69.51" width="37.91" height="104.99"/>
            <path class="cls-5" d="m338,174.49v-104.99h45.61c15.81,0,28.33,4.52,37.21,13.43,8.99,9.03,13.54,21.89,13.54,38.24v.13c0,16.21-4.66,29.68-13.46,38.94-8.86,9.32-21.75,14.24-37.29,14.24h-45.61Zm41.67-32.18c7.57,0,16.26-2.39,16.26-21v-.13c0-12.93-5.47-19.49-16.26-19.49h-3.76v40.62h3.76Z"/>
            <polygon class="cls-5" points="445.34 174.49 445.34 69.51 522.35 69.51 522.35 101.62 483.25 101.62 483.25 106.77 519.92 106.77 519.92 137.3 483.25 137.3 483.25 142.38 522.35 142.38 522.35 174.49 445.34 174.49"/>
          </g>
          <g>
            <path class="cls-5" d="m118.67,175.21c-33.18,0-52.99-20.3-52.99-54.3,0-16.58,4.85-30.3,14.02-39.75,9.13-9.39,22.31-14.36,38.11-14.36,25.98,0,46.43,15.73,48.62,37.41l.6,6.04h.61v17.84c0,29.07-18.77,47.13-48.97,47.13Zm-.72-75.63c-11.43,0-13.83,11.38-13.83,20.94,0,6.64,1.48,21.92,15.21,21.92,2.68,0,6.68-.47,9.18-2.97h-14.31v-29.22h16.12l-1.23-4.1c-1.26-4.17-5.32-6.57-11.14-6.57Z"/>
            <path class="cls-5" d="m225.61,175.21c-27.99,0-46.8-16.29-46.8-40.55v-66.15h37.91v63.39c0,9.34,4.79,10.54,8.96,10.54s8.96-1.2,8.96-10.54v-63.39h37.91v66.15c0,24.25-18.86,40.55-46.93,40.55Z"/>
            <rect class="cls-5" x="285.82" y="68.51" width="37.91" height="104.99"/>
            <path class="cls-5" d="m337,173.49v-104.99h45.61c15.81,0,28.33,4.52,37.21,13.43,8.99,9.03,13.54,21.89,13.54,38.24v.13c0,16.21-4.66,29.68-13.46,38.94-8.86,9.32-21.75,14.24-37.29,14.24h-45.61Zm41.67-32.18c7.57,0,16.26-2.39,16.26-21v-.13c0-12.93-5.47-19.49-16.26-19.49h-3.76v40.62h3.76Z"/>
            <polygon class="cls-5" points="444.34 173.49 444.34 68.51 521.35 68.51 521.35 100.62 482.25 100.62 482.25 105.77 518.92 105.77 518.92 136.3 482.25 136.3 482.25 141.38 521.35 141.38 521.35 173.49 444.34 173.49"/>
          </g>
          <g>
            <path class="cls-5" d="m117.67,174.21c-33.18,0-52.99-20.3-52.99-54.3,0-16.58,4.85-30.3,14.02-39.75,9.13-9.39,22.31-14.36,38.11-14.36,25.98,0,46.43,15.73,48.62,37.41l.6,6.04h.61v17.84c0,29.07-18.77,47.13-48.97,47.13Zm-.72-75.63c-11.43,0-13.83,11.38-13.83,20.94,0,6.64,1.48,21.92,15.21,21.92,2.68,0,6.68-.47,9.18-2.97h-14.31v-29.22h16.12l-1.23-4.1c-1.26-4.17-5.32-6.57-11.14-6.57Z"/>
            <path class="cls-5" d="m224.61,174.21c-27.99,0-46.8-16.29-46.8-40.55v-66.15h37.91v63.39c0,9.34,4.79,10.54,8.96,10.54s8.96-1.2,8.96-10.54v-63.39h37.91v66.15c0,24.25-18.86,40.55-46.93,40.55Z"/>
            <rect class="cls-5" x="284.82" y="67.51" width="37.91" height="104.99"/>
            <path class="cls-5" d="m336,172.49v-104.99h45.61c15.81,0,28.33,4.52,37.21,13.43,8.99,9.03,13.54,21.89,13.54,38.24v.13c0,16.21-4.66,29.68-13.46,38.94-8.86,9.32-21.75,14.24-37.29,14.24h-45.61Zm41.67-32.18c7.57,0,16.26-2.39,16.26-21v-.13c0-12.93-5.47-19.49-16.26-19.49h-3.76v40.62h3.76Z"/>
            <polygon class="cls-5" points="443.34 172.49 443.34 67.51 520.35 67.51 520.35 99.62 481.25 99.62 481.25 104.77 517.92 104.77 517.92 135.3 481.25 135.3 481.25 140.38 520.35 140.38 520.35 172.49 443.34 172.49"/>
          </g>
          <g>
            <path class="cls-5" d="m116.67,173.21c-33.18,0-52.99-20.3-52.99-54.3,0-16.58,4.85-30.3,14.02-39.75,9.13-9.39,22.31-14.36,38.11-14.36,25.98,0,46.43,15.73,48.62,37.41l.6,6.04h.61v17.84c0,29.07-18.77,47.13-48.97,47.13Zm-.72-75.63c-11.43,0-13.83,11.38-13.83,20.94,0,6.64,1.48,21.92,15.21,21.92,2.68,0,6.68-.47,9.18-2.97h-14.31v-29.22h16.12l-1.23-4.1c-1.26-4.17-5.32-6.57-11.14-6.57Z"/>
            <path class="cls-5" d="m223.61,173.21c-27.99,0-46.8-16.29-46.8-40.55v-66.15h37.91v63.39c0,9.34,4.79,10.54,8.96,10.54s8.96-1.2,8.96-10.54v-63.39h37.91v66.15c0,24.25-18.86,40.55-46.93,40.55Z"/>
            <rect class="cls-5" x="283.82" y="66.51" width="37.91" height="104.99"/>
            <path class="cls-5" d="m335,171.49v-104.99h45.61c15.81,0,28.33,4.52,37.21,13.43,8.99,9.03,13.54,21.89,13.54,38.24v.13c0,16.21-4.66,29.68-13.46,38.94-8.86,9.32-21.75,14.24-37.29,14.24h-45.61Zm41.67-32.18c7.57,0,16.26-2.39,16.26-21v-.13c0-12.93-5.47-19.49-16.26-19.49h-3.76v40.62h3.76Z"/>
            <polygon class="cls-5" points="442.34 171.49 442.34 66.51 519.35 66.51 519.35 98.62 480.25 98.62 480.25 103.77 516.92 103.77 516.92 134.3 480.25 134.3 480.25 139.38 519.35 139.38 519.35 171.49 442.34 171.49"/>
          </g>
          <g>
            <path class="cls-5" d="m115.67,172.21c-33.18,0-52.99-20.3-52.99-54.3,0-16.58,4.85-30.3,14.02-39.75,9.13-9.39,22.31-14.36,38.11-14.36,25.98,0,46.43,15.73,48.62,37.41l.6,6.04h.61v17.84c0,29.07-18.77,47.13-48.97,47.13Zm-.72-75.63c-11.43,0-13.83,11.38-13.83,20.94,0,6.64,1.48,21.92,15.21,21.92,2.68,0,6.68-.47,9.18-2.97h-14.31v-29.22h16.12l-1.23-4.1c-1.26-4.17-5.32-6.57-11.14-6.57Z"/>
            <path class="cls-5" d="m222.61,172.21c-27.99,0-46.8-16.29-46.8-40.55v-66.15h37.91v63.39c0,9.34,4.79,10.54,8.96,10.54s8.96-1.2,8.96-10.54v-63.39h37.91v66.15c0,24.25-18.86,40.55-46.93,40.55Z"/>
            <rect class="cls-5" x="282.82" y="65.51" width="37.91" height="104.99"/>
            <path class="cls-5" d="m334,170.49v-104.99h45.61c15.81,0,28.33,4.52,37.21,13.43,8.99,9.03,13.54,21.89,13.54,38.24v.13c0,16.21-4.66,29.68-13.46,38.94-8.86,9.32-21.75,14.24-37.29,14.24h-45.61Zm41.67-32.18c7.57,0,16.26-2.39,16.26-21v-.13c0-12.93-5.47-19.49-16.26-19.49h-3.76v40.62h3.76Z"/>
            <polygon class="cls-5" points="441.34 170.49 441.34 65.51 518.35 65.51 518.35 97.62 479.25 97.62 479.25 102.77 515.92 102.77 515.92 133.3 479.25 133.3 479.25 138.38 518.35 138.38 518.35 170.49 441.34 170.49"/>
          </g>
          <g>
            <path class="cls-5" d="m114.67,171.21c-33.18,0-52.99-20.3-52.99-54.3,0-16.58,4.85-30.3,14.02-39.75,9.13-9.39,22.31-14.36,38.11-14.36,25.98,0,46.43,15.73,48.62,37.41l.6,6.04h.61v17.84c0,29.07-18.77,47.13-48.97,47.13Zm-.72-75.63c-11.43,0-13.83,11.38-13.83,20.94,0,6.64,1.48,21.92,15.21,21.92,2.68,0,6.68-.47,9.18-2.97h-14.31v-29.22h16.12l-1.23-4.1c-1.26-4.17-5.32-6.57-11.14-6.57Z"/>
            <path class="cls-5" d="m221.61,171.21c-27.99,0-46.8-16.29-46.8-40.55v-66.15h37.91v63.39c0,9.34,4.79,10.54,8.96,10.54s8.96-1.2,8.96-10.54v-63.39h37.91v66.15c0,24.25-18.86,40.55-46.93,40.55Z"/>
            <rect class="cls-5" x="281.82" y="64.51" width="37.91" height="104.99"/>
            <path class="cls-5" d="m333,169.49v-104.99h45.61c15.81,0,28.33,4.52,37.21,13.43,8.99,9.03,13.54,21.89,13.54,38.24v.13c0,16.21-4.66,29.68-13.46,38.94-8.86,9.32-21.75,14.24-37.29,14.24h-45.61Zm41.67-32.18c7.57,0,16.26-2.39,16.26-21v-.13c0-12.93-5.47-19.49-16.26-19.49h-3.76v40.62h3.76Z"/>
            <polygon class="cls-5" points="440.34 169.49 440.34 64.51 517.35 64.51 517.35 96.62 478.25 96.62 478.25 101.77 514.92 101.77 514.92 132.3 478.25 132.3 478.25 137.38 517.35 137.38 517.35 169.49 440.34 169.49"/>
          </g>
          <g>
            <path class="cls-5" d="m113.67,170.21c-33.18,0-52.99-20.3-52.99-54.3,0-16.58,4.85-30.3,14.02-39.75,9.13-9.39,22.31-14.36,38.11-14.36,25.98,0,46.43,15.73,48.62,37.41l.6,6.04h.61v17.84c0,29.07-18.77,47.13-48.97,47.13Zm-.72-75.63c-11.43,0-13.83,11.38-13.83,20.94,0,6.64,1.48,21.92,15.21,21.92,2.68,0,6.68-.47,9.18-2.97h-14.31v-29.22h16.12l-1.23-4.1c-1.26-4.17-5.32-6.57-11.14-6.57Z"/>
            <path class="cls-5" d="m220.61,170.21c-27.99,0-46.8-16.29-46.8-40.55V63.51h37.91v63.39c0,9.34,4.79,10.54,8.96,10.54s8.96-1.2,8.96-10.54v-63.39h37.91v66.15c0,24.25-18.86,40.55-46.93,40.55Z"/>
            <rect class="cls-5" x="280.82" y="63.51" width="37.91" height="104.99"/>
            <path class="cls-5" d="m332,168.49V63.51h45.61c15.81,0,28.33,4.52,37.21,13.43,8.99,9.03,13.54,21.89,13.54,38.24v.13c0,16.21-4.66,29.68-13.46,38.94-8.86,9.32-21.75,14.24-37.29,14.24h-45.61Zm41.67-32.18c7.57,0,16.26-2.39,16.26-21v-.13c0-12.93-5.47-19.49-16.26-19.49h-3.76v40.62h3.76Z"/>
            <polygon class="cls-5" points="439.34 168.49 439.34 63.51 516.35 63.51 516.35 95.62 477.25 95.62 477.25 100.77 513.92 100.77 513.92 131.3 477.25 131.3 477.25 136.38 516.35 136.38 516.35 168.49 439.34 168.49"/>
          </g>
          <g>
            <path class="cls-5" d="m112.67,169.21c-33.18,0-52.99-20.3-52.99-54.3,0-16.58,4.85-30.3,14.02-39.75,9.13-9.39,22.31-14.36,38.11-14.36,25.98,0,46.43,15.73,48.62,37.41l.6,6.04h.61v17.84c0,29.07-18.77,47.13-48.97,47.13Zm-.72-75.63c-11.43,0-13.83,11.38-13.83,20.94,0,6.64,1.48,21.92,15.21,21.92,2.68,0,6.68-.47,9.18-2.97h-14.31v-29.22h16.12l-1.23-4.1c-1.26-4.17-5.32-6.57-11.14-6.57Z"/>
            <path class="cls-5" d="m219.61,169.21c-27.99,0-46.8-16.29-46.8-40.55V62.51h37.91v63.39c0,9.34,4.79,10.54,8.96,10.54s8.96-1.2,8.96-10.54v-63.39h37.91v66.15c0,24.25-18.86,40.55-46.93,40.55Z"/>
            <rect class="cls-5" x="279.82" y="62.51" width="37.91" height="104.99"/>
            <path class="cls-5" d="m331,167.49V62.51h45.61c15.81,0,28.33,4.52,37.21,13.43,8.99,9.03,13.54,21.89,13.54,38.24v.13c0,16.21-4.66,29.68-13.46,38.94-8.86,9.32-21.75,14.24-37.29,14.24h-45.61Zm41.67-32.18c7.57,0,16.26-2.39,16.26-21v-.13c0-12.93-5.47-19.49-16.26-19.49h-3.76v40.62h3.76Z"/>
            <polygon class="cls-5" points="438.34 167.49 438.34 62.51 515.35 62.51 515.35 94.62 476.25 94.62 476.25 99.77 512.92 99.77 512.92 130.3 476.25 130.3 476.25 135.38 515.35 135.38 515.35 167.49 438.34 167.49"/>
          </g>
          <g>
            <path class="cls-5" d="m111.67,168.21c-33.18,0-52.99-20.3-52.99-54.3,0-16.58,4.85-30.3,14.02-39.75,9.13-9.39,22.31-14.36,38.11-14.36,25.98,0,46.43,15.73,48.62,37.41l.6,6.04h.61v17.84c0,29.07-18.77,47.13-48.97,47.13Zm-.72-75.63c-11.43,0-13.83,11.38-13.83,20.94,0,6.64,1.48,21.92,15.21,21.92,2.68,0,6.68-.47,9.18-2.97h-14.31v-29.22h16.12l-1.23-4.1c-1.26-4.17-5.32-6.57-11.14-6.57Z"/>
            <path class="cls-5" d="m218.61,168.21c-27.99,0-46.8-16.29-46.8-40.55V61.51h37.91v63.39c0,9.34,4.79,10.54,8.96,10.54s8.96-1.2,8.96-10.54v-63.39h37.91v66.15c0,24.25-18.86,40.55-46.93,40.55Z"/>
            <rect class="cls-5" x="278.82" y="61.51" width="37.91" height="104.99"/>
            <path class="cls-5" d="m330,166.49V61.51h45.61c15.81,0,28.33,4.52,37.21,13.43,8.99,9.03,13.54,21.89,13.54,38.24v.13c0,16.21-4.66,29.68-13.46,38.94-8.86,9.32-21.75,14.24-37.29,14.24h-45.61Zm41.67-32.18c7.57,0,16.26-2.39,16.26-21v-.13c0-12.93-5.47-19.49-16.26-19.49h-3.76v40.62h3.76Z"/>
            <polygon class="cls-5" points="437.34 166.49 437.34 61.51 514.35 61.51 514.35 93.62 475.25 93.62 475.25 98.77 511.92 98.77 511.92 129.3 475.25 129.3 475.25 134.38 514.35 134.38 514.35 166.49 437.34 166.49"/>
          </g>
          <g>
            <path class="cls-5" d="m110.67,167.21c-33.18,0-52.99-20.3-52.99-54.3,0-16.58,4.85-30.3,14.02-39.75,9.13-9.39,22.31-14.36,38.11-14.36,25.98,0,46.43,15.73,48.62,37.41l.6,6.04h.61v17.84c0,29.07-18.77,47.13-48.97,47.13Zm-.72-75.63c-11.43,0-13.83,11.38-13.83,20.94,0,6.64,1.48,21.92,15.21,21.92,2.68,0,6.68-.47,9.18-2.97h-14.31v-29.22h16.12l-1.23-4.1c-1.26-4.17-5.32-6.57-11.14-6.57Z"/>
            <path class="cls-5" d="m217.61,167.21c-27.99,0-46.8-16.29-46.8-40.55V60.51h37.91v63.39c0,9.34,4.79,10.54,8.96,10.54s8.96-1.2,8.96-10.54v-63.39h37.91v66.15c0,24.25-18.86,40.55-46.93,40.55Z"/>
            <rect class="cls-5" x="277.82" y="60.51" width="37.91" height="104.99"/>
            <path class="cls-5" d="m329,165.49V60.51h45.61c15.81,0,28.33,4.52,37.21,13.43,8.99,9.03,13.54,21.89,13.54,38.24v.13c0,16.21-4.66,29.68-13.46,38.94-8.86,9.32-21.75,14.24-37.29,14.24h-45.61Zm41.67-32.18c7.57,0,16.26-2.39,16.26-21v-.13c0-12.93-5.47-19.49-16.26-19.49h-3.76v40.62h3.76Z"/>
            <polygon class="cls-5" points="436.34 165.49 436.34 60.51 513.35 60.51 513.35 92.62 474.25 92.62 474.25 97.77 510.92 97.77 510.92 128.3 474.25 128.3 474.25 133.38 513.35 133.38 513.35 165.49 436.34 165.49"/>
          </g>
          <g>
            <path class="cls-5" d="m109.67,166.21c-33.18,0-52.99-20.3-52.99-54.3,0-16.58,4.85-30.3,14.02-39.75,9.13-9.39,22.31-14.36,38.11-14.36,25.98,0,46.43,15.73,48.62,37.41l.6,6.04h.61v17.84c0,29.07-18.77,47.13-48.97,47.13Zm-.72-75.63c-11.43,0-13.83,11.38-13.83,20.94,0,6.64,1.48,21.92,15.21,21.92,2.68,0,6.68-.47,9.18-2.97h-14.31v-29.22h16.12l-1.23-4.1c-1.26-4.17-5.32-6.57-11.14-6.57Z"/>
            <path class="cls-5" d="m216.61,166.21c-27.99,0-46.8-16.29-46.8-40.55V59.51h37.91v63.39c0,9.34,4.79,10.54,8.96,10.54s8.96-1.2,8.96-10.54v-63.39h37.91v66.15c0,24.25-18.86,40.55-46.93,40.55Z"/>
            <rect class="cls-5" x="276.82" y="59.51" width="37.91" height="104.99"/>
            <path class="cls-5" d="m328,164.49V59.51h45.61c15.81,0,28.33,4.52,37.21,13.43,8.99,9.03,13.54,21.89,13.54,38.24v.13c0,16.21-4.66,29.68-13.46,38.94-8.86,9.32-21.75,14.24-37.29,14.24h-45.61Zm41.67-32.18c7.57,0,16.26-2.39,16.26-21v-.13c0-12.93-5.47-19.49-16.26-19.49h-3.76v40.62h3.76Z"/>
            <polygon class="cls-5" points="435.34 164.49 435.34 59.51 512.35 59.51 512.35 91.62 473.25 91.62 473.25 96.77 509.92 96.77 509.92 127.3 473.25 127.3 473.25 132.38 512.35 132.38 512.35 164.49 435.34 164.49"/>
          </g>
          <g>
            <path class="cls-5" d="m108.67,165.21c-33.18,0-52.99-20.3-52.99-54.3,0-16.58,4.85-30.3,14.02-39.75,9.13-9.39,22.31-14.36,38.11-14.36,25.98,0,46.43,15.73,48.62,37.41l.6,6.04h.61v17.84c0,29.07-18.77,47.13-48.97,47.13Zm-.72-75.63c-11.43,0-13.83,11.38-13.83,20.94,0,6.64,1.48,21.92,15.21,21.92,2.68,0,6.68-.47,9.18-2.97h-14.31v-29.22h16.12l-1.23-4.1c-1.26-4.17-5.32-6.57-11.14-6.57Z"/>
            <path class="cls-5" d="m215.61,165.21c-27.99,0-46.8-16.29-46.8-40.55V58.51h37.91v63.39c0,9.34,4.79,10.54,8.96,10.54s8.96-1.2,8.96-10.54v-63.39h37.91v66.15c0,24.25-18.86,40.55-46.93,40.55Z"/>
            <rect class="cls-5" x="275.82" y="58.51" width="37.91" height="104.99"/>
            <path class="cls-5" d="m327,163.49V58.51h45.61c15.81,0,28.33,4.52,37.21,13.43,8.99,9.03,13.54,21.89,13.54,38.24v.13c0,16.21-4.66,29.68-13.46,38.94-8.86,9.32-21.75,14.24-37.29,14.24h-45.61Zm41.67-32.18c7.57,0,16.26-2.39,16.26-21v-.13c0-12.93-5.47-19.49-16.26-19.49h-3.76v40.62h3.76Z"/>
            <polygon class="cls-5" points="434.34 163.49 434.34 58.51 511.35 58.51 511.35 90.62 472.25 90.62 472.25 95.77 508.92 95.77 508.92 126.3 472.25 126.3 472.25 131.38 511.35 131.38 511.35 163.49 434.34 163.49"/>
          </g>
          <g>
            <path class="cls-5" d="m107.67,164.21c-33.18,0-52.99-20.3-52.99-54.3,0-16.58,4.85-30.3,14.02-39.75,9.13-9.39,22.31-14.36,38.11-14.36,25.98,0,46.43,15.73,48.62,37.41l.6,6.04h.61v17.84c0,29.07-18.77,47.13-48.97,47.13Zm-.72-75.63c-11.43,0-13.83,11.38-13.83,20.94,0,6.64,1.48,21.92,15.21,21.92,2.68,0,6.68-.47,9.18-2.97h-14.31v-29.22h16.12l-1.23-4.1c-1.26-4.17-5.32-6.57-11.14-6.57Z"/>
            <path class="cls-5" d="m214.61,164.21c-27.99,0-46.8-16.29-46.8-40.55V57.51h37.91v63.39c0,9.34,4.79,10.54,8.96,10.54s8.96-1.2,8.96-10.54v-63.39h37.91v66.15c0,24.25-18.86,40.55-46.93,40.55Z"/>
            <rect class="cls-5" x="274.82" y="57.51" width="37.91" height="104.99"/>
            <path class="cls-5" d="m326,162.49V57.51h45.61c15.81,0,28.33,4.52,37.21,13.43,8.99,9.03,13.54,21.89,13.54,38.24v.13c0,16.21-4.66,29.68-13.46,38.94-8.86,9.32-21.75,14.24-37.29,14.24h-45.61Zm41.67-32.18c7.57,0,16.26-2.39,16.26-21v-.13c0-12.93-5.47-19.49-16.26-19.49h-3.76v40.62h3.76Z"/>
            <polygon class="cls-5" points="433.34 162.49 433.34 57.51 510.35 57.51 510.35 89.62 471.25 89.62 471.25 94.77 507.92 94.77 507.92 125.3 471.25 125.3 471.25 130.38 510.35 130.38 510.35 162.49 433.34 162.49"/>
          </g>
          <g>
            <path class="cls-5" d="m106.67,163.21c-33.18,0-52.99-20.3-52.99-54.3,0-16.58,4.85-30.3,14.02-39.75,9.13-9.39,22.31-14.36,38.11-14.36,25.98,0,46.43,15.73,48.62,37.41l.6,6.04h.61v17.84c0,29.07-18.77,47.13-48.97,47.13Zm-.72-75.63c-11.43,0-13.83,11.38-13.83,20.94,0,6.64,1.48,21.92,15.21,21.92,2.68,0,6.68-.47,9.18-2.97h-14.31v-29.22h16.12l-1.23-4.1c-1.26-4.17-5.32-6.57-11.14-6.57Z"/>
            <path class="cls-5" d="m213.61,163.21c-27.99,0-46.8-16.29-46.8-40.55V56.51h37.91v63.39c0,9.34,4.79,10.54,8.96,10.54s8.96-1.2,8.96-10.54v-63.39h37.91v66.15c0,24.25-18.86,40.55-46.93,40.55Z"/>
            <rect class="cls-5" x="273.82" y="56.51" width="37.91" height="104.99"/>
            <path class="cls-5" d="m325,161.49V56.51h45.61c15.81,0,28.33,4.52,37.21,13.43,8.99,9.03,13.54,21.89,13.54,38.24v.13c0,16.21-4.66,29.68-13.46,38.94-8.86,9.32-21.75,14.24-37.29,14.24h-45.61Zm41.67-32.18c7.57,0,16.26-2.39,16.26-21v-.13c0-12.93-5.47-19.49-16.26-19.49h-3.76v40.62h3.76Z"/>
            <polygon class="cls-5" points="432.34 161.49 432.34 56.51 509.35 56.51 509.35 88.62 470.25 88.62 470.25 93.77 506.92 93.77 506.92 124.3 470.25 124.3 470.25 129.38 509.35 129.38 509.35 161.49 432.34 161.49"/>
          </g>
        </g>
        <text class="cls-2" transform="translate(54.4 156.49)"><tspan x="0" y="0">GUIDE</tspan></text>
      </g>
    </g>
  </g>
</svg>