<?xml version="1.0" encoding="UTF-8"?>
<svg id="Layer_2" data-name="Layer 2" xmlns="http://www.w3.org/2000/svg" xmlns:xlink="http://www.w3.org/1999/xlink" viewBox="0 0 633.62 243.65">
  <defs>
    <style>
      .cls-1 {
        fill: #564d3b;
      }

      .cls-2, .cls-3 {
        font-family: SFProDisplay-Black, 'SF Pro Display';
        font-size: 134.81px;
        font-weight: 800;
        letter-spacing: .07em;
      }

      .cls-3 {
        fill: #eebc7a;
      }

      .cls-4 {
        fill: #633d1a;
      }

      .cls-5 {
        opacity: .24;
      }

      .cls-6 {
        clip-path: url(#clippath);
      }

      .cls-7 {
        fill: none;
      }

      .cls-8 {
        fill: #e0d6c0;
        stroke: #333;
        stroke-miterlimit: 10;
        stroke-width: 4px;
      }
    </style>
    <clipPath id="clippath">
      <rect class="cls-7" x="2" y="2" width="629.62" height="230.82" rx="46.2" ry="46.2"/>
    </clipPath>
  </defs>
  <g id="Layer_24" data-name="Layer 24">
    <g id="LEarn">
      <g>
        <rect class="cls-8" x="2" y="2" width="629.62" height="230.82" rx="46.2" ry="46.2"/>
        <g class="cls-5">
          <g class="cls-6">
            <rect class="cls-1" x="314.21" y="-345.74" width="227.63" height="1280.83" transform="translate(76.99 677.84) rotate(-82.05)"/>
          </g>
        </g>
      </g>
      <g>
        <text class="cls-2" transform="translate(54.4 156.49)"><tspan x="0" y="0">LEARN </tspan></text>
        <g>
          <g>
            <polygon class="cls-4" points="105.98 211.49 105.98 106.51 143.89 106.51 143.89 179.38 181.15 179.38 181.15 211.49 105.98 211.49"/>
            <polygon class="cls-4" points="191.79 211.49 191.79 106.51 268.81 106.51 268.81 138.62 229.7 138.62 229.7 143.77 266.37 143.77 266.37 174.3 229.7 174.3 229.7 179.38 268.81 179.38 268.81 211.49 191.79 211.49"/>
            <path class="cls-4" d="m346.15,211.49l-4.94-18.89h-20.71l-4.94,18.89h-40.11l34.27-104.99h42.27l34.27,104.99h-40.11Zm-12.68-48.57l-2.61-9.99-2.61,9.99h5.22Z"/>
            <path class="cls-4" d="m446.97,211.49l-15.01-31.2h-1.01v31.2h-37.91v-104.99h47.79c27.15,0,42.72,13.67,42.72,37.52v.13c0,11.86-5.25,22.66-13.71,28.85l19.64,38.49h-42.51Zm-9.36-60.88c2.26,0,7.51-.65,7.51-6.65v-.13c0-4.14-2.88-6.72-7.51-6.72h-6.65v13.5h6.65Z"/>
            <polygon class="cls-4" points="559.55 211.49 532.89 172.59 532.89 211.49 494.98 211.49 494.98 106.51 525.84 106.51 552.25 144.72 552.25 106.51 590.16 106.51 590.16 211.49 559.55 211.49"/>
          </g>
          <g>
            <polygon class="cls-4" points="104.98 210.49 104.98 105.51 142.89 105.51 142.89 178.38 180.15 178.38 180.15 210.49 104.98 210.49"/>
            <polygon class="cls-4" points="190.79 210.49 190.79 105.51 267.81 105.51 267.81 137.62 228.7 137.62 228.7 142.77 265.37 142.77 265.37 173.3 228.7 173.3 228.7 178.38 267.81 178.38 267.81 210.49 190.79 210.49"/>
            <path class="cls-4" d="m345.15,210.49l-4.94-18.89h-20.71l-4.94,18.89h-40.11l34.27-104.99h42.27l34.27,104.99h-40.11Zm-12.68-48.57l-2.61-9.99-2.61,9.99h5.22Z"/>
            <path class="cls-4" d="m445.97,210.49l-15.01-31.2h-1.01v31.2h-37.91v-104.99h47.79c27.15,0,42.72,13.67,42.72,37.52v.13c0,11.86-5.25,22.66-13.71,28.85l19.64,38.49h-42.51Zm-9.36-60.88c2.26,0,7.51-.65,7.51-6.65v-.13c0-4.14-2.88-6.72-7.51-6.72h-6.65v13.5h6.65Z"/>
            <polygon class="cls-4" points="558.55 210.49 531.89 171.59 531.89 210.49 493.98 210.49 493.98 105.51 524.84 105.51 551.25 143.72 551.25 105.51 589.16 105.51 589.16 210.49 558.55 210.49"/>
          </g>
          <g>
            <polygon class="cls-4" points="103.98 209.49 103.98 104.51 141.89 104.51 141.89 177.38 179.15 177.38 179.15 209.49 103.98 209.49"/>
            <polygon class="cls-4" points="189.79 209.49 189.79 104.51 266.81 104.51 266.81 136.62 227.7 136.62 227.7 141.77 264.37 141.77 264.37 172.3 227.7 172.3 227.7 177.38 266.81 177.38 266.81 209.49 189.79 209.49"/>
            <path class="cls-4" d="m344.15,209.49l-4.94-18.89h-20.71l-4.94,18.89h-40.11l34.27-104.99h42.27l34.27,104.99h-40.11Zm-12.68-48.57l-2.61-9.99-2.61,9.99h5.22Z"/>
            <path class="cls-4" d="m444.97,209.49l-15.01-31.2h-1.01v31.2h-37.91v-104.99h47.79c27.15,0,42.72,13.67,42.72,37.52v.13c0,11.86-5.25,22.66-13.71,28.85l19.64,38.49h-42.51Zm-9.36-60.88c2.26,0,7.51-.65,7.51-6.65v-.13c0-4.14-2.88-6.72-7.51-6.72h-6.65v13.5h6.65Z"/>
            <polygon class="cls-4" points="557.55 209.49 530.89 170.59 530.89 209.49 492.98 209.49 492.98 104.51 523.84 104.51 550.25 142.72 550.25 104.51 588.16 104.51 588.16 209.49 557.55 209.49"/>
          </g>
          <g>
            <polygon class="cls-4" points="102.98 208.49 102.98 103.51 140.89 103.51 140.89 176.38 178.15 176.38 178.15 208.49 102.98 208.49"/>
            <polygon class="cls-4" points="188.79 208.49 188.79 103.51 265.81 103.51 265.81 135.62 226.7 135.62 226.7 140.77 263.37 140.77 263.37 171.3 226.7 171.3 226.7 176.38 265.81 176.38 265.81 208.49 188.79 208.49"/>
            <path class="cls-4" d="m343.15,208.49l-4.94-18.89h-20.71l-4.94,18.89h-40.11l34.27-104.99h42.27l34.27,104.99h-40.11Zm-12.68-48.57l-2.61-9.99-2.61,9.99h5.22Z"/>
            <path class="cls-4" d="m443.97,208.49l-15.01-31.2h-1.01v31.2h-37.91v-104.99h47.79c27.15,0,42.72,13.67,42.72,37.52v.13c0,11.86-5.25,22.66-13.71,28.85l19.64,38.49h-42.51Zm-9.36-60.88c2.26,0,7.51-.65,7.51-6.65v-.13c0-4.14-2.88-6.72-7.51-6.72h-6.65v13.5h6.65Z"/>
            <polygon class="cls-4" points="556.55 208.49 529.89 169.59 529.89 208.49 491.98 208.49 491.98 103.51 522.84 103.51 549.25 141.72 549.25 103.51 587.16 103.51 587.16 208.49 556.55 208.49"/>
          </g>
          <g>
            <polygon class="cls-4" points="101.98 207.49 101.98 102.51 139.89 102.51 139.89 175.38 177.15 175.38 177.15 207.49 101.98 207.49"/>
            <polygon class="cls-4" points="187.79 207.49 187.79 102.51 264.81 102.51 264.81 134.62 225.7 134.62 225.7 139.77 262.37 139.77 262.37 170.3 225.7 170.3 225.7 175.38 264.81 175.38 264.81 207.49 187.79 207.49"/>
            <path class="cls-4" d="m342.15,207.49l-4.94-18.89h-20.71l-4.94,18.89h-40.11l34.27-104.99h42.27l34.27,104.99h-40.11Zm-12.68-48.57l-2.61-9.99-2.61,9.99h5.22Z"/>
            <path class="cls-4" d="m442.97,207.49l-15.01-31.2h-1.01v31.2h-37.91v-104.99h47.79c27.15,0,42.72,13.67,42.72,37.52v.13c0,11.86-5.25,22.66-13.71,28.85l19.64,38.49h-42.51Zm-9.36-60.88c2.26,0,7.51-.65,7.51-6.65v-.13c0-4.14-2.88-6.72-7.51-6.72h-6.65v13.5h6.65Z"/>
            <polygon class="cls-4" points="555.55 207.49 528.89 168.59 528.89 207.49 490.98 207.49 490.98 102.51 521.84 102.51 548.25 140.72 548.25 102.51 586.16 102.51 586.16 207.49 555.55 207.49"/>
          </g>
          <g>
            <polygon class="cls-4" points="100.98 206.49 100.98 101.51 138.89 101.51 138.89 174.38 176.15 174.38 176.15 206.49 100.98 206.49"/>
            <polygon class="cls-4" points="186.79 206.49 186.79 101.51 263.81 101.51 263.81 133.62 224.7 133.62 224.7 138.77 261.37 138.77 261.37 169.3 224.7 169.3 224.7 174.38 263.81 174.38 263.81 206.49 186.79 206.49"/>
            <path class="cls-4" d="m341.15,206.49l-4.94-18.89h-20.71l-4.94,18.89h-40.11l34.27-104.99h42.27l34.27,104.99h-40.11Zm-12.68-48.57l-2.61-9.99-2.61,9.99h5.22Z"/>
            <path class="cls-4" d="m441.97,206.49l-15.01-31.2h-1.01v31.2h-37.91v-104.99h47.79c27.15,0,42.72,13.67,42.72,37.52v.13c0,11.86-5.25,22.66-13.71,28.85l19.64,38.49h-42.51Zm-9.36-60.88c2.26,0,7.51-.65,7.51-6.65v-.13c0-4.14-2.88-6.72-7.51-6.72h-6.65v13.5h6.65Z"/>
            <polygon class="cls-4" points="554.55 206.49 527.89 167.59 527.89 206.49 489.98 206.49 489.98 101.51 520.84 101.51 547.25 139.72 547.25 101.51 585.16 101.51 585.16 206.49 554.55 206.49"/>
          </g>
          <g>
            <polygon class="cls-4" points="99.98 205.49 99.98 100.51 137.89 100.51 137.89 173.38 175.15 173.38 175.15 205.49 99.98 205.49"/>
            <polygon class="cls-4" points="185.79 205.49 185.79 100.51 262.81 100.51 262.81 132.62 223.7 132.62 223.7 137.77 260.37 137.77 260.37 168.3 223.7 168.3 223.7 173.38 262.81 173.38 262.81 205.49 185.79 205.49"/>
            <path class="cls-4" d="m340.15,205.49l-4.94-18.89h-20.71l-4.94,18.89h-40.11l34.27-104.99h42.27l34.27,104.99h-40.11Zm-12.68-48.57l-2.61-9.99-2.61,9.99h5.22Z"/>
            <path class="cls-4" d="m440.97,205.49l-15.01-31.2h-1.01v31.2h-37.91v-104.99h47.79c27.15,0,42.72,13.67,42.72,37.52v.13c0,11.86-5.25,22.66-13.71,28.85l19.64,38.49h-42.51Zm-9.36-60.88c2.26,0,7.51-.65,7.51-6.65v-.13c0-4.14-2.88-6.72-7.51-6.72h-6.65v13.5h6.65Z"/>
            <polygon class="cls-4" points="553.55 205.49 526.89 166.59 526.89 205.49 488.98 205.49 488.98 100.51 519.84 100.51 546.25 138.72 546.25 100.51 584.16 100.51 584.16 205.49 553.55 205.49"/>
          </g>
          <g>
            <polygon class="cls-4" points="98.98 204.49 98.98 99.51 136.89 99.51 136.89 172.38 174.15 172.38 174.15 204.49 98.98 204.49"/>
            <polygon class="cls-4" points="184.79 204.49 184.79 99.51 261.81 99.51 261.81 131.62 222.7 131.62 222.7 136.77 259.37 136.77 259.37 167.3 222.7 167.3 222.7 172.38 261.81 172.38 261.81 204.49 184.79 204.49"/>
            <path class="cls-4" d="m339.15,204.49l-4.94-18.89h-20.71l-4.94,18.89h-40.11l34.27-104.99h42.27l34.27,104.99h-40.11Zm-12.68-48.57l-2.61-9.99-2.61,9.99h5.22Z"/>
            <path class="cls-4" d="m439.97,204.49l-15.01-31.2h-1.01v31.2h-37.91v-104.99h47.79c27.15,0,42.72,13.67,42.72,37.52v.13c0,11.86-5.25,22.66-13.71,28.85l19.64,38.49h-42.51Zm-9.36-60.88c2.26,0,7.51-.65,7.51-6.65v-.13c0-4.14-2.88-6.72-7.51-6.72h-6.65v13.5h6.65Z"/>
            <polygon class="cls-4" points="552.55 204.49 525.89 165.59 525.89 204.49 487.98 204.49 487.98 99.51 518.84 99.51 545.25 137.72 545.25 99.51 583.16 99.51 583.16 204.49 552.55 204.49"/>
          </g>
          <g>
            <polygon class="cls-4" points="97.98 203.49 97.98 98.51 135.89 98.51 135.89 171.38 173.15 171.38 173.15 203.49 97.98 203.49"/>
            <polygon class="cls-4" points="183.79 203.49 183.79 98.51 260.81 98.51 260.81 130.62 221.7 130.62 221.7 135.77 258.37 135.77 258.37 166.3 221.7 166.3 221.7 171.38 260.81 171.38 260.81 203.49 183.79 203.49"/>
            <path class="cls-4" d="m338.15,203.49l-4.94-18.89h-20.71l-4.94,18.89h-40.11l34.27-104.99h42.27l34.27,104.99h-40.11Zm-12.68-48.57l-2.61-9.99-2.61,9.99h5.22Z"/>
            <path class="cls-4" d="m438.97,203.49l-15.01-31.2h-1.01v31.2h-37.91v-104.99h47.79c27.15,0,42.72,13.67,42.72,37.52v.13c0,11.86-5.25,22.66-13.71,28.85l19.64,38.49h-42.51Zm-9.36-60.88c2.26,0,7.51-.65,7.51-6.65v-.13c0-4.14-2.88-6.72-7.51-6.72h-6.65v13.5h6.65Z"/>
            <polygon class="cls-4" points="551.55 203.49 524.89 164.59 524.89 203.49 486.98 203.49 486.98 98.51 517.84 98.51 544.25 136.72 544.25 98.51 582.16 98.51 582.16 203.49 551.55 203.49"/>
          </g>
          <g>
            <polygon class="cls-4" points="96.98 202.49 96.98 97.51 134.89 97.51 134.89 170.38 172.15 170.38 172.15 202.49 96.98 202.49"/>
            <polygon class="cls-4" points="182.79 202.49 182.79 97.51 259.81 97.51 259.81 129.62 220.7 129.62 220.7 134.77 257.37 134.77 257.37 165.3 220.7 165.3 220.7 170.38 259.81 170.38 259.81 202.49 182.79 202.49"/>
            <path class="cls-4" d="m337.15,202.49l-4.94-18.89h-20.71l-4.94,18.89h-40.11l34.27-104.99h42.27l34.27,104.99h-40.11Zm-12.68-48.57l-2.61-9.99-2.61,9.99h5.22Z"/>
            <path class="cls-4" d="m437.97,202.49l-15.01-31.2h-1.01v31.2h-37.91v-104.99h47.79c27.15,0,42.72,13.67,42.72,37.52v.13c0,11.86-5.25,22.66-13.71,28.85l19.64,38.49h-42.51Zm-9.36-60.88c2.26,0,7.51-.65,7.51-6.65v-.13c0-4.14-2.88-6.72-7.51-6.72h-6.65v13.5h6.65Z"/>
            <polygon class="cls-4" points="550.55 202.49 523.89 163.59 523.89 202.49 485.98 202.49 485.98 97.51 516.84 97.51 543.25 135.72 543.25 97.51 581.16 97.51 581.16 202.49 550.55 202.49"/>
          </g>
          <g>
            <polygon class="cls-4" points="95.98 201.49 95.98 96.51 133.89 96.51 133.89 169.38 171.15 169.38 171.15 201.49 95.98 201.49"/>
            <polygon class="cls-4" points="181.79 201.49 181.79 96.51 258.81 96.51 258.81 128.62 219.7 128.62 219.7 133.77 256.37 133.77 256.37 164.3 219.7 164.3 219.7 169.38 258.81 169.38 258.81 201.49 181.79 201.49"/>
            <path class="cls-4" d="m336.15,201.49l-4.94-18.89h-20.71l-4.94,18.89h-40.11l34.27-104.99h42.27l34.27,104.99h-40.11Zm-12.68-48.57l-2.61-9.99-2.61,9.99h5.22Z"/>
            <path class="cls-4" d="m436.97,201.49l-15.01-31.2h-1.01v31.2h-37.91v-104.99h47.79c27.15,0,42.72,13.67,42.72,37.52v.13c0,11.86-5.25,22.66-13.71,28.85l19.64,38.49h-42.51Zm-9.36-60.88c2.26,0,7.51-.65,7.51-6.65v-.13c0-4.14-2.88-6.72-7.51-6.72h-6.65v13.5h6.65Z"/>
            <polygon class="cls-4" points="549.55 201.49 522.89 162.59 522.89 201.49 484.98 201.49 484.98 96.51 515.84 96.51 542.25 134.72 542.25 96.51 580.16 96.51 580.16 201.49 549.55 201.49"/>
          </g>
          <g>
            <polygon class="cls-4" points="94.98 200.49 94.98 95.51 132.89 95.51 132.89 168.38 170.15 168.38 170.15 200.49 94.98 200.49"/>
            <polygon class="cls-4" points="180.79 200.49 180.79 95.51 257.81 95.51 257.81 127.62 218.7 127.62 218.7 132.77 255.37 132.77 255.37 163.3 218.7 163.3 218.7 168.38 257.81 168.38 257.81 200.49 180.79 200.49"/>
            <path class="cls-4" d="m335.15,200.49l-4.94-18.89h-20.71l-4.94,18.89h-40.11l34.27-104.99h42.27l34.27,104.99h-40.11Zm-12.68-48.57l-2.61-9.99-2.61,9.99h5.22Z"/>
            <path class="cls-4" d="m435.97,200.49l-15.01-31.2h-1.01v31.2h-37.91v-104.99h47.79c27.15,0,42.72,13.67,42.72,37.52v.13c0,11.86-5.25,22.66-13.71,28.85l19.64,38.49h-42.51Zm-9.36-60.88c2.26,0,7.51-.65,7.51-6.65v-.13c0-4.14-2.88-6.72-7.51-6.72h-6.65v13.5h6.65Z"/>
            <polygon class="cls-4" points="548.55 200.49 521.89 161.59 521.89 200.49 483.98 200.49 483.98 95.51 514.84 95.51 541.25 133.72 541.25 95.51 579.16 95.51 579.16 200.49 548.55 200.49"/>
          </g>
          <g>
            <polygon class="cls-4" points="93.98 199.49 93.98 94.51 131.89 94.51 131.89 167.38 169.15 167.38 169.15 199.49 93.98 199.49"/>
            <polygon class="cls-4" points="179.79 199.49 179.79 94.51 256.81 94.51 256.81 126.62 217.7 126.62 217.7 131.77 254.37 131.77 254.37 162.3 217.7 162.3 217.7 167.38 256.81 167.38 256.81 199.49 179.79 199.49"/>
            <path class="cls-4" d="m334.15,199.49l-4.94-18.89h-20.71l-4.94,18.89h-40.11l34.27-104.99h42.27l34.27,104.99h-40.11Zm-12.68-48.57l-2.61-9.99-2.61,9.99h5.22Z"/>
            <path class="cls-4" d="m434.97,199.49l-15.01-31.2h-1.01v31.2h-37.91v-104.99h47.79c27.15,0,42.72,13.67,42.72,37.52v.13c0,11.86-5.25,22.66-13.71,28.85l19.64,38.49h-42.51Zm-9.36-60.88c2.26,0,7.51-.65,7.51-6.65v-.13c0-4.14-2.88-6.72-7.51-6.72h-6.65v13.5h6.65Z"/>
            <polygon class="cls-4" points="547.55 199.49 520.89 160.59 520.89 199.49 482.98 199.49 482.98 94.51 513.84 94.51 540.25 132.72 540.25 94.51 578.16 94.51 578.16 199.49 547.55 199.49"/>
          </g>
          <g>
            <polygon class="cls-4" points="92.98 198.49 92.98 93.51 130.89 93.51 130.89 166.38 168.15 166.38 168.15 198.49 92.98 198.49"/>
            <polygon class="cls-4" points="178.79 198.49 178.79 93.51 255.81 93.51 255.81 125.62 216.7 125.62 216.7 130.77 253.37 130.77 253.37 161.3 216.7 161.3 216.7 166.38 255.81 166.38 255.81 198.49 178.79 198.49"/>
            <path class="cls-4" d="m333.15,198.49l-4.94-18.89h-20.71l-4.94,18.89h-40.11l34.27-104.99h42.27l34.27,104.99h-40.11Zm-12.68-48.57l-2.61-9.99-2.61,9.99h5.22Z"/>
            <path class="cls-4" d="m433.97,198.49l-15.01-31.2h-1.01v31.2h-37.91v-104.99h47.79c27.15,0,42.72,13.67,42.72,37.52v.13c0,11.86-5.25,22.66-13.71,28.85l19.64,38.49h-42.51Zm-9.36-60.88c2.26,0,7.51-.65,7.51-6.65v-.13c0-4.14-2.88-6.72-7.51-6.72h-6.65v13.5h6.65Z"/>
            <polygon class="cls-4" points="546.55 198.49 519.89 159.59 519.89 198.49 481.98 198.49 481.98 93.51 512.84 93.51 539.25 131.72 539.25 93.51 577.16 93.51 577.16 198.49 546.55 198.49"/>
          </g>
          <g>
            <polygon class="cls-4" points="91.98 197.49 91.98 92.51 129.89 92.51 129.89 165.38 167.15 165.38 167.15 197.49 91.98 197.49"/>
            <polygon class="cls-4" points="177.79 197.49 177.79 92.51 254.81 92.51 254.81 124.62 215.7 124.62 215.7 129.77 252.37 129.77 252.37 160.3 215.7 160.3 215.7 165.38 254.81 165.38 254.81 197.49 177.79 197.49"/>
            <path class="cls-4" d="m332.15,197.49l-4.94-18.89h-20.71l-4.94,18.89h-40.11l34.27-104.99h42.27l34.27,104.99h-40.11Zm-12.68-48.57l-2.61-9.99-2.61,9.99h5.22Z"/>
            <path class="cls-4" d="m432.97,197.49l-15.01-31.2h-1.01v31.2h-37.91v-104.99h47.79c27.15,0,42.72,13.67,42.72,37.52v.13c0,11.86-5.25,22.66-13.71,28.85l19.64,38.49h-42.51Zm-9.36-60.88c2.26,0,7.51-.65,7.51-6.65v-.13c0-4.14-2.88-6.72-7.51-6.72h-6.65v13.5h6.65Z"/>
            <polygon class="cls-4" points="545.55 197.49 518.89 158.59 518.89 197.49 480.98 197.49 480.98 92.51 511.84 92.51 538.25 130.72 538.25 92.51 576.16 92.51 576.16 197.49 545.55 197.49"/>
          </g>
          <g>
            <polygon class="cls-4" points="90.98 196.49 90.98 91.51 128.89 91.51 128.89 164.38 166.15 164.38 166.15 196.49 90.98 196.49"/>
            <polygon class="cls-4" points="176.79 196.49 176.79 91.51 253.81 91.51 253.81 123.62 214.7 123.62 214.7 128.77 251.37 128.77 251.37 159.3 214.7 159.3 214.7 164.38 253.81 164.38 253.81 196.49 176.79 196.49"/>
            <path class="cls-4" d="m331.15,196.49l-4.94-18.89h-20.71l-4.94,18.89h-40.11l34.27-104.99h42.27l34.27,104.99h-40.11Zm-12.68-48.57l-2.61-9.99-2.61,9.99h5.22Z"/>
            <path class="cls-4" d="m431.97,196.49l-15.01-31.2h-1.01v31.2h-37.91v-104.99h47.79c27.15,0,42.72,13.67,42.72,37.52v.13c0,11.86-5.25,22.66-13.71,28.85l19.64,38.49h-42.51Zm-9.36-60.88c2.26,0,7.51-.65,7.51-6.65v-.13c0-4.14-2.88-6.72-7.51-6.72h-6.65v13.5h6.65Z"/>
            <polygon class="cls-4" points="544.55 196.49 517.89 157.59 517.89 196.49 479.98 196.49 479.98 91.51 510.84 91.51 537.25 129.72 537.25 91.51 575.16 91.51 575.16 196.49 544.55 196.49"/>
          </g>
          <g>
            <polygon class="cls-4" points="89.98 195.49 89.98 90.51 127.89 90.51 127.89 163.38 165.15 163.38 165.15 195.49 89.98 195.49"/>
            <polygon class="cls-4" points="175.79 195.49 175.79 90.51 252.81 90.51 252.81 122.62 213.7 122.62 213.7 127.77 250.37 127.77 250.37 158.3 213.7 158.3 213.7 163.38 252.81 163.38 252.81 195.49 175.79 195.49"/>
            <path class="cls-4" d="m330.15,195.49l-4.94-18.89h-20.71l-4.94,18.89h-40.11l34.27-104.99h42.27l34.27,104.99h-40.11Zm-12.68-48.57l-2.61-9.99-2.61,9.99h5.22Z"/>
            <path class="cls-4" d="m430.97,195.49l-15.01-31.2h-1.01v31.2h-37.91v-104.99h47.79c27.15,0,42.72,13.67,42.72,37.52v.13c0,11.86-5.25,22.66-13.71,28.85l19.64,38.49h-42.51Zm-9.36-60.88c2.26,0,7.51-.65,7.51-6.65v-.13c0-4.14-2.88-6.72-7.51-6.72h-6.65v13.5h6.65Z"/>
            <polygon class="cls-4" points="543.55 195.49 516.89 156.59 516.89 195.49 478.98 195.49 478.98 90.51 509.84 90.51 536.25 128.72 536.25 90.51 574.16 90.51 574.16 195.49 543.55 195.49"/>
          </g>
          <g>
            <polygon class="cls-4" points="88.98 194.49 88.98 89.51 126.89 89.51 126.89 162.38 164.15 162.38 164.15 194.49 88.98 194.49"/>
            <polygon class="cls-4" points="174.79 194.49 174.79 89.51 251.81 89.51 251.81 121.62 212.7 121.62 212.7 126.77 249.37 126.77 249.37 157.3 212.7 157.3 212.7 162.38 251.81 162.38 251.81 194.49 174.79 194.49"/>
            <path class="cls-4" d="m329.15,194.49l-4.94-18.89h-20.71l-4.94,18.89h-40.11l34.27-104.99h42.27l34.27,104.99h-40.11Zm-12.68-48.57l-2.61-9.99-2.61,9.99h5.22Z"/>
            <path class="cls-4" d="m429.97,194.49l-15.01-31.2h-1.01v31.2h-37.91v-104.99h47.79c27.15,0,42.72,13.67,42.72,37.52v.13c0,11.86-5.25,22.66-13.71,28.85l19.64,38.49h-42.51Zm-9.36-60.88c2.26,0,7.51-.65,7.51-6.65v-.13c0-4.14-2.88-6.72-7.51-6.72h-6.65v13.5h6.65Z"/>
            <polygon class="cls-4" points="542.55 194.49 515.89 155.59 515.89 194.49 477.98 194.49 477.98 89.51 508.84 89.51 535.25 127.72 535.25 89.51 573.16 89.51 573.16 194.49 542.55 194.49"/>
          </g>
          <g>
            <polygon class="cls-4" points="87.98 193.49 87.98 88.51 125.89 88.51 125.89 161.38 163.15 161.38 163.15 193.49 87.98 193.49"/>
            <polygon class="cls-4" points="173.79 193.49 173.79 88.51 250.81 88.51 250.81 120.62 211.7 120.62 211.7 125.77 248.37 125.77 248.37 156.3 211.7 156.3 211.7 161.38 250.81 161.38 250.81 193.49 173.79 193.49"/>
            <path class="cls-4" d="m328.15,193.49l-4.94-18.89h-20.71l-4.94,18.89h-40.11l34.27-104.99h42.27l34.27,104.99h-40.11Zm-12.68-48.57l-2.61-9.99-2.61,9.99h5.22Z"/>
            <path class="cls-4" d="m428.97,193.49l-15.01-31.2h-1.01v31.2h-37.91v-104.99h47.79c27.15,0,42.72,13.67,42.72,37.52v.13c0,11.86-5.25,22.66-13.71,28.85l19.64,38.49h-42.51Zm-9.36-60.88c2.26,0,7.51-.65,7.51-6.65v-.13c0-4.14-2.88-6.72-7.51-6.72h-6.65v13.5h6.65Z"/>
            <polygon class="cls-4" points="541.55 193.49 514.89 154.59 514.89 193.49 476.98 193.49 476.98 88.51 507.84 88.51 534.25 126.72 534.25 88.51 572.16 88.51 572.16 193.49 541.55 193.49"/>
          </g>
          <g>
            <polygon class="cls-4" points="86.98 192.49 86.98 87.51 124.89 87.51 124.89 160.38 162.15 160.38 162.15 192.49 86.98 192.49"/>
            <polygon class="cls-4" points="172.79 192.49 172.79 87.51 249.81 87.51 249.81 119.62 210.7 119.62 210.7 124.77 247.37 124.77 247.37 155.3 210.7 155.3 210.7 160.38 249.81 160.38 249.81 192.49 172.79 192.49"/>
            <path class="cls-4" d="m327.15,192.49l-4.94-18.89h-20.71l-4.94,18.89h-40.11l34.27-104.99h42.27l34.27,104.99h-40.11Zm-12.68-48.57l-2.61-9.99-2.61,9.99h5.22Z"/>
            <path class="cls-4" d="m427.97,192.49l-15.01-31.2h-1.01v31.2h-37.91v-104.99h47.79c27.15,0,42.72,13.67,42.72,37.52v.13c0,11.86-5.25,22.66-13.71,28.85l19.64,38.49h-42.51Zm-9.36-60.88c2.26,0,7.51-.65,7.51-6.65v-.13c0-4.14-2.88-6.72-7.51-6.72h-6.65v13.5h6.65Z"/>
            <polygon class="cls-4" points="540.55 192.49 513.89 153.59 513.89 192.49 475.98 192.49 475.98 87.51 506.84 87.51 533.25 125.72 533.25 87.51 571.16 87.51 571.16 192.49 540.55 192.49"/>
          </g>
          <g>
            <polygon class="cls-4" points="85.98 191.49 85.98 86.51 123.89 86.51 123.89 159.38 161.15 159.38 161.15 191.49 85.98 191.49"/>
            <polygon class="cls-4" points="171.79 191.49 171.79 86.51 248.81 86.51 248.81 118.62 209.7 118.62 209.7 123.77 246.37 123.77 246.37 154.3 209.7 154.3 209.7 159.38 248.81 159.38 248.81 191.49 171.79 191.49"/>
            <path class="cls-4" d="m326.15,191.49l-4.94-18.89h-20.71l-4.94,18.89h-40.11l34.27-104.99h42.27l34.27,104.99h-40.11Zm-12.68-48.57l-2.61-9.99-2.61,9.99h5.22Z"/>
            <path class="cls-4" d="m426.97,191.49l-15.01-31.2h-1.01v31.2h-37.91v-104.99h47.79c27.15,0,42.72,13.67,42.72,37.52v.13c0,11.86-5.25,22.66-13.71,28.85l19.64,38.49h-42.51Zm-9.36-60.88c2.26,0,7.51-.65,7.51-6.65v-.13c0-4.14-2.88-6.72-7.51-6.72h-6.65v13.5h6.65Z"/>
            <polygon class="cls-4" points="539.55 191.49 512.89 152.59 512.89 191.49 474.98 191.49 474.98 86.51 505.84 86.51 532.25 124.72 532.25 86.51 570.16 86.51 570.16 191.49 539.55 191.49"/>
          </g>
          <g>
            <polygon class="cls-4" points="84.98 190.49 84.98 85.51 122.89 85.51 122.89 158.38 160.15 158.38 160.15 190.49 84.98 190.49"/>
            <polygon class="cls-4" points="170.79 190.49 170.79 85.51 247.81 85.51 247.81 117.62 208.7 117.62 208.7 122.77 245.37 122.77 245.37 153.3 208.7 153.3 208.7 158.38 247.81 158.38 247.81 190.49 170.79 190.49"/>
            <path class="cls-4" d="m325.15,190.49l-4.94-18.89h-20.71l-4.94,18.89h-40.11l34.27-104.99h42.27l34.27,104.99h-40.11Zm-12.68-48.57l-2.61-9.99-2.61,9.99h5.22Z"/>
            <path class="cls-4" d="m425.97,190.49l-15.01-31.2h-1.01v31.2h-37.91v-104.99h47.79c27.15,0,42.72,13.67,42.72,37.52v.13c0,11.86-5.25,22.66-13.71,28.85l19.64,38.49h-42.51Zm-9.36-60.88c2.26,0,7.51-.65,7.51-6.65v-.13c0-4.14-2.88-6.72-7.51-6.72h-6.65v13.5h6.65Z"/>
            <polygon class="cls-4" points="538.55 190.49 511.89 151.59 511.89 190.49 473.98 190.49 473.98 85.51 504.84 85.51 531.25 123.72 531.25 85.51 569.16 85.51 569.16 190.49 538.55 190.49"/>
          </g>
          <g>
            <polygon class="cls-4" points="83.98 189.49 83.98 84.51 121.89 84.51 121.89 157.38 159.15 157.38 159.15 189.49 83.98 189.49"/>
            <polygon class="cls-4" points="169.79 189.49 169.79 84.51 246.81 84.51 246.81 116.62 207.7 116.62 207.7 121.77 244.37 121.77 244.37 152.3 207.7 152.3 207.7 157.38 246.81 157.38 246.81 189.49 169.79 189.49"/>
            <path class="cls-4" d="m324.15,189.49l-4.94-18.89h-20.71l-4.94,18.89h-40.11l34.27-104.99h42.27l34.27,104.99h-40.11Zm-12.68-48.57l-2.61-9.99-2.61,9.99h5.22Z"/>
            <path class="cls-4" d="m424.97,189.49l-15.01-31.2h-1.01v31.2h-37.91v-104.99h47.79c27.15,0,42.72,13.67,42.72,37.52v.13c0,11.86-5.25,22.66-13.71,28.85l19.64,38.49h-42.51Zm-9.36-60.88c2.26,0,7.51-.65,7.51-6.65v-.13c0-4.14-2.88-6.72-7.51-6.72h-6.65v13.5h6.65Z"/>
            <polygon class="cls-4" points="537.55 189.49 510.89 150.59 510.89 189.49 472.98 189.49 472.98 84.51 503.84 84.51 530.25 122.72 530.25 84.51 568.16 84.51 568.16 189.49 537.55 189.49"/>
          </g>
          <g>
            <polygon class="cls-4" points="82.98 188.49 82.98 83.51 120.89 83.51 120.89 156.38 158.15 156.38 158.15 188.49 82.98 188.49"/>
            <polygon class="cls-4" points="168.79 188.49 168.79 83.51 245.81 83.51 245.81 115.62 206.7 115.62 206.7 120.77 243.37 120.77 243.37 151.3 206.7 151.3 206.7 156.38 245.81 156.38 245.81 188.49 168.79 188.49"/>
            <path class="cls-4" d="m323.15,188.49l-4.94-18.89h-20.71l-4.94,18.89h-40.11l34.27-104.99h42.27l34.27,104.99h-40.11Zm-12.68-48.57l-2.61-9.99-2.61,9.99h5.22Z"/>
            <path class="cls-4" d="m423.97,188.49l-15.01-31.2h-1.01v31.2h-37.91v-104.99h47.79c27.15,0,42.72,13.67,42.72,37.52v.13c0,11.86-5.25,22.66-13.71,28.85l19.64,38.49h-42.51Zm-9.36-60.88c2.26,0,7.51-.65,7.51-6.65v-.13c0-4.14-2.88-6.72-7.51-6.72h-6.65v13.5h6.65Z"/>
            <polygon class="cls-4" points="536.55 188.49 509.89 149.59 509.89 188.49 471.98 188.49 471.98 83.51 502.84 83.51 529.25 121.72 529.25 83.51 567.16 83.51 567.16 188.49 536.55 188.49"/>
          </g>
          <g>
            <polygon class="cls-4" points="81.98 187.49 81.98 82.51 119.89 82.51 119.89 155.38 157.15 155.38 157.15 187.49 81.98 187.49"/>
            <polygon class="cls-4" points="167.79 187.49 167.79 82.51 244.81 82.51 244.81 114.62 205.7 114.62 205.7 119.77 242.37 119.77 242.37 150.3 205.7 150.3 205.7 155.38 244.81 155.38 244.81 187.49 167.79 187.49"/>
            <path class="cls-4" d="m322.15,187.49l-4.94-18.89h-20.71l-4.94,18.89h-40.11l34.27-104.99h42.27l34.27,104.99h-40.11Zm-12.68-48.57l-2.61-9.99-2.61,9.99h5.22Z"/>
            <path class="cls-4" d="m422.97,187.49l-15.01-31.2h-1.01v31.2h-37.91v-104.99h47.79c27.15,0,42.72,13.67,42.72,37.52v.13c0,11.86-5.25,22.66-13.71,28.85l19.64,38.49h-42.51Zm-9.36-60.88c2.26,0,7.51-.65,7.51-6.65v-.13c0-4.14-2.88-6.72-7.51-6.72h-6.65v13.5h6.65Z"/>
            <polygon class="cls-4" points="535.55 187.49 508.89 148.59 508.89 187.49 470.98 187.49 470.98 82.51 501.84 82.51 528.25 120.72 528.25 82.51 566.16 82.51 566.16 187.49 535.55 187.49"/>
          </g>
          <g>
            <polygon class="cls-4" points="80.98 186.49 80.98 81.51 118.89 81.51 118.89 154.38 156.15 154.38 156.15 186.49 80.98 186.49"/>
            <polygon class="cls-4" points="166.79 186.49 166.79 81.51 243.81 81.51 243.81 113.62 204.7 113.62 204.7 118.77 241.37 118.77 241.37 149.3 204.7 149.3 204.7 154.38 243.81 154.38 243.81 186.49 166.79 186.49"/>
            <path class="cls-4" d="m321.15,186.49l-4.94-18.89h-20.71l-4.94,18.89h-40.11l34.27-104.99h42.27l34.27,104.99h-40.11Zm-12.68-48.57l-2.61-9.99-2.61,9.99h5.22Z"/>
            <path class="cls-4" d="m421.97,186.49l-15.01-31.2h-1.01v31.2h-37.91v-104.99h47.79c27.15,0,42.72,13.67,42.72,37.52v.13c0,11.86-5.25,22.66-13.71,28.85l19.64,38.49h-42.51Zm-9.36-60.88c2.26,0,7.51-.65,7.51-6.65v-.13c0-4.14-2.88-6.72-7.51-6.72h-6.65v13.5h6.65Z"/>
            <polygon class="cls-4" points="534.55 186.49 507.89 147.59 507.89 186.49 469.98 186.49 469.98 81.51 500.84 81.51 527.25 119.72 527.25 81.51 565.16 81.51 565.16 186.49 534.55 186.49"/>
          </g>
          <g>
            <polygon class="cls-4" points="79.98 185.49 79.98 80.51 117.89 80.51 117.89 153.38 155.15 153.38 155.15 185.49 79.98 185.49"/>
            <polygon class="cls-4" points="165.79 185.49 165.79 80.51 242.81 80.51 242.81 112.62 203.7 112.62 203.7 117.77 240.37 117.77 240.37 148.3 203.7 148.3 203.7 153.38 242.81 153.38 242.81 185.49 165.79 185.49"/>
            <path class="cls-4" d="m320.15,185.49l-4.94-18.89h-20.71l-4.94,18.89h-40.11l34.27-104.99h42.27l34.27,104.99h-40.11Zm-12.68-48.57l-2.61-9.99-2.61,9.99h5.22Z"/>
            <path class="cls-4" d="m420.97,185.49l-15.01-31.2h-1.01v31.2h-37.91v-104.99h47.79c27.15,0,42.72,13.67,42.72,37.52v.13c0,11.86-5.25,22.66-13.71,28.85l19.64,38.49h-42.51Zm-9.36-60.88c2.26,0,7.51-.65,7.51-6.65v-.13c0-4.14-2.88-6.72-7.51-6.72h-6.65v13.5h6.65Z"/>
            <polygon class="cls-4" points="533.55 185.49 506.89 146.59 506.89 185.49 468.98 185.49 468.98 80.51 499.84 80.51 526.25 118.72 526.25 80.51 564.16 80.51 564.16 185.49 533.55 185.49"/>
          </g>
          <g>
            <polygon class="cls-4" points="78.98 184.49 78.98 79.51 116.89 79.51 116.89 152.38 154.15 152.38 154.15 184.49 78.98 184.49"/>
            <polygon class="cls-4" points="164.79 184.49 164.79 79.51 241.81 79.51 241.81 111.62 202.7 111.62 202.7 116.77 239.37 116.77 239.37 147.3 202.7 147.3 202.7 152.38 241.81 152.38 241.81 184.49 164.79 184.49"/>
            <path class="cls-4" d="m319.15,184.49l-4.94-18.89h-20.71l-4.94,18.89h-40.11l34.27-104.99h42.27l34.27,104.99h-40.11Zm-12.68-48.57l-2.61-9.99-2.61,9.99h5.22Z"/>
            <path class="cls-4" d="m419.97,184.49l-15.01-31.2h-1.01v31.2h-37.91v-104.99h47.79c27.15,0,42.72,13.67,42.72,37.52v.13c0,11.86-5.25,22.66-13.71,28.85l19.64,38.49h-42.51Zm-9.36-60.88c2.26,0,7.51-.65,7.51-6.65v-.13c0-4.14-2.88-6.72-7.51-6.72h-6.65v13.5h6.65Z"/>
            <polygon class="cls-4" points="532.55 184.49 505.89 145.59 505.89 184.49 467.98 184.49 467.98 79.51 498.84 79.51 525.25 117.72 525.25 79.51 563.16 79.51 563.16 184.49 532.55 184.49"/>
          </g>
          <g>
            <polygon class="cls-4" points="77.98 183.49 77.98 78.51 115.89 78.51 115.89 151.38 153.15 151.38 153.15 183.49 77.98 183.49"/>
            <polygon class="cls-4" points="163.79 183.49 163.79 78.51 240.81 78.51 240.81 110.62 201.7 110.62 201.7 115.77 238.37 115.77 238.37 146.3 201.7 146.3 201.7 151.38 240.81 151.38 240.81 183.49 163.79 183.49"/>
            <path class="cls-4" d="m318.15,183.49l-4.94-18.89h-20.71l-4.94,18.89h-40.11l34.27-104.99h42.27l34.27,104.99h-40.11Zm-12.68-48.57l-2.61-9.99-2.61,9.99h5.22Z"/>
            <path class="cls-4" d="m418.97,183.49l-15.01-31.2h-1.01v31.2h-37.91v-104.99h47.79c27.15,0,42.72,13.67,42.72,37.52v.13c0,11.86-5.25,22.66-13.71,28.85l19.64,38.49h-42.51Zm-9.36-60.88c2.26,0,7.51-.65,7.51-6.65v-.13c0-4.14-2.88-6.72-7.51-6.72h-6.65v13.5h6.65Z"/>
            <polygon class="cls-4" points="531.55 183.49 504.89 144.59 504.89 183.49 466.98 183.49 466.98 78.51 497.84 78.51 524.25 116.72 524.25 78.51 562.16 78.51 562.16 183.49 531.55 183.49"/>
          </g>
          <g>
            <polygon class="cls-4" points="76.98 182.49 76.98 77.51 114.89 77.51 114.89 150.38 152.15 150.38 152.15 182.49 76.98 182.49"/>
            <polygon class="cls-4" points="162.79 182.49 162.79 77.51 239.81 77.51 239.81 109.62 200.7 109.62 200.7 114.77 237.37 114.77 237.37 145.3 200.7 145.3 200.7 150.38 239.81 150.38 239.81 182.49 162.79 182.49"/>
            <path class="cls-4" d="m317.15,182.49l-4.94-18.89h-20.71l-4.94,18.89h-40.11l34.27-104.99h42.27l34.27,104.99h-40.11Zm-12.68-48.57l-2.61-9.99-2.61,9.99h5.22Z"/>
            <path class="cls-4" d="m417.97,182.49l-15.01-31.2h-1.01v31.2h-37.91v-104.99h47.79c27.15,0,42.72,13.67,42.72,37.52v.13c0,11.86-5.25,22.66-13.71,28.85l19.64,38.49h-42.51Zm-9.36-60.88c2.26,0,7.51-.65,7.51-6.65v-.13c0-4.14-2.88-6.72-7.51-6.72h-6.65v13.5h6.65Z"/>
            <polygon class="cls-4" points="530.55 182.49 503.89 143.59 503.89 182.49 465.98 182.49 465.98 77.51 496.84 77.51 523.25 115.72 523.25 77.51 561.16 77.51 561.16 182.49 530.55 182.49"/>
          </g>
          <g>
            <polygon class="cls-4" points="75.98 181.49 75.98 76.51 113.89 76.51 113.89 149.38 151.15 149.38 151.15 181.49 75.98 181.49"/>
            <polygon class="cls-4" points="161.79 181.49 161.79 76.51 238.81 76.51 238.81 108.62 199.7 108.62 199.7 113.77 236.37 113.77 236.37 144.3 199.7 144.3 199.7 149.38 238.81 149.38 238.81 181.49 161.79 181.49"/>
            <path class="cls-4" d="m316.15,181.49l-4.94-18.89h-20.71l-4.94,18.89h-40.11l34.27-104.99h42.27l34.27,104.99h-40.11Zm-12.68-48.57l-2.61-9.99-2.61,9.99h5.22Z"/>
            <path class="cls-4" d="m416.97,181.49l-15.01-31.2h-1.01v31.2h-37.91v-104.99h47.79c27.15,0,42.72,13.67,42.72,37.52v.13c0,11.86-5.25,22.66-13.71,28.85l19.64,38.49h-42.51Zm-9.36-60.88c2.26,0,7.51-.65,7.51-6.65v-.13c0-4.14-2.88-6.72-7.51-6.72h-6.65v13.5h6.65Z"/>
            <polygon class="cls-4" points="529.55 181.49 502.89 142.59 502.89 181.49 464.98 181.49 464.98 76.51 495.84 76.51 522.25 114.72 522.25 76.51 560.16 76.51 560.16 181.49 529.55 181.49"/>
          </g>
          <g>
            <polygon class="cls-4" points="74.98 180.49 74.98 75.51 112.89 75.51 112.89 148.38 150.15 148.38 150.15 180.49 74.98 180.49"/>
            <polygon class="cls-4" points="160.79 180.49 160.79 75.51 237.81 75.51 237.81 107.62 198.7 107.62 198.7 112.77 235.37 112.77 235.37 143.3 198.7 143.3 198.7 148.38 237.81 148.38 237.81 180.49 160.79 180.49"/>
            <path class="cls-4" d="m315.15,180.49l-4.94-18.89h-20.71l-4.94,18.89h-40.11l34.27-104.99h42.27l34.27,104.99h-40.11Zm-12.68-48.57l-2.61-9.99-2.61,9.99h5.22Z"/>
            <path class="cls-4" d="m415.97,180.49l-15.01-31.2h-1.01v31.2h-37.91v-104.99h47.79c27.15,0,42.72,13.67,42.72,37.52v.13c0,11.86-5.25,22.66-13.71,28.85l19.64,38.49h-42.51Zm-9.36-60.88c2.26,0,7.51-.65,7.51-6.65v-.13c0-4.14-2.88-6.72-7.51-6.72h-6.65v13.5h6.65Z"/>
            <polygon class="cls-4" points="528.55 180.49 501.89 141.59 501.89 180.49 463.98 180.49 463.98 75.51 494.84 75.51 521.25 113.72 521.25 75.51 559.16 75.51 559.16 180.49 528.55 180.49"/>
          </g>
          <g>
            <polygon class="cls-4" points="73.98 179.49 73.98 74.51 111.89 74.51 111.89 147.38 149.15 147.38 149.15 179.49 73.98 179.49"/>
            <polygon class="cls-4" points="159.79 179.49 159.79 74.51 236.81 74.51 236.81 106.62 197.7 106.62 197.7 111.77 234.37 111.77 234.37 142.3 197.7 142.3 197.7 147.38 236.81 147.38 236.81 179.49 159.79 179.49"/>
            <path class="cls-4" d="m314.15,179.49l-4.94-18.89h-20.71l-4.94,18.89h-40.11l34.27-104.99h42.27l34.27,104.99h-40.11Zm-12.68-48.57l-2.61-9.99-2.61,9.99h5.22Z"/>
            <path class="cls-4" d="m414.97,179.49l-15.01-31.2h-1.01v31.2h-37.91v-104.99h47.79c27.15,0,42.72,13.67,42.72,37.52v.13c0,11.86-5.25,22.66-13.71,28.85l19.64,38.49h-42.51Zm-9.36-60.88c2.26,0,7.51-.65,7.51-6.65v-.13c0-4.14-2.88-6.72-7.51-6.72h-6.65v13.5h6.65Z"/>
            <polygon class="cls-4" points="527.55 179.49 500.89 140.59 500.89 179.49 462.98 179.49 462.98 74.51 493.84 74.51 520.25 112.72 520.25 74.51 558.16 74.51 558.16 179.49 527.55 179.49"/>
          </g>
          <g>
            <polygon class="cls-4" points="72.98 178.49 72.98 73.51 110.89 73.51 110.89 146.38 148.15 146.38 148.15 178.49 72.98 178.49"/>
            <polygon class="cls-4" points="158.79 178.49 158.79 73.51 235.81 73.51 235.81 105.62 196.7 105.62 196.7 110.77 233.37 110.77 233.37 141.3 196.7 141.3 196.7 146.38 235.81 146.38 235.81 178.49 158.79 178.49"/>
            <path class="cls-4" d="m313.15,178.49l-4.94-18.89h-20.71l-4.94,18.89h-40.11l34.27-104.99h42.27l34.27,104.99h-40.11Zm-12.68-48.57l-2.61-9.99-2.61,9.99h5.22Z"/>
            <path class="cls-4" d="m413.97,178.49l-15.01-31.2h-1.01v31.2h-37.91v-104.99h47.79c27.15,0,42.72,13.67,42.72,37.52v.13c0,11.86-5.25,22.66-13.71,28.85l19.64,38.49h-42.51Zm-9.36-60.88c2.26,0,7.51-.65,7.51-6.65v-.13c0-4.14-2.88-6.72-7.51-6.72h-6.65v13.5h6.65Z"/>
            <polygon class="cls-4" points="526.55 178.49 499.89 139.59 499.89 178.49 461.98 178.49 461.98 73.51 492.84 73.51 519.25 111.72 519.25 73.51 557.16 73.51 557.16 178.49 526.55 178.49"/>
          </g>
          <g>
            <polygon class="cls-4" points="71.98 177.49 71.98 72.51 109.89 72.51 109.89 145.38 147.15 145.38 147.15 177.49 71.98 177.49"/>
            <polygon class="cls-4" points="157.79 177.49 157.79 72.51 234.81 72.51 234.81 104.62 195.7 104.62 195.7 109.77 232.37 109.77 232.37 140.3 195.7 140.3 195.7 145.38 234.81 145.38 234.81 177.49 157.79 177.49"/>
            <path class="cls-4" d="m312.15,177.49l-4.94-18.89h-20.71l-4.94,18.89h-40.11l34.27-104.99h42.27l34.27,104.99h-40.11Zm-12.68-48.57l-2.61-9.99-2.61,9.99h5.22Z"/>
            <path class="cls-4" d="m412.97,177.49l-15.01-31.2h-1.01v31.2h-37.91v-104.99h47.79c27.15,0,42.72,13.67,42.72,37.52v.13c0,11.86-5.25,22.66-13.71,28.85l19.64,38.49h-42.51Zm-9.36-60.88c2.26,0,7.51-.65,7.51-6.65v-.13c0-4.14-2.88-6.72-7.51-6.72h-6.65v13.5h6.65Z"/>
            <polygon class="cls-4" points="525.55 177.49 498.89 138.59 498.89 177.49 460.98 177.49 460.98 72.51 491.84 72.51 518.25 110.72 518.25 72.51 556.16 72.51 556.16 177.49 525.55 177.49"/>
          </g>
          <g>
            <polygon class="cls-4" points="70.98 176.49 70.98 71.51 108.89 71.51 108.89 144.38 146.15 144.38 146.15 176.49 70.98 176.49"/>
            <polygon class="cls-4" points="156.79 176.49 156.79 71.51 233.81 71.51 233.81 103.62 194.7 103.62 194.7 108.77 231.37 108.77 231.37 139.3 194.7 139.3 194.7 144.38 233.81 144.38 233.81 176.49 156.79 176.49"/>
            <path class="cls-4" d="m311.15,176.49l-4.94-18.89h-20.71l-4.94,18.89h-40.11l34.27-104.99h42.27l34.27,104.99h-40.11Zm-12.68-48.57l-2.61-9.99-2.61,9.99h5.22Z"/>
            <path class="cls-4" d="m411.97,176.49l-15.01-31.2h-1.01v31.2h-37.91v-104.99h47.79c27.15,0,42.72,13.67,42.72,37.52v.13c0,11.86-5.25,22.66-13.71,28.85l19.64,38.49h-42.51Zm-9.36-60.88c2.26,0,7.51-.65,7.51-6.65v-.13c0-4.14-2.88-6.72-7.51-6.72h-6.65v13.5h6.65Z"/>
            <polygon class="cls-4" points="524.55 176.49 497.89 137.59 497.89 176.49 459.98 176.49 459.98 71.51 490.84 71.51 517.25 109.72 517.25 71.51 555.16 71.51 555.16 176.49 524.55 176.49"/>
          </g>
          <g>
            <polygon class="cls-4" points="69.98 175.49 69.98 70.51 107.89 70.51 107.89 143.38 145.15 143.38 145.15 175.49 69.98 175.49"/>
            <polygon class="cls-4" points="155.79 175.49 155.79 70.51 232.81 70.51 232.81 102.62 193.7 102.62 193.7 107.77 230.37 107.77 230.37 138.3 193.7 138.3 193.7 143.38 232.81 143.38 232.81 175.49 155.79 175.49"/>
            <path class="cls-4" d="m310.15,175.49l-4.94-18.89h-20.71l-4.94,18.89h-40.11l34.27-104.99h42.27l34.27,104.99h-40.11Zm-12.68-48.57l-2.61-9.99-2.61,9.99h5.22Z"/>
            <path class="cls-4" d="m410.97,175.49l-15.01-31.2h-1.01v31.2h-37.91v-104.99h47.79c27.15,0,42.72,13.67,42.72,37.52v.13c0,11.86-5.25,22.66-13.71,28.85l19.64,38.49h-42.51Zm-9.36-60.88c2.26,0,7.51-.65,7.51-6.65v-.13c0-4.14-2.88-6.72-7.51-6.72h-6.65v13.5h6.65Z"/>
            <polygon class="cls-4" points="523.55 175.49 496.89 136.59 496.89 175.49 458.98 175.49 458.98 70.51 489.84 70.51 516.25 108.72 516.25 70.51 554.16 70.51 554.16 175.49 523.55 175.49"/>
          </g>
          <g>
            <polygon class="cls-4" points="68.98 174.49 68.98 69.51 106.89 69.51 106.89 142.38 144.15 142.38 144.15 174.49 68.98 174.49"/>
            <polygon class="cls-4" points="154.79 174.49 154.79 69.51 231.81 69.51 231.81 101.62 192.7 101.62 192.7 106.77 229.37 106.77 229.37 137.3 192.7 137.3 192.7 142.38 231.81 142.38 231.81 174.49 154.79 174.49"/>
            <path class="cls-4" d="m309.15,174.49l-4.94-18.89h-20.71l-4.94,18.89h-40.11l34.27-104.99h42.27l34.27,104.99h-40.11Zm-12.68-48.57l-2.61-9.99-2.61,9.99h5.22Z"/>
            <path class="cls-4" d="m409.97,174.49l-15.01-31.2h-1.01v31.2h-37.91v-104.99h47.79c27.15,0,42.72,13.67,42.72,37.52v.13c0,11.86-5.25,22.66-13.71,28.85l19.64,38.49h-42.51Zm-9.36-60.88c2.26,0,7.51-.65,7.51-6.65v-.13c0-4.14-2.88-6.72-7.51-6.72h-6.65v13.5h6.65Z"/>
            <polygon class="cls-4" points="522.55 174.49 495.89 135.59 495.89 174.49 457.98 174.49 457.98 69.51 488.84 69.51 515.25 107.72 515.25 69.51 553.16 69.51 553.16 174.49 522.55 174.49"/>
          </g>
          <g>
            <polygon class="cls-4" points="67.98 173.49 67.98 68.51 105.89 68.51 105.89 141.38 143.15 141.38 143.15 173.49 67.98 173.49"/>
            <polygon class="cls-4" points="153.79 173.49 153.79 68.51 230.81 68.51 230.81 100.62 191.7 100.62 191.7 105.77 228.37 105.77 228.37 136.3 191.7 136.3 191.7 141.38 230.81 141.38 230.81 173.49 153.79 173.49"/>
            <path class="cls-4" d="m308.15,173.49l-4.94-18.89h-20.71l-4.94,18.89h-40.11l34.27-104.99h42.27l34.27,104.99h-40.11Zm-12.68-48.57l-2.61-9.99-2.61,9.99h5.22Z"/>
            <path class="cls-4" d="m408.97,173.49l-15.01-31.2h-1.01v31.2h-37.91v-104.99h47.79c27.15,0,42.72,13.67,42.72,37.52v.13c0,11.86-5.25,22.66-13.71,28.85l19.64,38.49h-42.51Zm-9.36-60.88c2.26,0,7.51-.65,7.51-6.65v-.13c0-4.14-2.88-6.72-7.51-6.72h-6.65v13.5h6.65Z"/>
            <polygon class="cls-4" points="521.55 173.49 494.89 134.59 494.89 173.49 456.98 173.49 456.98 68.51 487.84 68.51 514.25 106.72 514.25 68.51 552.16 68.51 552.16 173.49 521.55 173.49"/>
          </g>
          <g>
            <polygon class="cls-4" points="66.98 172.49 66.98 67.51 104.89 67.51 104.89 140.38 142.15 140.38 142.15 172.49 66.98 172.49"/>
            <polygon class="cls-4" points="152.79 172.49 152.79 67.51 229.81 67.51 229.81 99.62 190.7 99.62 190.7 104.77 227.37 104.77 227.37 135.3 190.7 135.3 190.7 140.38 229.81 140.38 229.81 172.49 152.79 172.49"/>
            <path class="cls-4" d="m307.15,172.49l-4.94-18.89h-20.71l-4.94,18.89h-40.11l34.27-104.99h42.27l34.27,104.99h-40.11Zm-12.68-48.57l-2.61-9.99-2.61,9.99h5.22Z"/>
            <path class="cls-4" d="m407.97,172.49l-15.01-31.2h-1.01v31.2h-37.91v-104.99h47.79c27.15,0,42.72,13.67,42.72,37.52v.13c0,11.86-5.25,22.66-13.71,28.85l19.64,38.49h-42.51Zm-9.36-60.88c2.26,0,7.51-.65,7.51-6.65v-.13c0-4.14-2.88-6.72-7.51-6.72h-6.65v13.5h6.65Z"/>
            <polygon class="cls-4" points="520.55 172.49 493.89 133.59 493.89 172.49 455.98 172.49 455.98 67.51 486.84 67.51 513.25 105.72 513.25 67.51 551.16 67.51 551.16 172.49 520.55 172.49"/>
          </g>
          <g>
            <polygon class="cls-4" points="65.98 171.49 65.98 66.51 103.89 66.51 103.89 139.38 141.15 139.38 141.15 171.49 65.98 171.49"/>
            <polygon class="cls-4" points="151.79 171.49 151.79 66.51 228.81 66.51 228.81 98.62 189.7 98.62 189.7 103.77 226.37 103.77 226.37 134.3 189.7 134.3 189.7 139.38 228.81 139.38 228.81 171.49 151.79 171.49"/>
            <path class="cls-4" d="m306.15,171.49l-4.94-18.89h-20.71l-4.94,18.89h-40.11l34.27-104.99h42.27l34.27,104.99h-40.11Zm-12.68-48.57l-2.61-9.99-2.61,9.99h5.22Z"/>
            <path class="cls-4" d="m406.97,171.49l-15.01-31.2h-1.01v31.2h-37.91v-104.99h47.79c27.15,0,42.72,13.67,42.72,37.52v.13c0,11.86-5.25,22.66-13.71,28.85l19.64,38.49h-42.51Zm-9.36-60.88c2.26,0,7.51-.65,7.51-6.65v-.13c0-4.14-2.88-6.72-7.51-6.72h-6.65v13.5h6.65Z"/>
            <polygon class="cls-4" points="519.55 171.49 492.89 132.59 492.89 171.49 454.98 171.49 454.98 66.51 485.84 66.51 512.25 104.72 512.25 66.51 550.16 66.51 550.16 171.49 519.55 171.49"/>
          </g>
          <g>
            <polygon class="cls-4" points="64.98 170.49 64.98 65.51 102.89 65.51 102.89 138.38 140.15 138.38 140.15 170.49 64.98 170.49"/>
            <polygon class="cls-4" points="150.79 170.49 150.79 65.51 227.81 65.51 227.81 97.62 188.7 97.62 188.7 102.77 225.37 102.77 225.37 133.3 188.7 133.3 188.7 138.38 227.81 138.38 227.81 170.49 150.79 170.49"/>
            <path class="cls-4" d="m305.15,170.49l-4.94-18.89h-20.71l-4.94,18.89h-40.11l34.27-104.99h42.27l34.27,104.99h-40.11Zm-12.68-48.57l-2.61-9.99-2.61,9.99h5.22Z"/>
            <path class="cls-4" d="m405.97,170.49l-15.01-31.2h-1.01v31.2h-37.91v-104.99h47.79c27.15,0,42.72,13.67,42.72,37.52v.13c0,11.86-5.25,22.66-13.71,28.85l19.64,38.49h-42.51Zm-9.36-60.88c2.26,0,7.51-.65,7.51-6.65v-.13c0-4.14-2.88-6.72-7.51-6.72h-6.65v13.5h6.65Z"/>
            <polygon class="cls-4" points="518.55 170.49 491.89 131.59 491.89 170.49 453.98 170.49 453.98 65.51 484.84 65.51 511.25 103.72 511.25 65.51 549.16 65.51 549.16 170.49 518.55 170.49"/>
          </g>
          <g>
            <polygon class="cls-4" points="63.98 169.49 63.98 64.51 101.89 64.51 101.89 137.38 139.15 137.38 139.15 169.49 63.98 169.49"/>
            <polygon class="cls-4" points="149.79 169.49 149.79 64.51 226.81 64.51 226.81 96.62 187.7 96.62 187.7 101.77 224.37 101.77 224.37 132.3 187.7 132.3 187.7 137.38 226.81 137.38 226.81 169.49 149.79 169.49"/>
            <path class="cls-4" d="m304.15,169.49l-4.94-18.89h-20.71l-4.94,18.89h-40.11l34.27-104.99h42.27l34.27,104.99h-40.11Zm-12.68-48.57l-2.61-9.99-2.61,9.99h5.22Z"/>
            <path class="cls-4" d="m404.97,169.49l-15.01-31.2h-1.01v31.2h-37.91v-104.99h47.79c27.15,0,42.72,13.67,42.72,37.52v.13c0,11.86-5.25,22.66-13.71,28.85l19.64,38.49h-42.51Zm-9.36-60.88c2.26,0,7.51-.65,7.51-6.65v-.13c0-4.14-2.88-6.72-7.51-6.72h-6.65v13.5h6.65Z"/>
            <polygon class="cls-4" points="517.55 169.49 490.89 130.59 490.89 169.49 452.98 169.49 452.98 64.51 483.84 64.51 510.25 102.72 510.25 64.51 548.16 64.51 548.16 169.49 517.55 169.49"/>
          </g>
          <g>
            <polygon class="cls-4" points="62.98 168.49 62.98 63.51 100.89 63.51 100.89 136.38 138.15 136.38 138.15 168.49 62.98 168.49"/>
            <polygon class="cls-4" points="148.79 168.49 148.79 63.51 225.81 63.51 225.81 95.62 186.7 95.62 186.7 100.77 223.37 100.77 223.37 131.3 186.7 131.3 186.7 136.38 225.81 136.38 225.81 168.49 148.79 168.49"/>
            <path class="cls-4" d="m303.15,168.49l-4.94-18.89h-20.71l-4.94,18.89h-40.11l34.27-104.99h42.27l34.27,104.99h-40.11Zm-12.68-48.57l-2.61-9.99-2.61,9.99h5.22Z"/>
            <path class="cls-4" d="m403.97,168.49l-15.01-31.2h-1.01v31.2h-37.91V63.51h47.79c27.15,0,42.72,13.67,42.72,37.52v.13c0,11.86-5.25,22.66-13.71,28.85l19.64,38.49h-42.51Zm-9.36-60.88c2.26,0,7.51-.65,7.51-6.65v-.13c0-4.14-2.88-6.72-7.51-6.72h-6.65v13.5h6.65Z"/>
            <polygon class="cls-4" points="516.55 168.49 489.89 129.59 489.89 168.49 451.98 168.49 451.98 63.51 482.84 63.51 509.25 101.72 509.25 63.51 547.16 63.51 547.16 168.49 516.55 168.49"/>
          </g>
          <g>
            <polygon class="cls-4" points="61.98 167.49 61.98 62.51 99.89 62.51 99.89 135.38 137.15 135.38 137.15 167.49 61.98 167.49"/>
            <polygon class="cls-4" points="147.79 167.49 147.79 62.51 224.81 62.51 224.81 94.62 185.7 94.62 185.7 99.77 222.37 99.77 222.37 130.3 185.7 130.3 185.7 135.38 224.81 135.38 224.81 167.49 147.79 167.49"/>
            <path class="cls-4" d="m302.15,167.49l-4.94-18.89h-20.71l-4.94,18.89h-40.11l34.27-104.99h42.27l34.27,104.99h-40.11Zm-12.68-48.57l-2.61-9.99-2.61,9.99h5.22Z"/>
            <path class="cls-4" d="m402.97,167.49l-15.01-31.2h-1.01v31.2h-37.91V62.51h47.79c27.15,0,42.72,13.67,42.72,37.52v.13c0,11.86-5.25,22.66-13.71,28.85l19.64,38.49h-42.51Zm-9.36-60.88c2.26,0,7.51-.65,7.51-6.65v-.13c0-4.14-2.88-6.72-7.51-6.72h-6.65v13.5h6.65Z"/>
            <polygon class="cls-4" points="515.55 167.49 488.89 128.59 488.89 167.49 450.98 167.49 450.98 62.51 481.84 62.51 508.25 100.72 508.25 62.51 546.16 62.51 546.16 167.49 515.55 167.49"/>
          </g>
          <g>
            <polygon class="cls-4" points="60.98 166.49 60.98 61.51 98.89 61.51 98.89 134.38 136.15 134.38 136.15 166.49 60.98 166.49"/>
            <polygon class="cls-4" points="146.79 166.49 146.79 61.51 223.81 61.51 223.81 93.62 184.7 93.62 184.7 98.77 221.37 98.77 221.37 129.3 184.7 129.3 184.7 134.38 223.81 134.38 223.81 166.49 146.79 166.49"/>
            <path class="cls-4" d="m301.15,166.49l-4.94-18.89h-20.71l-4.94,18.89h-40.11l34.27-104.99h42.27l34.27,104.99h-40.11Zm-12.68-48.57l-2.61-9.99-2.61,9.99h5.22Z"/>
            <path class="cls-4" d="m401.97,166.49l-15.01-31.2h-1.01v31.2h-37.91V61.51h47.79c27.15,0,42.72,13.67,42.72,37.52v.13c0,11.86-5.25,22.66-13.71,28.85l19.64,38.49h-42.51Zm-9.36-60.88c2.26,0,7.51-.65,7.51-6.65v-.13c0-4.14-2.88-6.72-7.51-6.72h-6.65v13.5h6.65Z"/>
            <polygon class="cls-4" points="514.55 166.49 487.89 127.59 487.89 166.49 449.98 166.49 449.98 61.51 480.84 61.51 507.25 99.72 507.25 61.51 545.16 61.51 545.16 166.49 514.55 166.49"/>
          </g>
          <g>
            <polygon class="cls-4" points="59.98 165.49 59.98 60.51 97.89 60.51 97.89 133.38 135.15 133.38 135.15 165.49 59.98 165.49"/>
            <polygon class="cls-4" points="145.79 165.49 145.79 60.51 222.81 60.51 222.81 92.62 183.7 92.62 183.7 97.77 220.37 97.77 220.37 128.3 183.7 128.3 183.7 133.38 222.81 133.38 222.81 165.49 145.79 165.49"/>
            <path class="cls-4" d="m300.15,165.49l-4.94-18.89h-20.71l-4.94,18.89h-40.11l34.27-104.99h42.27l34.27,104.99h-40.11Zm-12.68-48.57l-2.61-9.99-2.61,9.99h5.22Z"/>
            <path class="cls-4" d="m400.97,165.49l-15.01-31.2h-1.01v31.2h-37.91V60.51h47.79c27.15,0,42.72,13.67,42.72,37.52v.13c0,11.86-5.25,22.66-13.71,28.85l19.64,38.49h-42.51Zm-9.36-60.88c2.26,0,7.51-.65,7.51-6.65v-.13c0-4.14-2.88-6.72-7.51-6.72h-6.65v13.5h6.65Z"/>
            <polygon class="cls-4" points="513.55 165.49 486.89 126.59 486.89 165.49 448.98 165.49 448.98 60.51 479.84 60.51 506.25 98.72 506.25 60.51 544.16 60.51 544.16 165.49 513.55 165.49"/>
          </g>
          <g>
            <polygon class="cls-4" points="58.98 164.49 58.98 59.51 96.89 59.51 96.89 132.38 134.15 132.38 134.15 164.49 58.98 164.49"/>
            <polygon class="cls-4" points="144.79 164.49 144.79 59.51 221.81 59.51 221.81 91.62 182.7 91.62 182.7 96.77 219.37 96.77 219.37 127.3 182.7 127.3 182.7 132.38 221.81 132.38 221.81 164.49 144.79 164.49"/>
            <path class="cls-4" d="m299.15,164.49l-4.94-18.89h-20.71l-4.94,18.89h-40.11l34.27-104.99h42.27l34.27,104.99h-40.11Zm-12.68-48.57l-2.61-9.99-2.61,9.99h5.22Z"/>
            <path class="cls-4" d="m399.97,164.49l-15.01-31.2h-1.01v31.2h-37.91V59.51h47.79c27.15,0,42.72,13.67,42.72,37.52v.13c0,11.86-5.25,22.66-13.71,28.85l19.64,38.49h-42.51Zm-9.36-60.88c2.26,0,7.51-.65,7.51-6.65v-.13c0-4.14-2.88-6.72-7.51-6.72h-6.65v13.5h6.65Z"/>
            <polygon class="cls-4" points="512.55 164.49 485.89 125.59 485.89 164.49 447.98 164.49 447.98 59.51 478.84 59.51 505.25 97.72 505.25 59.51 543.16 59.51 543.16 164.49 512.55 164.49"/>
          </g>
          <g>
            <polygon class="cls-4" points="57.98 163.49 57.98 58.51 95.89 58.51 95.89 131.38 133.15 131.38 133.15 163.49 57.98 163.49"/>
            <polygon class="cls-4" points="143.79 163.49 143.79 58.51 220.81 58.51 220.81 90.62 181.7 90.62 181.7 95.77 218.37 95.77 218.37 126.3 181.7 126.3 181.7 131.38 220.81 131.38 220.81 163.49 143.79 163.49"/>
            <path class="cls-4" d="m298.15,163.49l-4.94-18.89h-20.71l-4.94,18.89h-40.11l34.27-104.99h42.27l34.27,104.99h-40.11Zm-12.68-48.57l-2.61-9.99-2.61,9.99h5.22Z"/>
            <path class="cls-4" d="m398.97,163.49l-15.01-31.2h-1.01v31.2h-37.91V58.51h47.79c27.15,0,42.72,13.67,42.72,37.52v.13c0,11.86-5.25,22.66-13.71,28.85l19.64,38.49h-42.51Zm-9.36-60.88c2.26,0,7.51-.65,7.51-6.65v-.13c0-4.14-2.88-6.72-7.51-6.72h-6.65v13.5h6.65Z"/>
            <polygon class="cls-4" points="511.55 163.49 484.89 124.59 484.89 163.49 446.98 163.49 446.98 58.51 477.84 58.51 504.25 96.72 504.25 58.51 542.16 58.51 542.16 163.49 511.55 163.49"/>
          </g>
          <g>
            <polygon class="cls-4" points="56.98 162.49 56.98 57.51 94.89 57.51 94.89 130.38 132.15 130.38 132.15 162.49 56.98 162.49"/>
            <polygon class="cls-4" points="142.79 162.49 142.79 57.51 219.81 57.51 219.81 89.62 180.7 89.62 180.7 94.77 217.37 94.77 217.37 125.3 180.7 125.3 180.7 130.38 219.81 130.38 219.81 162.49 142.79 162.49"/>
            <path class="cls-4" d="m297.15,162.49l-4.94-18.89h-20.71l-4.94,18.89h-40.11l34.27-104.99h42.27l34.27,104.99h-40.11Zm-12.68-48.57l-2.61-9.99-2.61,9.99h5.22Z"/>
            <path class="cls-4" d="m397.97,162.49l-15.01-31.2h-1.01v31.2h-37.91V57.51h47.79c27.15,0,42.72,13.67,42.72,37.52v.13c0,11.86-5.25,22.66-13.71,28.85l19.64,38.49h-42.51Zm-9.36-60.88c2.26,0,7.51-.65,7.51-6.65v-.13c0-4.14-2.88-6.72-7.51-6.72h-6.65v13.5h6.65Z"/>
            <polygon class="cls-4" points="510.55 162.49 483.89 123.59 483.89 162.49 445.98 162.49 445.98 57.51 476.84 57.51 503.25 95.72 503.25 57.51 541.16 57.51 541.16 162.49 510.55 162.49"/>
          </g>
          <g>
            <polygon class="cls-4" points="55.98 161.49 55.98 56.51 93.89 56.51 93.89 129.38 131.15 129.38 131.15 161.49 55.98 161.49"/>
            <polygon class="cls-4" points="141.79 161.49 141.79 56.51 218.81 56.51 218.81 88.62 179.7 88.62 179.7 93.77 216.37 93.77 216.37 124.3 179.7 124.3 179.7 129.38 218.81 129.38 218.81 161.49 141.79 161.49"/>
            <path class="cls-4" d="m296.15,161.49l-4.94-18.89h-20.71l-4.94,18.89h-40.11l34.27-104.99h42.27l34.27,104.99h-40.11Zm-12.68-48.57l-2.61-9.99-2.61,9.99h5.22Z"/>
            <path class="cls-4" d="m396.97,161.49l-15.01-31.2h-1.01v31.2h-37.91V56.51h47.79c27.15,0,42.72,13.67,42.72,37.52v.13c0,11.86-5.25,22.66-13.71,28.85l19.64,38.49h-42.51Zm-9.36-60.88c2.26,0,7.51-.65,7.51-6.65v-.13c0-4.14-2.88-6.72-7.51-6.72h-6.65v13.5h6.65Z"/>
            <polygon class="cls-4" points="509.55 161.49 482.89 122.59 482.89 161.49 444.98 161.49 444.98 56.51 475.84 56.51 502.25 94.72 502.25 56.51 540.16 56.51 540.16 161.49 509.55 161.49"/>
          </g>
        </g>
        <text class="cls-3" transform="translate(54.4 156.49)"><tspan x="0" y="0">LEARN </tspan></text>
      </g>
    </g>
  </g>
</svg>