<?xml version="1.0" encoding="UTF-8"?>
<svg id="Layer_2" data-name="Layer 2" xmlns="http://www.w3.org/2000/svg" xmlns:xlink="http://www.w3.org/1999/xlink" viewBox="0 0 633.62 242.9">
  <defs>
    <style>
      .cls-1 {
        fill: #564d3b;
      }

      .cls-2 {
        letter-spacing: .07em;
      }

      .cls-3 {
        opacity: .24;
      }

      .cls-4 {
        fill: #3d5a3e;
      }

      .cls-5 {
        clip-path: url(#clippath);
      }

      .cls-6 {
        fill: #65c983;
      }

      .cls-6, .cls-7 {
        font-family: SFProDisplay-Black, 'SF Pro Display';
        font-size: 134.81px;
        font-weight: 800;
      }

      .cls-8 {
        fill: none;
      }

      .cls-9 {
        letter-spacing: .08em;
      }

      .cls-10 {
        fill: #e0d6c0;
        stroke: #333;
        stroke-miterlimit: 10;
        stroke-width: 4px;
      }

      .cls-11 {
        letter-spacing: -.03em;
      }
    </style>
    <clipPath id="clippath">
      <rect class="cls-8" x="2" y="2" width="629.62" height="230.82" rx="46.2" ry="46.2"/>
    </clipPath>
  </defs>
  <g id="Layer_24" data-name="Layer 24">
    <g id="Play">
      <g>
        <rect class="cls-10" x="2" y="2" width="629.62" height="230.82" rx="46.2" ry="46.2"/>
        <g class="cls-3">
          <g class="cls-5">
            <rect class="cls-1" x="314.21" y="-345.74" width="227.63" height="1280.83" transform="translate(76.99 677.84) rotate(-82.05)"/>
          </g>
        </g>
      </g>
      <g>
        <text class="cls-7" transform="translate(108.79 155.74)"><tspan class="cls-2" x="0" y="0">PL</tspan><tspan class="cls-11" x="184.53" y="0">A</tspan><tspan class="cls-9" x="281.13" y="0">Y</tspan></text>
        <g>
          <g>
            <path class="cls-4" d="m160.37,210.74v-104.99h47.46c25.07,0,41.27,15.55,41.27,39.62v.13c0,23.87-16.2,39.3-41.27,39.3h-9.55v25.94h-37.91Zm40.81-56.54c8.64,0,9.75-4.65,9.75-8.69v-.13c0-4.02-1.11-8.63-9.75-8.63h-2.9v17.45h2.9Z"/>
            <polygon class="cls-4" points="259.09 210.74 259.09 105.76 297 105.76 297 178.63 334.26 178.63 334.26 210.74 259.09 210.74"/>
            <path class="cls-4" d="m409.1,210.74l-4.94-18.89h-20.71l-4.94,18.89h-40.11l34.27-104.99h42.28l34.27,104.99h-40.11Zm-12.68-48.57l-2.61-9.99-2.61,9.99h5.22Z"/>
            <polygon class="cls-4" points="469.35 210.74 469.35 176.84 433.81 105.76 474.68 105.76 488.31 137.28 501.94 105.76 542.81 105.76 507.26 176.84 507.26 210.74 469.35 210.74"/>
          </g>
          <g>
            <path class="cls-4" d="m159.37,209.74v-104.99h47.46c25.07,0,41.27,15.55,41.27,39.62v.13c0,23.87-16.2,39.3-41.27,39.3h-9.55v25.94h-37.91Zm40.81-56.54c8.64,0,9.75-4.65,9.75-8.69v-.13c0-4.02-1.11-8.63-9.75-8.63h-2.9v17.45h2.9Z"/>
            <polygon class="cls-4" points="258.09 209.74 258.09 104.76 296 104.76 296 177.63 333.26 177.63 333.26 209.74 258.09 209.74"/>
            <path class="cls-4" d="m408.1,209.74l-4.94-18.89h-20.71l-4.94,18.89h-40.11l34.27-104.99h42.28l34.27,104.99h-40.11Zm-12.68-48.57l-2.61-9.99-2.61,9.99h5.22Z"/>
            <polygon class="cls-4" points="468.35 209.74 468.35 175.84 432.81 104.76 473.68 104.76 487.31 136.28 500.94 104.76 541.81 104.76 506.26 175.84 506.26 209.74 468.35 209.74"/>
          </g>
          <g>
            <path class="cls-4" d="m158.37,208.74v-104.99h47.46c25.07,0,41.27,15.55,41.27,39.62v.13c0,23.87-16.2,39.3-41.27,39.3h-9.55v25.94h-37.91Zm40.81-56.54c8.64,0,9.75-4.65,9.75-8.69v-.13c0-4.02-1.11-8.63-9.75-8.63h-2.9v17.45h2.9Z"/>
            <polygon class="cls-4" points="257.09 208.74 257.09 103.76 295 103.76 295 176.63 332.26 176.63 332.26 208.74 257.09 208.74"/>
            <path class="cls-4" d="m407.1,208.74l-4.94-18.89h-20.71l-4.94,18.89h-40.11l34.27-104.99h42.28l34.27,104.99h-40.11Zm-12.68-48.57l-2.61-9.99-2.61,9.99h5.22Z"/>
            <polygon class="cls-4" points="467.35 208.74 467.35 174.84 431.81 103.76 472.68 103.76 486.31 135.28 499.94 103.76 540.81 103.76 505.26 174.84 505.26 208.74 467.35 208.74"/>
          </g>
          <g>
            <path class="cls-4" d="m157.37,207.74v-104.99h47.46c25.07,0,41.27,15.55,41.27,39.62v.13c0,23.87-16.2,39.3-41.27,39.3h-9.55v25.94h-37.91Zm40.81-56.54c8.64,0,9.75-4.65,9.75-8.69v-.13c0-4.02-1.11-8.63-9.75-8.63h-2.9v17.45h2.9Z"/>
            <polygon class="cls-4" points="256.09 207.74 256.09 102.76 294 102.76 294 175.63 331.26 175.63 331.26 207.74 256.09 207.74"/>
            <path class="cls-4" d="m406.1,207.74l-4.94-18.89h-20.71l-4.94,18.89h-40.11l34.27-104.99h42.28l34.27,104.99h-40.11Zm-12.68-48.57l-2.61-9.99-2.61,9.99h5.22Z"/>
            <polygon class="cls-4" points="466.35 207.74 466.35 173.84 430.81 102.76 471.68 102.76 485.31 134.28 498.94 102.76 539.81 102.76 504.26 173.84 504.26 207.74 466.35 207.74"/>
          </g>
          <g>
            <path class="cls-4" d="m156.37,206.74v-104.99h47.46c25.07,0,41.27,15.55,41.27,39.62v.13c0,23.87-16.2,39.3-41.27,39.3h-9.55v25.94h-37.91Zm40.81-56.54c8.64,0,9.75-4.65,9.75-8.69v-.13c0-4.02-1.11-8.63-9.75-8.63h-2.9v17.45h2.9Z"/>
            <polygon class="cls-4" points="255.09 206.74 255.09 101.76 293 101.76 293 174.63 330.26 174.63 330.26 206.74 255.09 206.74"/>
            <path class="cls-4" d="m405.1,206.74l-4.94-18.89h-20.71l-4.94,18.89h-40.11l34.27-104.99h42.28l34.27,104.99h-40.11Zm-12.68-48.57l-2.61-9.99-2.61,9.99h5.22Z"/>
            <polygon class="cls-4" points="465.35 206.74 465.35 172.84 429.81 101.76 470.68 101.76 484.31 133.28 497.94 101.76 538.81 101.76 503.26 172.84 503.26 206.74 465.35 206.74"/>
          </g>
          <g>
            <path class="cls-4" d="m155.37,205.74v-104.99h47.46c25.07,0,41.27,15.55,41.27,39.62v.13c0,23.87-16.2,39.3-41.27,39.3h-9.55v25.94h-37.91Zm40.81-56.54c8.64,0,9.75-4.65,9.75-8.69v-.13c0-4.02-1.11-8.63-9.75-8.63h-2.9v17.45h2.9Z"/>
            <polygon class="cls-4" points="254.09 205.74 254.09 100.76 292 100.76 292 173.63 329.26 173.63 329.26 205.74 254.09 205.74"/>
            <path class="cls-4" d="m404.1,205.74l-4.94-18.89h-20.71l-4.94,18.89h-40.11l34.27-104.99h42.28l34.27,104.99h-40.11Zm-12.68-48.57l-2.61-9.99-2.61,9.99h5.22Z"/>
            <polygon class="cls-4" points="464.35 205.74 464.35 171.84 428.81 100.76 469.68 100.76 483.31 132.28 496.94 100.76 537.81 100.76 502.26 171.84 502.26 205.74 464.35 205.74"/>
          </g>
          <g>
            <path class="cls-4" d="m154.37,204.74v-104.99h47.46c25.07,0,41.27,15.55,41.27,39.62v.13c0,23.87-16.2,39.3-41.27,39.3h-9.55v25.94h-37.91Zm40.81-56.54c8.64,0,9.75-4.65,9.75-8.69v-.13c0-4.02-1.11-8.63-9.75-8.63h-2.9v17.45h2.9Z"/>
            <polygon class="cls-4" points="253.09 204.74 253.09 99.76 291 99.76 291 172.63 328.26 172.63 328.26 204.74 253.09 204.74"/>
            <path class="cls-4" d="m403.1,204.74l-4.94-18.89h-20.71l-4.94,18.89h-40.11l34.27-104.99h42.28l34.27,104.99h-40.11Zm-12.68-48.57l-2.61-9.99-2.61,9.99h5.22Z"/>
            <polygon class="cls-4" points="463.35 204.74 463.35 170.84 427.81 99.76 468.68 99.76 482.31 131.28 495.94 99.76 536.81 99.76 501.26 170.84 501.26 204.74 463.35 204.74"/>
          </g>
          <g>
            <path class="cls-4" d="m153.37,203.74v-104.99h47.46c25.07,0,41.27,15.55,41.27,39.62v.13c0,23.87-16.2,39.3-41.27,39.3h-9.55v25.94h-37.91Zm40.81-56.54c8.64,0,9.75-4.65,9.75-8.69v-.13c0-4.02-1.11-8.63-9.75-8.63h-2.9v17.45h2.9Z"/>
            <polygon class="cls-4" points="252.09 203.74 252.09 98.76 290 98.76 290 171.63 327.26 171.63 327.26 203.74 252.09 203.74"/>
            <path class="cls-4" d="m402.1,203.74l-4.94-18.89h-20.71l-4.94,18.89h-40.11l34.27-104.99h42.28l34.27,104.99h-40.11Zm-12.68-48.57l-2.61-9.99-2.61,9.99h5.22Z"/>
            <polygon class="cls-4" points="462.35 203.74 462.35 169.84 426.81 98.76 467.68 98.76 481.31 130.28 494.94 98.76 535.81 98.76 500.26 169.84 500.26 203.74 462.35 203.74"/>
          </g>
          <g>
            <path class="cls-4" d="m152.37,202.74v-104.99h47.46c25.07,0,41.27,15.55,41.27,39.62v.13c0,23.87-16.2,39.3-41.27,39.3h-9.55v25.94h-37.91Zm40.81-56.54c8.64,0,9.75-4.65,9.75-8.69v-.13c0-4.02-1.11-8.63-9.75-8.63h-2.9v17.45h2.9Z"/>
            <polygon class="cls-4" points="251.09 202.74 251.09 97.76 289 97.76 289 170.63 326.26 170.63 326.26 202.74 251.09 202.74"/>
            <path class="cls-4" d="m401.1,202.74l-4.94-18.89h-20.71l-4.94,18.89h-40.11l34.27-104.99h42.28l34.27,104.99h-40.11Zm-12.68-48.57l-2.61-9.99-2.61,9.99h5.22Z"/>
            <polygon class="cls-4" points="461.35 202.74 461.35 168.84 425.81 97.76 466.68 97.76 480.31 129.28 493.94 97.76 534.81 97.76 499.26 168.84 499.26 202.74 461.35 202.74"/>
          </g>
          <g>
            <path class="cls-4" d="m151.37,201.74v-104.99h47.46c25.07,0,41.27,15.55,41.27,39.62v.13c0,23.87-16.2,39.3-41.27,39.3h-9.55v25.94h-37.91Zm40.81-56.54c8.64,0,9.75-4.65,9.75-8.69v-.13c0-4.02-1.11-8.63-9.75-8.63h-2.9v17.45h2.9Z"/>
            <polygon class="cls-4" points="250.09 201.74 250.09 96.76 288 96.76 288 169.63 325.26 169.63 325.26 201.74 250.09 201.74"/>
            <path class="cls-4" d="m400.1,201.74l-4.94-18.89h-20.71l-4.94,18.89h-40.11l34.27-104.99h42.28l34.27,104.99h-40.11Zm-12.68-48.57l-2.61-9.99-2.61,9.99h5.22Z"/>
            <polygon class="cls-4" points="460.35 201.74 460.35 167.84 424.81 96.76 465.68 96.76 479.31 128.28 492.94 96.76 533.81 96.76 498.26 167.84 498.26 201.74 460.35 201.74"/>
          </g>
          <g>
            <path class="cls-4" d="m150.37,200.74v-104.99h47.46c25.07,0,41.27,15.55,41.27,39.62v.13c0,23.87-16.2,39.3-41.27,39.3h-9.55v25.94h-37.91Zm40.81-56.54c8.64,0,9.75-4.65,9.75-8.69v-.13c0-4.02-1.11-8.63-9.75-8.63h-2.9v17.45h2.9Z"/>
            <polygon class="cls-4" points="249.09 200.74 249.09 95.76 287 95.76 287 168.63 324.26 168.63 324.26 200.74 249.09 200.74"/>
            <path class="cls-4" d="m399.1,200.74l-4.94-18.89h-20.71l-4.94,18.89h-40.11l34.27-104.99h42.28l34.27,104.99h-40.11Zm-12.68-48.57l-2.61-9.99-2.61,9.99h5.22Z"/>
            <polygon class="cls-4" points="459.35 200.74 459.35 166.84 423.81 95.76 464.68 95.76 478.31 127.28 491.94 95.76 532.81 95.76 497.26 166.84 497.26 200.74 459.35 200.74"/>
          </g>
          <g>
            <path class="cls-4" d="m149.37,199.74v-104.99h47.46c25.07,0,41.27,15.55,41.27,39.62v.13c0,23.87-16.2,39.3-41.27,39.3h-9.55v25.94h-37.91Zm40.81-56.54c8.64,0,9.75-4.65,9.75-8.69v-.13c0-4.02-1.11-8.63-9.75-8.63h-2.9v17.45h2.9Z"/>
            <polygon class="cls-4" points="248.09 199.74 248.09 94.76 286 94.76 286 167.63 323.26 167.63 323.26 199.74 248.09 199.74"/>
            <path class="cls-4" d="m398.1,199.74l-4.94-18.89h-20.71l-4.94,18.89h-40.11l34.27-104.99h42.28l34.27,104.99h-40.11Zm-12.68-48.57l-2.61-9.99-2.61,9.99h5.22Z"/>
            <polygon class="cls-4" points="458.35 199.74 458.35 165.84 422.81 94.76 463.68 94.76 477.31 126.28 490.94 94.76 531.81 94.76 496.26 165.84 496.26 199.74 458.35 199.74"/>
          </g>
          <g>
            <path class="cls-4" d="m148.37,198.74v-104.99h47.46c25.07,0,41.27,15.55,41.27,39.62v.13c0,23.87-16.2,39.3-41.27,39.3h-9.55v25.94h-37.91Zm40.81-56.54c8.64,0,9.75-4.65,9.75-8.69v-.13c0-4.02-1.11-8.63-9.75-8.63h-2.9v17.45h2.9Z"/>
            <polygon class="cls-4" points="247.09 198.74 247.09 93.76 285 93.76 285 166.63 322.26 166.63 322.26 198.74 247.09 198.74"/>
            <path class="cls-4" d="m397.1,198.74l-4.94-18.89h-20.71l-4.94,18.89h-40.11l34.27-104.99h42.28l34.27,104.99h-40.11Zm-12.68-48.57l-2.61-9.99-2.61,9.99h5.22Z"/>
            <polygon class="cls-4" points="457.35 198.74 457.35 164.84 421.81 93.76 462.68 93.76 476.31 125.28 489.94 93.76 530.81 93.76 495.26 164.84 495.26 198.74 457.35 198.74"/>
          </g>
          <g>
            <path class="cls-4" d="m147.37,197.74v-104.99h47.46c25.07,0,41.27,15.55,41.27,39.62v.13c0,23.87-16.2,39.3-41.27,39.3h-9.55v25.94h-37.91Zm40.81-56.54c8.64,0,9.75-4.65,9.75-8.69v-.13c0-4.02-1.11-8.63-9.75-8.63h-2.9v17.45h2.9Z"/>
            <polygon class="cls-4" points="246.09 197.74 246.09 92.76 284 92.76 284 165.63 321.26 165.63 321.26 197.74 246.09 197.74"/>
            <path class="cls-4" d="m396.1,197.74l-4.94-18.89h-20.71l-4.94,18.89h-40.11l34.27-104.99h42.28l34.27,104.99h-40.11Zm-12.68-48.57l-2.61-9.99-2.61,9.99h5.22Z"/>
            <polygon class="cls-4" points="456.35 197.74 456.35 163.84 420.81 92.76 461.68 92.76 475.31 124.28 488.94 92.76 529.81 92.76 494.26 163.84 494.26 197.74 456.35 197.74"/>
          </g>
          <g>
            <path class="cls-4" d="m146.37,196.74v-104.99h47.46c25.07,0,41.27,15.55,41.27,39.62v.13c0,23.87-16.2,39.3-41.27,39.3h-9.55v25.94h-37.91Zm40.81-56.54c8.64,0,9.75-4.65,9.75-8.69v-.13c0-4.02-1.11-8.63-9.75-8.63h-2.9v17.45h2.9Z"/>
            <polygon class="cls-4" points="245.09 196.74 245.09 91.76 283 91.76 283 164.63 320.26 164.63 320.26 196.74 245.09 196.74"/>
            <path class="cls-4" d="m395.1,196.74l-4.94-18.89h-20.71l-4.94,18.89h-40.11l34.27-104.99h42.28l34.27,104.99h-40.11Zm-12.68-48.57l-2.61-9.99-2.61,9.99h5.22Z"/>
            <polygon class="cls-4" points="455.35 196.74 455.35 162.84 419.81 91.76 460.68 91.76 474.31 123.28 487.94 91.76 528.81 91.76 493.26 162.84 493.26 196.74 455.35 196.74"/>
          </g>
          <g>
            <path class="cls-4" d="m145.37,195.74v-104.99h47.46c25.07,0,41.27,15.55,41.27,39.62v.13c0,23.87-16.2,39.3-41.27,39.3h-9.55v25.94h-37.91Zm40.81-56.54c8.64,0,9.75-4.65,9.75-8.69v-.13c0-4.02-1.11-8.63-9.75-8.63h-2.9v17.45h2.9Z"/>
            <polygon class="cls-4" points="244.09 195.74 244.09 90.76 282 90.76 282 163.63 319.26 163.63 319.26 195.74 244.09 195.74"/>
            <path class="cls-4" d="m394.1,195.74l-4.94-18.89h-20.71l-4.94,18.89h-40.11l34.27-104.99h42.28l34.27,104.99h-40.11Zm-12.68-48.57l-2.61-9.99-2.61,9.99h5.22Z"/>
            <polygon class="cls-4" points="454.35 195.74 454.35 161.84 418.81 90.76 459.68 90.76 473.31 122.28 486.94 90.76 527.81 90.76 492.26 161.84 492.26 195.74 454.35 195.74"/>
          </g>
          <g>
            <path class="cls-4" d="m144.37,194.74v-104.99h47.46c25.07,0,41.27,15.55,41.27,39.62v.13c0,23.87-16.2,39.3-41.27,39.3h-9.55v25.94h-37.91Zm40.81-56.54c8.64,0,9.75-4.65,9.75-8.69v-.13c0-4.02-1.11-8.63-9.75-8.63h-2.9v17.45h2.9Z"/>
            <polygon class="cls-4" points="243.09 194.74 243.09 89.76 281 89.76 281 162.63 318.26 162.63 318.26 194.74 243.09 194.74"/>
            <path class="cls-4" d="m393.1,194.74l-4.94-18.89h-20.71l-4.94,18.89h-40.11l34.27-104.99h42.28l34.27,104.99h-40.11Zm-12.68-48.57l-2.61-9.99-2.61,9.99h5.22Z"/>
            <polygon class="cls-4" points="453.35 194.74 453.35 160.84 417.81 89.76 458.68 89.76 472.31 121.28 485.94 89.76 526.81 89.76 491.26 160.84 491.26 194.74 453.35 194.74"/>
          </g>
          <g>
            <path class="cls-4" d="m143.37,193.74v-104.99h47.46c25.07,0,41.27,15.55,41.27,39.62v.13c0,23.87-16.2,39.3-41.27,39.3h-9.55v25.94h-37.91Zm40.81-56.54c8.64,0,9.75-4.65,9.75-8.69v-.13c0-4.02-1.11-8.63-9.75-8.63h-2.9v17.45h2.9Z"/>
            <polygon class="cls-4" points="242.09 193.74 242.09 88.76 280 88.76 280 161.63 317.26 161.63 317.26 193.74 242.09 193.74"/>
            <path class="cls-4" d="m392.1,193.74l-4.94-18.89h-20.71l-4.94,18.89h-40.11l34.27-104.99h42.28l34.27,104.99h-40.11Zm-12.68-48.57l-2.61-9.99-2.61,9.99h5.22Z"/>
            <polygon class="cls-4" points="452.35 193.74 452.35 159.84 416.81 88.76 457.68 88.76 471.31 120.28 484.94 88.76 525.81 88.76 490.26 159.84 490.26 193.74 452.35 193.74"/>
          </g>
          <g>
            <path class="cls-4" d="m142.37,192.74v-104.99h47.46c25.07,0,41.27,15.55,41.27,39.62v.13c0,23.87-16.2,39.3-41.27,39.3h-9.55v25.94h-37.91Zm40.81-56.54c8.64,0,9.75-4.65,9.75-8.69v-.13c0-4.02-1.11-8.63-9.75-8.63h-2.9v17.45h2.9Z"/>
            <polygon class="cls-4" points="241.09 192.74 241.09 87.76 279 87.76 279 160.63 316.26 160.63 316.26 192.74 241.09 192.74"/>
            <path class="cls-4" d="m391.1,192.74l-4.94-18.89h-20.71l-4.94,18.89h-40.11l34.27-104.99h42.28l34.27,104.99h-40.11Zm-12.68-48.57l-2.61-9.99-2.61,9.99h5.22Z"/>
            <polygon class="cls-4" points="451.35 192.74 451.35 158.84 415.81 87.76 456.68 87.76 470.31 119.28 483.94 87.76 524.81 87.76 489.26 158.84 489.26 192.74 451.35 192.74"/>
          </g>
          <g>
            <path class="cls-4" d="m141.37,191.74v-104.99h47.46c25.07,0,41.27,15.55,41.27,39.62v.13c0,23.87-16.2,39.3-41.27,39.3h-9.55v25.94h-37.91Zm40.81-56.54c8.64,0,9.75-4.65,9.75-8.69v-.13c0-4.02-1.11-8.63-9.75-8.63h-2.9v17.45h2.9Z"/>
            <polygon class="cls-4" points="240.09 191.74 240.09 86.76 278 86.76 278 159.63 315.26 159.63 315.26 191.74 240.09 191.74"/>
            <path class="cls-4" d="m390.1,191.74l-4.94-18.89h-20.71l-4.94,18.89h-40.11l34.27-104.99h42.28l34.27,104.99h-40.11Zm-12.68-48.57l-2.61-9.99-2.61,9.99h5.22Z"/>
            <polygon class="cls-4" points="450.35 191.74 450.35 157.84 414.81 86.76 455.68 86.76 469.31 118.28 482.94 86.76 523.81 86.76 488.26 157.84 488.26 191.74 450.35 191.74"/>
          </g>
          <g>
            <path class="cls-4" d="m140.37,190.74v-104.99h47.46c25.07,0,41.27,15.55,41.27,39.62v.13c0,23.87-16.2,39.3-41.27,39.3h-9.55v25.94h-37.91Zm40.81-56.54c8.64,0,9.75-4.65,9.75-8.69v-.13c0-4.02-1.11-8.63-9.75-8.63h-2.9v17.45h2.9Z"/>
            <polygon class="cls-4" points="239.09 190.74 239.09 85.76 277 85.76 277 158.63 314.26 158.63 314.26 190.74 239.09 190.74"/>
            <path class="cls-4" d="m389.1,190.74l-4.94-18.89h-20.71l-4.94,18.89h-40.11l34.27-104.99h42.28l34.27,104.99h-40.11Zm-12.68-48.57l-2.61-9.99-2.61,9.99h5.22Z"/>
            <polygon class="cls-4" points="449.35 190.74 449.35 156.84 413.81 85.76 454.68 85.76 468.31 117.28 481.94 85.76 522.81 85.76 487.26 156.84 487.26 190.74 449.35 190.74"/>
          </g>
          <g>
            <path class="cls-4" d="m139.37,189.74v-104.99h47.46c25.07,0,41.27,15.55,41.27,39.62v.13c0,23.87-16.2,39.3-41.27,39.3h-9.55v25.94h-37.91Zm40.81-56.54c8.64,0,9.75-4.65,9.75-8.69v-.13c0-4.02-1.11-8.63-9.75-8.63h-2.9v17.45h2.9Z"/>
            <polygon class="cls-4" points="238.09 189.74 238.09 84.76 276 84.76 276 157.63 313.26 157.63 313.26 189.74 238.09 189.74"/>
            <path class="cls-4" d="m388.1,189.74l-4.94-18.89h-20.71l-4.94,18.89h-40.11l34.27-104.99h42.28l34.27,104.99h-40.11Zm-12.68-48.57l-2.61-9.99-2.61,9.99h5.22Z"/>
            <polygon class="cls-4" points="448.35 189.74 448.35 155.84 412.81 84.76 453.68 84.76 467.31 116.28 480.94 84.76 521.81 84.76 486.26 155.84 486.26 189.74 448.35 189.74"/>
          </g>
          <g>
            <path class="cls-4" d="m138.37,188.74v-104.99h47.46c25.07,0,41.27,15.55,41.27,39.62v.13c0,23.87-16.2,39.3-41.27,39.3h-9.55v25.94h-37.91Zm40.81-56.54c8.64,0,9.75-4.65,9.75-8.69v-.13c0-4.02-1.11-8.63-9.75-8.63h-2.9v17.45h2.9Z"/>
            <polygon class="cls-4" points="237.09 188.74 237.09 83.76 275 83.76 275 156.63 312.26 156.63 312.26 188.74 237.09 188.74"/>
            <path class="cls-4" d="m387.1,188.74l-4.94-18.89h-20.71l-4.94,18.89h-40.11l34.27-104.99h42.28l34.27,104.99h-40.11Zm-12.68-48.57l-2.61-9.99-2.61,9.99h5.22Z"/>
            <polygon class="cls-4" points="447.35 188.74 447.35 154.84 411.81 83.76 452.68 83.76 466.31 115.28 479.94 83.76 520.81 83.76 485.26 154.84 485.26 188.74 447.35 188.74"/>
          </g>
          <g>
            <path class="cls-4" d="m137.37,187.74v-104.99h47.46c25.07,0,41.27,15.55,41.27,39.62v.13c0,23.87-16.2,39.3-41.27,39.3h-9.55v25.94h-37.91Zm40.81-56.54c8.64,0,9.75-4.65,9.75-8.69v-.13c0-4.02-1.11-8.63-9.75-8.63h-2.9v17.45h2.9Z"/>
            <polygon class="cls-4" points="236.09 187.74 236.09 82.76 274 82.76 274 155.63 311.26 155.63 311.26 187.74 236.09 187.74"/>
            <path class="cls-4" d="m386.1,187.74l-4.94-18.89h-20.71l-4.94,18.89h-40.11l34.27-104.99h42.28l34.27,104.99h-40.11Zm-12.68-48.57l-2.61-9.99-2.61,9.99h5.22Z"/>
            <polygon class="cls-4" points="446.35 187.74 446.35 153.84 410.81 82.76 451.68 82.76 465.31 114.28 478.94 82.76 519.81 82.76 484.26 153.84 484.26 187.74 446.35 187.74"/>
          </g>
          <g>
            <path class="cls-4" d="m136.37,186.74v-104.99h47.46c25.07,0,41.27,15.55,41.27,39.62v.13c0,23.87-16.2,39.3-41.27,39.3h-9.55v25.94h-37.91Zm40.81-56.54c8.64,0,9.75-4.65,9.75-8.69v-.13c0-4.02-1.11-8.63-9.75-8.63h-2.9v17.45h2.9Z"/>
            <polygon class="cls-4" points="235.09 186.74 235.09 81.76 273 81.76 273 154.63 310.26 154.63 310.26 186.74 235.09 186.74"/>
            <path class="cls-4" d="m385.1,186.74l-4.94-18.89h-20.71l-4.94,18.89h-40.11l34.27-104.99h42.28l34.27,104.99h-40.11Zm-12.68-48.57l-2.61-9.99-2.61,9.99h5.22Z"/>
            <polygon class="cls-4" points="445.35 186.74 445.35 152.84 409.81 81.76 450.68 81.76 464.31 113.28 477.94 81.76 518.81 81.76 483.26 152.84 483.26 186.74 445.35 186.74"/>
          </g>
          <g>
            <path class="cls-4" d="m135.37,185.74v-104.99h47.46c25.07,0,41.27,15.55,41.27,39.62v.13c0,23.87-16.2,39.3-41.27,39.3h-9.55v25.94h-37.91Zm40.81-56.54c8.64,0,9.75-4.65,9.75-8.69v-.13c0-4.02-1.11-8.63-9.75-8.63h-2.9v17.45h2.9Z"/>
            <polygon class="cls-4" points="234.09 185.74 234.09 80.76 272 80.76 272 153.63 309.26 153.63 309.26 185.74 234.09 185.74"/>
            <path class="cls-4" d="m384.1,185.74l-4.94-18.89h-20.71l-4.94,18.89h-40.11l34.27-104.99h42.28l34.27,104.99h-40.11Zm-12.68-48.57l-2.61-9.99-2.61,9.99h5.22Z"/>
            <polygon class="cls-4" points="444.35 185.74 444.35 151.84 408.81 80.76 449.68 80.76 463.31 112.28 476.94 80.76 517.81 80.76 482.26 151.84 482.26 185.74 444.35 185.74"/>
          </g>
          <g>
            <path class="cls-4" d="m134.37,184.74v-104.99h47.46c25.07,0,41.27,15.55,41.27,39.62v.13c0,23.87-16.2,39.3-41.27,39.3h-9.55v25.94h-37.91Zm40.81-56.54c8.64,0,9.75-4.65,9.75-8.69v-.13c0-4.02-1.11-8.63-9.75-8.63h-2.9v17.45h2.9Z"/>
            <polygon class="cls-4" points="233.09 184.74 233.09 79.76 271 79.76 271 152.63 308.26 152.63 308.26 184.74 233.09 184.74"/>
            <path class="cls-4" d="m383.1,184.74l-4.94-18.89h-20.71l-4.94,18.89h-40.11l34.27-104.99h42.28l34.27,104.99h-40.11Zm-12.68-48.57l-2.61-9.99-2.61,9.99h5.22Z"/>
            <polygon class="cls-4" points="443.35 184.74 443.35 150.84 407.81 79.76 448.68 79.76 462.31 111.28 475.94 79.76 516.81 79.76 481.26 150.84 481.26 184.74 443.35 184.74"/>
          </g>
          <g>
            <path class="cls-4" d="m133.37,183.74v-104.99h47.46c25.07,0,41.27,15.55,41.27,39.62v.13c0,23.87-16.2,39.3-41.27,39.3h-9.55v25.94h-37.91Zm40.81-56.54c8.64,0,9.75-4.65,9.75-8.69v-.13c0-4.02-1.11-8.63-9.75-8.63h-2.9v17.45h2.9Z"/>
            <polygon class="cls-4" points="232.09 183.74 232.09 78.76 270 78.76 270 151.63 307.26 151.63 307.26 183.74 232.09 183.74"/>
            <path class="cls-4" d="m382.1,183.74l-4.94-18.89h-20.71l-4.94,18.89h-40.11l34.27-104.99h42.28l34.27,104.99h-40.11Zm-12.68-48.57l-2.61-9.99-2.61,9.99h5.22Z"/>
            <polygon class="cls-4" points="442.35 183.74 442.35 149.84 406.81 78.76 447.68 78.76 461.31 110.28 474.94 78.76 515.81 78.76 480.26 149.84 480.26 183.74 442.35 183.74"/>
          </g>
          <g>
            <path class="cls-4" d="m132.37,182.74v-104.99h47.46c25.07,0,41.27,15.55,41.27,39.62v.13c0,23.87-16.2,39.3-41.27,39.3h-9.55v25.94h-37.91Zm40.81-56.54c8.64,0,9.75-4.65,9.75-8.69v-.13c0-4.02-1.11-8.63-9.75-8.63h-2.9v17.45h2.9Z"/>
            <polygon class="cls-4" points="231.09 182.74 231.09 77.76 269 77.76 269 150.63 306.26 150.63 306.26 182.74 231.09 182.74"/>
            <path class="cls-4" d="m381.1,182.74l-4.94-18.89h-20.71l-4.94,18.89h-40.11l34.27-104.99h42.28l34.27,104.99h-40.11Zm-12.68-48.57l-2.61-9.99-2.61,9.99h5.22Z"/>
            <polygon class="cls-4" points="441.35 182.74 441.35 148.84 405.81 77.76 446.68 77.76 460.31 109.28 473.94 77.76 514.81 77.76 479.26 148.84 479.26 182.74 441.35 182.74"/>
          </g>
          <g>
            <path class="cls-4" d="m131.37,181.74v-104.99h47.46c25.07,0,41.27,15.55,41.27,39.62v.13c0,23.87-16.2,39.3-41.27,39.3h-9.55v25.94h-37.91Zm40.81-56.54c8.64,0,9.75-4.65,9.75-8.69v-.13c0-4.02-1.11-8.63-9.75-8.63h-2.9v17.45h2.9Z"/>
            <polygon class="cls-4" points="230.09 181.74 230.09 76.76 268 76.76 268 149.63 305.26 149.63 305.26 181.74 230.09 181.74"/>
            <path class="cls-4" d="m380.1,181.74l-4.94-18.89h-20.71l-4.94,18.89h-40.11l34.27-104.99h42.28l34.27,104.99h-40.11Zm-12.68-48.57l-2.61-9.99-2.61,9.99h5.22Z"/>
            <polygon class="cls-4" points="440.35 181.74 440.35 147.84 404.81 76.76 445.68 76.76 459.31 108.28 472.94 76.76 513.81 76.76 478.26 147.84 478.26 181.74 440.35 181.74"/>
          </g>
          <g>
            <path class="cls-4" d="m130.37,180.74v-104.99h47.46c25.07,0,41.27,15.55,41.27,39.62v.13c0,23.87-16.2,39.3-41.27,39.3h-9.55v25.94h-37.91Zm40.81-56.54c8.64,0,9.75-4.65,9.75-8.69v-.13c0-4.02-1.11-8.63-9.75-8.63h-2.9v17.45h2.9Z"/>
            <polygon class="cls-4" points="229.09 180.74 229.09 75.76 267 75.76 267 148.63 304.26 148.63 304.26 180.74 229.09 180.74"/>
            <path class="cls-4" d="m379.1,180.74l-4.94-18.89h-20.71l-4.94,18.89h-40.11l34.27-104.99h42.28l34.27,104.99h-40.11Zm-12.68-48.57l-2.61-9.99-2.61,9.99h5.22Z"/>
            <polygon class="cls-4" points="439.35 180.74 439.35 146.84 403.81 75.76 444.68 75.76 458.31 107.28 471.94 75.76 512.81 75.76 477.26 146.84 477.26 180.74 439.35 180.74"/>
          </g>
          <g>
            <path class="cls-4" d="m129.37,179.74v-104.99h47.46c25.07,0,41.27,15.55,41.27,39.62v.13c0,23.87-16.2,39.3-41.27,39.3h-9.55v25.94h-37.91Zm40.81-56.54c8.64,0,9.75-4.65,9.75-8.69v-.13c0-4.02-1.11-8.63-9.75-8.63h-2.9v17.45h2.9Z"/>
            <polygon class="cls-4" points="228.09 179.74 228.09 74.76 266 74.76 266 147.63 303.26 147.63 303.26 179.74 228.09 179.74"/>
            <path class="cls-4" d="m378.1,179.74l-4.94-18.89h-20.71l-4.94,18.89h-40.11l34.27-104.99h42.28l34.27,104.99h-40.11Zm-12.68-48.57l-2.61-9.99-2.61,9.99h5.22Z"/>
            <polygon class="cls-4" points="438.35 179.74 438.35 145.84 402.81 74.76 443.68 74.76 457.31 106.28 470.94 74.76 511.81 74.76 476.26 145.84 476.26 179.74 438.35 179.74"/>
          </g>
          <g>
            <path class="cls-4" d="m128.37,178.74v-104.99h47.46c25.07,0,41.27,15.55,41.27,39.62v.13c0,23.87-16.2,39.3-41.27,39.3h-9.55v25.94h-37.91Zm40.81-56.54c8.64,0,9.75-4.65,9.75-8.69v-.13c0-4.02-1.11-8.63-9.75-8.63h-2.9v17.45h2.9Z"/>
            <polygon class="cls-4" points="227.09 178.74 227.09 73.76 265 73.76 265 146.63 302.26 146.63 302.26 178.74 227.09 178.74"/>
            <path class="cls-4" d="m377.1,178.74l-4.94-18.89h-20.71l-4.94,18.89h-40.11l34.27-104.99h42.28l34.27,104.99h-40.11Zm-12.68-48.57l-2.61-9.99-2.61,9.99h5.22Z"/>
            <polygon class="cls-4" points="437.35 178.74 437.35 144.84 401.81 73.76 442.68 73.76 456.31 105.28 469.94 73.76 510.81 73.76 475.26 144.84 475.26 178.74 437.35 178.74"/>
          </g>
          <g>
            <path class="cls-4" d="m127.37,177.74v-104.99h47.46c25.07,0,41.27,15.55,41.27,39.62v.13c0,23.87-16.2,39.3-41.27,39.3h-9.55v25.94h-37.91Zm40.81-56.54c8.64,0,9.75-4.65,9.75-8.69v-.13c0-4.02-1.11-8.63-9.75-8.63h-2.9v17.45h2.9Z"/>
            <polygon class="cls-4" points="226.09 177.74 226.09 72.76 264 72.76 264 145.63 301.26 145.63 301.26 177.74 226.09 177.74"/>
            <path class="cls-4" d="m376.1,177.74l-4.94-18.89h-20.71l-4.94,18.89h-40.11l34.27-104.99h42.28l34.27,104.99h-40.11Zm-12.68-48.57l-2.61-9.99-2.61,9.99h5.22Z"/>
            <polygon class="cls-4" points="436.35 177.74 436.35 143.84 400.81 72.76 441.68 72.76 455.31 104.28 468.94 72.76 509.81 72.76 474.26 143.84 474.26 177.74 436.35 177.74"/>
          </g>
          <g>
            <path class="cls-4" d="m126.37,176.74v-104.99h47.46c25.07,0,41.27,15.55,41.27,39.62v.13c0,23.87-16.2,39.3-41.27,39.3h-9.55v25.94h-37.91Zm40.81-56.54c8.64,0,9.75-4.65,9.75-8.69v-.13c0-4.02-1.11-8.63-9.75-8.63h-2.9v17.45h2.9Z"/>
            <polygon class="cls-4" points="225.09 176.74 225.09 71.76 263 71.76 263 144.63 300.26 144.63 300.26 176.74 225.09 176.74"/>
            <path class="cls-4" d="m375.1,176.74l-4.94-18.89h-20.71l-4.94,18.89h-40.11l34.27-104.99h42.28l34.27,104.99h-40.11Zm-12.68-48.57l-2.61-9.99-2.61,9.99h5.22Z"/>
            <polygon class="cls-4" points="435.35 176.74 435.35 142.84 399.81 71.76 440.68 71.76 454.31 103.28 467.94 71.76 508.81 71.76 473.26 142.84 473.26 176.74 435.35 176.74"/>
          </g>
          <g>
            <path class="cls-4" d="m125.37,175.74v-104.99h47.46c25.07,0,41.27,15.55,41.27,39.62v.13c0,23.87-16.2,39.3-41.27,39.3h-9.55v25.94h-37.91Zm40.81-56.54c8.64,0,9.75-4.65,9.75-8.69v-.13c0-4.02-1.11-8.63-9.75-8.63h-2.9v17.45h2.9Z"/>
            <polygon class="cls-4" points="224.09 175.74 224.09 70.76 262 70.76 262 143.63 299.26 143.63 299.26 175.74 224.09 175.74"/>
            <path class="cls-4" d="m374.1,175.74l-4.94-18.89h-20.71l-4.94,18.89h-40.11l34.27-104.99h42.28l34.27,104.99h-40.11Zm-12.68-48.57l-2.61-9.99-2.61,9.99h5.22Z"/>
            <polygon class="cls-4" points="434.35 175.74 434.35 141.84 398.81 70.76 439.68 70.76 453.31 102.28 466.94 70.76 507.81 70.76 472.26 141.84 472.26 175.74 434.35 175.74"/>
          </g>
          <g>
            <path class="cls-4" d="m124.37,174.74v-104.99h47.46c25.07,0,41.27,15.55,41.27,39.62v.13c0,23.87-16.2,39.3-41.27,39.3h-9.55v25.94h-37.91Zm40.81-56.54c8.64,0,9.75-4.65,9.75-8.69v-.13c0-4.02-1.11-8.63-9.75-8.63h-2.9v17.45h2.9Z"/>
            <polygon class="cls-4" points="223.09 174.74 223.09 69.76 261 69.76 261 142.63 298.26 142.63 298.26 174.74 223.09 174.74"/>
            <path class="cls-4" d="m373.1,174.74l-4.94-18.89h-20.71l-4.94,18.89h-40.11l34.27-104.99h42.28l34.27,104.99h-40.11Zm-12.68-48.57l-2.61-9.99-2.61,9.99h5.22Z"/>
            <polygon class="cls-4" points="433.35 174.74 433.35 140.84 397.81 69.76 438.68 69.76 452.31 101.28 465.94 69.76 506.81 69.76 471.26 140.84 471.26 174.74 433.35 174.74"/>
          </g>
          <g>
            <path class="cls-4" d="m123.37,173.74v-104.99h47.46c25.07,0,41.27,15.55,41.27,39.62v.13c0,23.87-16.2,39.3-41.27,39.3h-9.55v25.94h-37.91Zm40.81-56.54c8.64,0,9.75-4.65,9.75-8.69v-.13c0-4.02-1.11-8.63-9.75-8.63h-2.9v17.45h2.9Z"/>
            <polygon class="cls-4" points="222.09 173.74 222.09 68.76 260 68.76 260 141.63 297.26 141.63 297.26 173.74 222.09 173.74"/>
            <path class="cls-4" d="m372.1,173.74l-4.94-18.89h-20.71l-4.94,18.89h-40.11l34.27-104.99h42.28l34.27,104.99h-40.11Zm-12.68-48.57l-2.61-9.99-2.61,9.99h5.22Z"/>
            <polygon class="cls-4" points="432.35 173.74 432.35 139.84 396.81 68.76 437.68 68.76 451.31 100.28 464.94 68.76 505.81 68.76 470.26 139.84 470.26 173.74 432.35 173.74"/>
          </g>
          <g>
            <path class="cls-4" d="m122.37,172.74v-104.99h47.46c25.07,0,41.27,15.55,41.27,39.62v.13c0,23.87-16.2,39.3-41.27,39.3h-9.55v25.94h-37.91Zm40.81-56.54c8.64,0,9.75-4.65,9.75-8.69v-.13c0-4.02-1.11-8.63-9.75-8.63h-2.9v17.45h2.9Z"/>
            <polygon class="cls-4" points="221.09 172.74 221.09 67.76 259 67.76 259 140.63 296.26 140.63 296.26 172.74 221.09 172.74"/>
            <path class="cls-4" d="m371.1,172.74l-4.94-18.89h-20.71l-4.94,18.89h-40.11l34.27-104.99h42.28l34.27,104.99h-40.11Zm-12.68-48.57l-2.61-9.99-2.61,9.99h5.22Z"/>
            <polygon class="cls-4" points="431.35 172.74 431.35 138.84 395.81 67.76 436.68 67.76 450.31 99.28 463.94 67.76 504.81 67.76 469.26 138.84 469.26 172.74 431.35 172.74"/>
          </g>
          <g>
            <path class="cls-4" d="m121.37,171.74v-104.99h47.46c25.07,0,41.27,15.55,41.27,39.62v.13c0,23.87-16.2,39.3-41.27,39.3h-9.55v25.94h-37.91Zm40.81-56.54c8.64,0,9.75-4.65,9.75-8.69v-.13c0-4.02-1.11-8.63-9.75-8.63h-2.9v17.45h2.9Z"/>
            <polygon class="cls-4" points="220.09 171.74 220.09 66.76 258 66.76 258 139.63 295.26 139.63 295.26 171.74 220.09 171.74"/>
            <path class="cls-4" d="m370.1,171.74l-4.94-18.89h-20.71l-4.94,18.89h-40.11l34.27-104.99h42.28l34.27,104.99h-40.11Zm-12.68-48.57l-2.61-9.99-2.61,9.99h5.22Z"/>
            <polygon class="cls-4" points="430.35 171.74 430.35 137.84 394.81 66.76 435.68 66.76 449.31 98.28 462.94 66.76 503.81 66.76 468.26 137.84 468.26 171.74 430.35 171.74"/>
          </g>
          <g>
            <path class="cls-4" d="m120.37,170.74v-104.99h47.46c25.07,0,41.27,15.55,41.27,39.62v.13c0,23.87-16.2,39.3-41.27,39.3h-9.55v25.94h-37.91Zm40.81-56.54c8.64,0,9.75-4.65,9.75-8.69v-.13c0-4.02-1.11-8.63-9.75-8.63h-2.9v17.45h2.9Z"/>
            <polygon class="cls-4" points="219.09 170.74 219.09 65.76 257 65.76 257 138.63 294.26 138.63 294.26 170.74 219.09 170.74"/>
            <path class="cls-4" d="m369.1,170.74l-4.94-18.89h-20.71l-4.94,18.89h-40.11l34.27-104.99h42.28l34.27,104.99h-40.11Zm-12.68-48.57l-2.61-9.99-2.61,9.99h5.22Z"/>
            <polygon class="cls-4" points="429.35 170.74 429.35 136.84 393.81 65.76 434.68 65.76 448.31 97.28 461.94 65.76 502.81 65.76 467.26 136.84 467.26 170.74 429.35 170.74"/>
          </g>
          <g>
            <path class="cls-4" d="m119.37,169.74v-104.99h47.46c25.07,0,41.27,15.55,41.27,39.62v.13c0,23.87-16.2,39.3-41.27,39.3h-9.55v25.94h-37.91Zm40.81-56.54c8.64,0,9.75-4.65,9.75-8.69v-.13c0-4.02-1.11-8.63-9.75-8.63h-2.9v17.45h2.9Z"/>
            <polygon class="cls-4" points="218.09 169.74 218.09 64.76 256 64.76 256 137.63 293.26 137.63 293.26 169.74 218.09 169.74"/>
            <path class="cls-4" d="m368.1,169.74l-4.94-18.89h-20.71l-4.94,18.89h-40.11l34.27-104.99h42.28l34.27,104.99h-40.11Zm-12.68-48.57l-2.61-9.99-2.61,9.99h5.22Z"/>
            <polygon class="cls-4" points="428.35 169.74 428.35 135.84 392.81 64.76 433.68 64.76 447.31 96.28 460.94 64.76 501.81 64.76 466.26 135.84 466.26 169.74 428.35 169.74"/>
          </g>
          <g>
            <path class="cls-4" d="m118.37,168.74V63.76h47.46c25.07,0,41.27,15.55,41.27,39.62v.13c0,23.87-16.2,39.3-41.27,39.3h-9.55v25.94h-37.91Zm40.81-56.54c8.64,0,9.75-4.65,9.75-8.69v-.13c0-4.02-1.11-8.63-9.75-8.63h-2.9v17.45h2.9Z"/>
            <polygon class="cls-4" points="217.09 168.74 217.09 63.76 255 63.76 255 136.63 292.26 136.63 292.26 168.74 217.09 168.74"/>
            <path class="cls-4" d="m367.1,168.74l-4.94-18.89h-20.71l-4.94,18.89h-40.11l34.27-104.99h42.28l34.27,104.99h-40.11Zm-12.68-48.57l-2.61-9.99-2.61,9.99h5.22Z"/>
            <polygon class="cls-4" points="427.35 168.74 427.35 134.84 391.81 63.76 432.68 63.76 446.31 95.28 459.94 63.76 500.81 63.76 465.26 134.84 465.26 168.74 427.35 168.74"/>
          </g>
          <g>
            <path class="cls-4" d="m117.37,167.74V62.76h47.46c25.07,0,41.27,15.55,41.27,39.62v.13c0,23.87-16.2,39.3-41.27,39.3h-9.55v25.94h-37.91Zm40.81-56.54c8.64,0,9.75-4.65,9.75-8.69v-.13c0-4.02-1.11-8.63-9.75-8.63h-2.9v17.45h2.9Z"/>
            <polygon class="cls-4" points="216.09 167.74 216.09 62.76 254 62.76 254 135.63 291.26 135.63 291.26 167.74 216.09 167.74"/>
            <path class="cls-4" d="m366.1,167.74l-4.94-18.89h-20.71l-4.94,18.89h-40.11l34.27-104.99h42.28l34.27,104.99h-40.11Zm-12.68-48.57l-2.61-9.99-2.61,9.99h5.22Z"/>
            <polygon class="cls-4" points="426.35 167.74 426.35 133.84 390.81 62.76 431.68 62.76 445.31 94.28 458.94 62.76 499.81 62.76 464.26 133.84 464.26 167.74 426.35 167.74"/>
          </g>
          <g>
            <path class="cls-4" d="m116.37,166.74V61.76h47.46c25.07,0,41.27,15.55,41.27,39.62v.13c0,23.87-16.2,39.3-41.27,39.3h-9.55v25.94h-37.91Zm40.81-56.54c8.64,0,9.75-4.65,9.75-8.69v-.13c0-4.02-1.11-8.63-9.75-8.63h-2.9v17.45h2.9Z"/>
            <polygon class="cls-4" points="215.09 166.74 215.09 61.76 253 61.76 253 134.63 290.26 134.63 290.26 166.74 215.09 166.74"/>
            <path class="cls-4" d="m365.1,166.74l-4.94-18.89h-20.71l-4.94,18.89h-40.11l34.27-104.99h42.28l34.27,104.99h-40.11Zm-12.68-48.57l-2.61-9.99-2.61,9.99h5.22Z"/>
            <polygon class="cls-4" points="425.35 166.74 425.35 132.84 389.81 61.76 430.68 61.76 444.31 93.28 457.94 61.76 498.81 61.76 463.26 132.84 463.26 166.74 425.35 166.74"/>
          </g>
          <g>
            <path class="cls-4" d="m115.37,165.74V60.76h47.46c25.07,0,41.27,15.55,41.27,39.62v.13c0,23.87-16.2,39.3-41.27,39.3h-9.55v25.94h-37.91Zm40.81-56.54c8.64,0,9.75-4.65,9.75-8.69v-.13c0-4.02-1.11-8.63-9.75-8.63h-2.9v17.45h2.9Z"/>
            <polygon class="cls-4" points="214.09 165.74 214.09 60.76 252 60.76 252 133.63 289.26 133.63 289.26 165.74 214.09 165.74"/>
            <path class="cls-4" d="m364.1,165.74l-4.94-18.89h-20.71l-4.94,18.89h-40.11l34.27-104.99h42.28l34.27,104.99h-40.11Zm-12.68-48.57l-2.61-9.99-2.61,9.99h5.22Z"/>
            <polygon class="cls-4" points="424.35 165.74 424.35 131.84 388.81 60.76 429.68 60.76 443.31 92.28 456.94 60.76 497.81 60.76 462.26 131.84 462.26 165.74 424.35 165.74"/>
          </g>
          <g>
            <path class="cls-4" d="m114.37,164.74V59.76h47.46c25.07,0,41.27,15.55,41.27,39.62v.13c0,23.87-16.2,39.3-41.27,39.3h-9.55v25.94h-37.91Zm40.81-56.54c8.64,0,9.75-4.65,9.75-8.69v-.13c0-4.02-1.11-8.63-9.75-8.63h-2.9v17.45h2.9Z"/>
            <polygon class="cls-4" points="213.09 164.74 213.09 59.76 251 59.76 251 132.63 288.26 132.63 288.26 164.74 213.09 164.74"/>
            <path class="cls-4" d="m363.1,164.74l-4.94-18.89h-20.71l-4.94,18.89h-40.11l34.27-104.99h42.28l34.27,104.99h-40.11Zm-12.68-48.57l-2.61-9.99-2.61,9.99h5.22Z"/>
            <polygon class="cls-4" points="423.35 164.74 423.35 130.84 387.81 59.76 428.68 59.76 442.31 91.28 455.94 59.76 496.81 59.76 461.26 130.84 461.26 164.74 423.35 164.74"/>
          </g>
          <g>
            <path class="cls-4" d="m113.37,163.74V58.76h47.46c25.07,0,41.27,15.55,41.27,39.62v.13c0,23.87-16.2,39.3-41.27,39.3h-9.55v25.94h-37.91Zm40.81-56.54c8.64,0,9.75-4.65,9.75-8.69v-.13c0-4.02-1.11-8.63-9.75-8.63h-2.9v17.45h2.9Z"/>
            <polygon class="cls-4" points="212.09 163.74 212.09 58.76 250 58.76 250 131.63 287.26 131.63 287.26 163.74 212.09 163.74"/>
            <path class="cls-4" d="m362.1,163.74l-4.94-18.89h-20.71l-4.94,18.89h-40.11l34.27-104.99h42.28l34.27,104.99h-40.11Zm-12.68-48.57l-2.61-9.99-2.61,9.99h5.22Z"/>
            <polygon class="cls-4" points="422.35 163.74 422.35 129.84 386.81 58.76 427.68 58.76 441.31 90.28 454.94 58.76 495.81 58.76 460.26 129.84 460.26 163.74 422.35 163.74"/>
          </g>
          <g>
            <path class="cls-4" d="m112.37,162.74V57.76h47.46c25.07,0,41.27,15.55,41.27,39.62v.13c0,23.87-16.2,39.3-41.27,39.3h-9.55v25.94h-37.91Zm40.81-56.54c8.64,0,9.75-4.65,9.75-8.69v-.13c0-4.02-1.11-8.63-9.75-8.63h-2.9v17.45h2.9Z"/>
            <polygon class="cls-4" points="211.09 162.74 211.09 57.76 249 57.76 249 130.63 286.26 130.63 286.26 162.74 211.09 162.74"/>
            <path class="cls-4" d="m361.1,162.74l-4.94-18.89h-20.71l-4.94,18.89h-40.11l34.27-104.99h42.28l34.27,104.99h-40.11Zm-12.68-48.57l-2.61-9.99-2.61,9.99h5.22Z"/>
            <polygon class="cls-4" points="421.35 162.74 421.35 128.84 385.81 57.76 426.68 57.76 440.31 89.28 453.94 57.76 494.81 57.76 459.26 128.84 459.26 162.74 421.35 162.74"/>
          </g>
          <g>
            <path class="cls-4" d="m111.37,161.74V56.76h47.46c25.07,0,41.27,15.55,41.27,39.62v.13c0,23.87-16.2,39.3-41.27,39.3h-9.55v25.94h-37.91Zm40.81-56.54c8.64,0,9.75-4.65,9.75-8.69v-.13c0-4.02-1.11-8.63-9.75-8.63h-2.9v17.45h2.9Z"/>
            <polygon class="cls-4" points="210.09 161.74 210.09 56.76 248 56.76 248 129.63 285.26 129.63 285.26 161.74 210.09 161.74"/>
            <path class="cls-4" d="m360.1,161.74l-4.94-18.89h-20.71l-4.94,18.89h-40.11l34.27-104.99h42.28l34.27,104.99h-40.11Zm-12.68-48.57l-2.61-9.99-2.61,9.99h5.22Z"/>
            <polygon class="cls-4" points="420.35 161.74 420.35 127.84 384.81 56.76 425.68 56.76 439.31 88.28 452.94 56.76 493.81 56.76 458.26 127.84 458.26 161.74 420.35 161.74"/>
          </g>
          <g>
            <path class="cls-4" d="m110.37,160.74V55.76h47.46c25.07,0,41.27,15.55,41.27,39.62v.13c0,23.87-16.2,39.3-41.27,39.3h-9.55v25.94h-37.91Zm40.81-56.54c8.64,0,9.75-4.65,9.75-8.69v-.13c0-4.02-1.11-8.63-9.75-8.63h-2.9v17.45h2.9Z"/>
            <polygon class="cls-4" points="209.09 160.74 209.09 55.76 247 55.76 247 128.63 284.26 128.63 284.26 160.74 209.09 160.74"/>
            <path class="cls-4" d="m359.1,160.74l-4.94-18.89h-20.71l-4.94,18.89h-40.11l34.27-104.99h42.28l34.27,104.99h-40.11Zm-12.68-48.57l-2.61-9.99-2.61,9.99h5.22Z"/>
            <polygon class="cls-4" points="419.35 160.74 419.35 126.84 383.81 55.76 424.68 55.76 438.31 87.28 451.94 55.76 492.81 55.76 457.26 126.84 457.26 160.74 419.35 160.74"/>
          </g>
        </g>
        <text class="cls-6" transform="translate(108.79 155.74)"><tspan class="cls-2" x="0" y="0">PL</tspan><tspan class="cls-11" x="184.53" y="0">A</tspan><tspan class="cls-9" x="281.13" y="0">Y</tspan></text>
      </g>
    </g>
  </g>
</svg>